<svg xmlns="http://www.w3.org/2000/svg" xmlns:xlink="http://www.w3.org/1999/xlink" viewBox="0 0 896.78 805.59"><defs><linearGradient id="prefix__linear-gradient" x1="-64.58" y1="246.17" x2="929.8" y2="246.17" gradientUnits="userSpaceOnUse"><stop offset="0" stop-color="#856c34"/><stop offset=".15" stop-color="#856c34"/><stop offset=".45" stop-color="#b8a974"/><stop offset=".61" stop-color="#d1c693"/><stop offset=".72" stop-color="#dbd7b8"/><stop offset=".84" stop-color="#d1c693"/><stop offset="1" stop-color="#856c34"/></linearGradient><linearGradient id="prefix__linear-gradient-2" x1="29.28" y1="699.18" x2="672.45" y2="699.18" xlink:href="#prefix__linear-gradient"/><linearGradient id="prefix__linear-gradient-3" x1="-6.98" y1="448.06" x2="345.53" y2="800.56" xlink:href="#prefix__linear-gradient"/><linearGradient id="prefix__linear-gradient-4" x1="-.54" y1="441.62" x2="351.96" y2="794.13" xlink:href="#prefix__linear-gradient"/><linearGradient id="prefix__linear-gradient-5" x1="8.68" y1="432.4" x2="361.19" y2="784.91" xlink:href="#prefix__linear-gradient"/><linearGradient id="prefix__linear-gradient-6" x1="37.85" y1="403.23" x2="390.35" y2="755.74" xlink:href="#prefix__linear-gradient"/><linearGradient id="prefix__linear-gradient-7" x1="55.09" y1="385.99" x2="407.6" y2="738.49" xlink:href="#prefix__linear-gradient"/><linearGradient id="prefix__linear-gradient-8" x1="-4.74" y1="800.85" x2="609.9" y2="186.2" xlink:href="#prefix__linear-gradient"/><linearGradient id="prefix__linear-gradient-9" x1="-165.33" y1="217.77" x2="829.06" y2="217.77" xlink:href="#prefix__linear-gradient"/><linearGradient id="prefix__linear-gradient-13" x1="-161.68" y1="380.77" x2="832.71" y2="380.77" xlink:href="#prefix__linear-gradient"/><linearGradient id="prefix__linear-gradient-17" x1="-551.21" y1="-177.6" x2="830.09" y2="1203.7" xlink:href="#prefix__linear-gradient"/><linearGradient id="prefix__linear-gradient-18" x1="-504.63" y1="-224.17" x2="876.66" y2="1157.13" xlink:href="#prefix__linear-gradient"/><linearGradient id="prefix__linear-gradient-19" x1="-464.63" y1="-264.17" x2="916.66" y2="1117.12" xlink:href="#prefix__linear-gradient"/><linearGradient id="prefix__linear-gradient-20" x1="-440.81" y1="-288" x2="940.49" y2="1093.3" xlink:href="#prefix__linear-gradient"/><linearGradient id="prefix__linear-gradient-21" x1="-400.4" y1="-328.4" x2="980.9" y2="1052.89" xlink:href="#prefix__linear-gradient"/><linearGradient id="prefix__linear-gradient-22" x1="-354.31" y1="-374.49" x2="1026.99" y2="1006.8" xlink:href="#prefix__linear-gradient"/><linearGradient id="prefix__linear-gradient-23" x1="-1107.08" y1="746.71" x2="430.81" y2="746.71" xlink:href="#prefix__linear-gradient"/><linearGradient id="prefix__linear-gradient-24" x1="-766.27" y1="746.71" x2="372.32" y2="746.71" xlink:href="#prefix__linear-gradient"/><linearGradient id="prefix__linear-gradient-25" x1="-1332.62" y1="746.71" x2="499.45" y2="746.71" xlink:href="#prefix__linear-gradient"/><linearGradient id="prefix__linear-gradient-26" x1="-864.95" y1="746.71" x2="436.04" y2="746.71" xlink:href="#prefix__linear-gradient"/><linearGradient id="prefix__linear-gradient-27" x1="-1106.96" y1="746.71" x2="490.01" y2="746.71" xlink:href="#prefix__linear-gradient"/><linearGradient id="prefix__linear-gradient-28" x1="-685.92" y1="746.71" x2="452.67" y2="746.71" xlink:href="#prefix__linear-gradient"/><linearGradient id="prefix__linear-gradient-29" x1="-1000.24" y1="746.71" x2="521.3" y2="746.71" xlink:href="#prefix__linear-gradient"/><linearGradient id="prefix__linear-gradient-30" x1="-682.36" y1="746.71" x2="503.76" y2="746.71" xlink:href="#prefix__linear-gradient"/><linearGradient id="prefix__linear-gradient-31" x1="-1148.14" y1="746.71" x2="562.66" y2="746.71" xlink:href="#prefix__linear-gradient"/><linearGradient id="prefix__linear-gradient-32" x1="-1247.76" y1="746.71" x2="584.31" y2="746.71" xlink:href="#prefix__linear-gradient"/><linearGradient id="prefix__linear-gradient-33" x1="-731.65" y1="746.71" x2="569.34" y2="746.71" xlink:href="#prefix__linear-gradient"/><linearGradient id="prefix__linear-gradient-34" x1="-1090.1" y1="746.71" x2="602.2" y2="746.71" xlink:href="#prefix__linear-gradient"/><style>.prefix__cls-9{fill:url(#prefix__linear-gradient-9)}.prefix__cls-10{fill:url(#prefix__linear-gradient-13)}</style></defs><g id="prefix__Layer_2" data-name="Layer 2"><g id="prefix__Object"><path d="M820.8 299.89c11.56-6.83 22.85-16.34 35.27-29.74 17-18.39 23.08-35.22 17.95-50a5.9 5.9 0 00-4-3.76 5.83 5.83 0 00-5.39 1.23 218.85 218.85 0 01-69.72 40.62c-3 1.07-6 2.1-9.11 3.13-17.12 5.75-34.81 11.7-46.82 26.08l-.18.23c-21.57-8.47-47.26-11-74.54-7.27a251.35 251.35 0 00-37 8.14 134.27 134.27 0 0030-46c3.06-1.85 6-3.82 9-5.85 11.42 4.78 24.84 6.16 42.1 4.29l1.26-.15c65.19-7.6 124.44-53.72 147.7-115.13.68-1.79 2.48-6.55-.17-10.87-3.17-5.17-9.43-5-11.5-4.88-1.33.06-2.64.17-4 .24 5.61-5.73 10.25-12.25 12.43-18.17 4.46-12.13 4.94-25.16 4.82-36.29-.16-13.82-6.67-17.74-10.53-18.74-3.27-.93-6.33-.36-9.17.38-3.14.83-6.28 1.85-9.42 2.92l-2.19-21.8c-.76-7.44-4.84-9.54-7.19-10.13a10.23 10.23 0 00-4.95.09 60.2 60.2 0 00-25.86 13.07l-1-7.37a11.14 11.14 0 00-1.38-4.34c-2.76-4.62-8.22-4.75-10-4.8-19.72-.48-43.66.91-60.19 14.54l-4-8.7c-1.28-2.78-3.21-7-7.52-9.32s-11.32-3.16-20.72 5.72C648.89 41.09 629.66 82.79 632 121.65c.95 15.9 5.37 31.18 9.64 46 1.44 5 2.88 10 4.19 15 5.19 19.84 7.36 36.59 1.1 53.79l-.06.18c-8.1 22.16-23 41.71-43.19 57a126.91 126.91 0 000-20.82l-.13-2c-2.47-43.25-6.65-84.86-30.33-118.53a5.88 5.88 0 00-5.08-2.5 5.82 5.82 0 00-4.85 2.94c-8.15 14.1-9.13 30.48-10 44.93-1.29 21.36-2.6 43.46.77 65.36 2.75 17.89 7.86 41 20.78 49.42-10.66 6.58-21.55 13.46-31.52 21.58-44.12 35.94-66.64 97.65-56 153.56a5.9 5.9 0 006.47 4.76l.42-.07a5.89 5.89 0 004.7-6.89c-7.38-39 2.6-80.92 25.39-113.5 7.62 15.93 40.53 20.13 50.64 21a95.13 95.13 0 0019.47-.25 87.09 87.09 0 0044.93-18.51 5.89 5.89 0 00-1.77-10.1l-32.07-11.54c-13.48-4.84-27.41-9.85-42.39-10.79a67.88 67.88 0 00-11 .44c9.82-7.81 20.78-14.62 31.43-21.18 5.86-3.61 11.68-7.27 17.42-11.07 20.34-7.6 42.1-14.69 64.83-17.77 22.17-3.06 43.12-1.63 61.22 4a25.78 25.78 0 00-2 2.49c-26.14 36.25-32.16 86.44-15.32 127.85 5.25 12.91 13.29 20 22.65 20a20.57 20.57 0 002.09-.13c9.63-1.12 17.06-9.78 21-24.65a211.08 211.08 0 006.94-42.87l30.08 40a117.77 117.77 0 0012.34 14.62c1.32 1.25 4.8 4.59 9.67 4.12h.25a12.38 12.38 0 006.64-3.26 53.66 53.66 0 0018.18-43.29 124.45 124.45 0 0027.48.08 103.57 103.57 0 0026-6.46 5.91 5.91 0 003.43-7.31c-11.51-35.74-40.44-64.87-75.64-77.39zm25.1-178.15h.27C824.23 179.35 768.36 222.42 707 229.23c-11.7 1.27-21.25.92-29.37-1.13 3.42-2.77 6.72-5.68 9.93-8.68a161.29 161.29 0 0096.47-31.5c13.26-9.71 26.3-22.32 41-39.7 7.31-8.53 14.24-17.44 20.87-26.48zm-3.9.26h.15a475.242 475.242 0 01-19.31 24.35c-14.58 17.2-27.46 29.66-40.53 39.23a161.82 161.82 0 01-86.71 30.82c26.93-8.44 56.18-28.42 79.57-45.72 6.43-4.75 12.7-9.48 18.9-14.16 16.02-12.12 31.24-23.6 47.93-34.52zm-148.87 92a185.17 185.17 0 0032.16-44.55s.06 0 .09-.05a193.72 193.72 0 0130.83-21.83 2.29 2.29 0 00.27-.14l.11-.08a196.57 196.57 0 0179.53-25c-15.1 10.14-29.16 20.68-43.8 31.73-6.2 4.68-12.46 9.41-18.88 14.15-23.68 17.54-53.38 37.77-80.31 45.77zm99-178.35a50.16 50.16 0 0123.77-15.4l2.42 23.94c-8.68 2.87-17 4.87-25 3.29L791.65 36a5.63 5.63 0 00.46-.34zm4.41 66.08c2.86-11.37 1.2-23-.26-33.31L795 59.68c11.7 1.13 22.89-2.79 33.75-6.61 4.48-1.57 9-3.15 13.43-4.33a10.25 10.25 0 013-.44c.58.17 1.87 2.29 1.93 7.53.11 10.07-.29 21.76-4.09 32.1-3.31 9-15.56 21.19-24.94 24.95a209.21 209.21 0 00-31 7.9 52.48 52.48 0 009.44-19.04zm-19-81.24l7.05 49.59c1.37 9.66 2.79 19.65.5 28.76-4.05 16.07-18.75 27.43-34.84 38.56q-7.79 4.47-15.19 9.61c1.83-5.13 3.45-10.34 4.81-15.63.94-3.68 1.69-7.2 2.31-10.64 11.3-13.83 16.7-32.14 20.41-48.82 1-4.49 1.82-8.84 2.62-13.07 2.63-13.93 5.01-26.12 12.32-38.35zM762.3 58.31c-.8 4.2-1.61 8.52-2.61 13-3.25 14.66-7.81 30.6-16.6 43.39a97 97 0 00.78-19.19c-.81-12-4.25-23.63-8.51-34.57 1.71-5.06 5.11-9.68 8-13.57 9.25-12.51 18.66-24 31.47-28.17-7.51 12.65-9.96 25.53-12.53 39.11zM773 16.75c-13.1 4.62-22.64 16.24-32 28.84A65.27 65.27 0 00733.78 57c-2.41-5.87-5-11.55-7.47-17l-4.21-9.2c12.49-12.28 33.05-14.22 50.9-14.05zM643.76 121c-2.12-35.37 15.77-73.68 49.08-105.11 3-2.81 5.17-3.85 6.32-4a1.32 1.32 0 01.71.08c.83.44 1.84 2.66 2.38 3.84l13.33 29.09c7.53 16.45 15.32 33.46 16.52 51.38.64 9.51-.56 20-3.67 32.18a172.25 172.25 0 01-66.65 97c2.13-14.73-.26-29.36-4.55-45.79-1.34-5.11-2.81-10.2-4.28-15.29-4.28-14.86-8.32-28.85-9.19-43.38zM576 381.13c-18.07-1.62-38.44-7.53-41.25-14.64a7.74 7.74 0 01-.61-2.75 157.42 157.42 0 0079.29 11.35c.77-.09 1.53-.23 2.29-.33a81 81 0 01-39.72 6.37zm-37.19-18.59c1.52-.08 3-.18 4.57-.28 8-.5 16.38-1 24.21.14 7.66 1.15 15.4 2.75 22.89 4.3 8.84 1.83 17.9 3.71 27 4.88a154 154 0 01-78.72-9.04zm14.92-8.76a50.85 50.85 0 018.69-.33c13.31.83 26.44 5.55 39.13 10.12l12.58 4.52c-7.77-1.16-15.5-2.71-23.05-4.28s-15.31-3.17-23-4.32c-8.14-1.22-16.63-.69-24.84-.17-2.38.15-4.73.24-7.09.35 3.39-3.09 10.7-5.1 17.53-5.89zm12-92.53c-3.18-20.7-1.89-42.21-.65-63a187.15 187.15 0 012.07-20.56c0 5-.16 10.16-.37 15.22-.29 6.94-.58 14.12-.24 20.71 1 20 3 40.11 5.82 59.88 1.63 11.37 4.25 22.65 11.33 30.18-4.69-1.17-12.69-8.41-17.97-42.43zm23.53 40.63a5.66 5.66 0 00-1.66 1.45c-7.88-6.83-10.63-18.49-12.32-30.27a668.493 668.493 0 01-5.79-59.62c-.34-6.45-.06-13.24.24-20.42a206.19 206.19 0 000-24.23c16.51 29.47 19.91 65.34 22 102.57l.13 2.1c.44 6.35 1.46 22.54-2.61 28.42zm281.88 50.69a119.5 119.5 0 00-15.33-9.37 639 639 0 00-68.55-31.29 83.85 83.85 0 0017.74-4.44c.08 0 .14.08.23.1 26.62 6.09 50.33 22.72 65.9 45zm-81.61-80c3.14-1.05 6.26-2.1 9.32-3.2a230.09 230.09 0 0064.95-35.8c-1 8.37-6.51 17.94-16.38 28.6-12.66 13.66-23.93 22.95-35.46 29.25-14.11 7.71-29.23 10.86-42.57 8.85a111 111 0 01-13.24-3.11c-2.44-.67-4.93-1.36-7.46-2a6 6 0 00-.09-.85c9.91-11.31 25.67-16.64 40.92-21.77zm-45.46 146c-1 3.75-4.79 16.13-11.78 16-5.9 0-10.13-8.81-11.67-12.61-15.34-37.74-9.87-83.47 14-116.51a22.19 22.19 0 011.76-2.1 127.93 127.93 0 018.13 20.23 37.77 37.77 0 002.26 8.32c6.23 26.26 5.48 56.1-2.71 86.63zm69.45 6.7c-.15-.13-.33-.28-.53-.48a107.78 107.78 0 01-11.07-13.19l-39.08-51.89c-.1-.13-.25-.2-.36-.32 0-.61-.07-1.23-.1-1.84 4.71 5.6 9.74 10.27 14.28 12.77A174.48 174.48 0 00827.59 389a41.84 41.84 0 01-14.08 36.23zm-42.32-75.51c2.54 2 5.12 3.87 7.7 5.65 6.11 4.21 12.41 8.19 18.76 12.06-5.12-2.21-10.22-4.69-15.31-7.49-3.35-1.89-7.35-5.68-11.16-10.26zm42.09 23.58c-11.08-6.41-22.15-13.07-32.71-20.35a106.21 106.21 0 01-17.2-14.14 70.13 70.13 0 01-5.25-10c-.37-1.49-.76-3-1.16-4.43 8.84 8.16 18.93 14.51 27.79 19.54a327.91 327.91 0 0087.8 34.23c-18.22 3.38-38.56 1.69-59.28-4.89zm66 3.25a324.76 324.76 0 01-93.07-35.24c-10-5.68-21.59-13.07-31-22.87-1.13-3.51-2.35-7-3.73-10.36l1.53.42a123.43 123.43 0 0014.63 3.41 66.87 66.87 0 0012.86.62 638.41 638.41 0 0173.93 33.27c8.14 4.32 16.36 9.08 22.29 15.66a107.79 107.79 0 016.65 13.93c-1.38.39-2.74.75-4.1 1.12z" fill="url(#prefix__linear-gradient)"/><path fill="url(#prefix__linear-gradient-2)" d="M29.28 696.94h643.17v4.47H29.28z"/><path d="M134.14 596.88a143.55 143.55 0 008.75-21.67 1.24 1.24 0 00.05-.6 7.59 7.59 0 00.95.07h.36a6.91 6.91 0 005.49-3.22 5.8 5.8 0 00-.24-6.83 8.21 8.21 0 00-8.37-2.86 6.06 6.06 0 00-4.31 5.66 6.55 6.55 0 00.24 2.78 5.77 5.77 0 001.39 2.16 7.73 7.73 0 001.94 1.43 1.32 1.32 0 00-.33.56 139.09 139.09 0 01-7.86 19.77 7.45 7.45 0 00-7.53-1.39 7.75 7.75 0 00-5.13 7.22 10.36 10.36 0 005 8.66c-2.62 4.6-5.34 9.12-8.06 13.6q-1.48-7.22-3.41-14.36c-4.47-18.69-3.48-42.11 2.59-61.26q1.68-5.25 3.8-10.48c.09.23.16.45.27.67 1.17 2.5 2.82 4.1 4.77 4.63a5.67 5.67 0 001.48.19 7.14 7.14 0 004.45-1.67 8.28 8.28 0 003-7.55 5.77 5.77 0 00-1.64-3.31 6.34 6.34 0 00-2.64-1.42 13.5 13.5 0 00-5.84-.25q2.52-5.2 5.51-10.43h.4a7.11 7.11 0 001.94-.26 6.77 6.77 0 004.08-3.49 7.6 7.6 0 00.49-5.2 5.27 5.27 0 00-.56-1.38q2.52-3.81 5.3-7.66a8.88 8.88 0 001.42.23 13.66 13.66 0 001.4.07 7.55 7.55 0 005.41-1.82 5.52 5.52 0 001.63-5.21 7.09 7.09 0 00-4.34-5.16 5.29 5.29 0 00-4.56.26c-2.76 1.54-3.63 5.09-3.83 6.14a5.16 5.16 0 00.36 3.78v.06q-2.61 3.61-5 7.21a12.65 12.65 0 00-6.13-1.36 7.7 7.7 0 00-3.64.72 6.32 6.32 0 00-2.48 7.95 8.61 8.61 0 005 4.46q-3.37 6-6.14 11.93l-.26.08a28.8 28.8 0 00-3.17-4c-2-2-3.84-3.07-5.78-3.25a6.43 6.43 0 00-6.7 4.62 6.36 6.36 0 003.55 7.34 8.42 8.42 0 004.48.44 31.64 31.64 0 006.28-1.63 146.28 146.28 0 00-5.17 13.78 126.46 126.46 0 00-5.21 45.49c-1.06-2.84-2.17-5.67-3.37-8.47-.85-2-1.74-3.94-2.65-5.9a11.76 11.76 0 005.43-6 9 9 0 00-.87-8.49 3.54 3.54 0 00-3.24-1.75 3.72 3.72 0 00-2.88 2.48 27.94 27.94 0 00-1.88 6.56c-1.43-2.92-2.88-5.82-4.32-8.67q-1.42-2.82-2.85-5.69a8.38 8.38 0 006.1-2.1c2-1.55 2.75-4.44 2-7.71-.55-2.47-1.74-4.17-3.45-4.91-3-1.29-6.25.89-7.67 3.74A17.32 17.32 0 0087 547c-2.6-5.51-5-11.11-7.08-16.81a100 100 0 01-5.63-24.86 9.62 9.62 0 004.53 1.15 8.42 8.42 0 002.92-.51 8.12 8.12 0 005.06-6.41 6.4 6.4 0 00-2.59-6.26c-2.15-1.57-5.59-1.59-8-.92a9.29 9.29 0 00-1.9.75A55.56 55.56 0 0178 477.36a4.15 4.15 0 001.45.28 6.76 6.76 0 003.76-1.31 6.08 6.08 0 001.94-1.95 4.11 4.11 0 00-.31-5 7.2 7.2 0 00-7.6-1.5 4.39 4.39 0 00-2.78 4.61 5.84 5.84 0 00.88 2.51c.08.14.17.26.26.39-5.85 13.86-5.29 28.75-2.57 41.54-2.55-1.39-6.11.06-7.84 1.59a8.68 8.68 0 00-2.65 4.72 5.6 5.6 0 00.25 3.51 5.29 5.29 0 001.29 1.69 8 8 0 005.39 1.93 10.62 10.62 0 004-.83 5.62 5.62 0 001.85-1.16 4.34 4.34 0 00.56-.72c.39 1.23.8 2.42 1.21 3.57 1.86 5.21 4 10.32 6.37 15.34a14.4 14.4 0 00-5.1-3.57 9.13 9.13 0 00-8.22 1 7 7 0 00-2.61 8.1c.76 1.86 2.45 3.39 5 4.53A15.58 15.58 0 0078.8 558a10.83 10.83 0 002.69-.32 10.55 10.55 0 005.6-3.59q2.05 4.15 4.11 8.23c1.93 3.82 3.89 7.68 5.8 11.68-.42-.16-.84-.33-1.28-.52a21.15 21.15 0 00-2.77-1 25.65 25.65 0 00-7.17-.91 8.26 8.26 0 00-3.19.55c-2.48 1.06-3.59 3.61-4.08 5.57s-.76 4.78.75 7.13a7.67 7.67 0 006.45 3.18h.37a12.3 12.3 0 006.66-2.59 19.63 19.63 0 006.15-7.41c.91 2 1.8 3.93 2.64 5.9a193.52 193.52 0 018.66 24.67c0 .12 0 .24.08.35s0 .05 0 .08a193.82 193.82 0 015.3 76.39l2.94.39a197 197 0 00-1.27-59.24l.09-.11c3.31-5.44 6.65-10.94 9.85-16.56a5.13 5.13 0 001.32.19 5.66 5.66 0 00.6 0c2.19-.28 3.94-1.85 4.93-4.42a12.85 12.85 0 00.11-8.76z" fill="url(#prefix__linear-gradient-3)"/><path d="M146.7 592.3a8 8 0 00-.88 4.7 6.36 6.36 0 002.53 4.33 7.27 7.27 0 002.94 1.17 8.89 8.89 0 001.53.14 7 7 0 005.55-2.47c1.48-1.89 1.54-4.28 1.48-6.38-.09-3-1.7-5.23-4.33-5.83a8.37 8.37 0 00-8.82 4.34z" fill="url(#prefix__linear-gradient-4)"/><path d="M64.65 484.3a4.17 4.17 0 00-.11-1.34 5.26 5.26 0 00-4.89-4 4.25 4.25 0 00-4.2 3.18 4.66 4.66 0 001.63 4.94 4.84 4.84 0 003 1 5.06 5.06 0 002.08-.45 4.18 4.18 0 002.49-3.33z" fill="url(#prefix__linear-gradient-5)"/><path d="M91 462.54a6.36 6.36 0 002.44.53 4.59 4.59 0 001-.1 4.09 4.09 0 003.07-2.48 5.65 5.65 0 00-.16-3.64 3.78 3.78 0 00-3.95-3 5.57 5.57 0 00-4.87 4.57 3.75 3.75 0 00.31 2.26 4 4 0 002.16 1.86z" fill="url(#prefix__linear-gradient-6)"/><path d="M140.79 480.2a5.58 5.58 0 003.28 1.15h.33a6.72 6.72 0 005.08-2.23 5.7 5.7 0 001-6c-1.38-3-5.48-3-7.83-2a5.94 5.94 0 00-3.43 3.86 5 5 0 001.57 5.22z" fill="url(#prefix__linear-gradient-7)"/><path fill="url(#prefix__linear-gradient-8)" d="M695.21 805.59H0V91.42h515.12v8.94H8.94v696.29h677.33V467.28h8.94v338.31z"/><path class="prefix__cls-9" d="M141.38 262.91a34.42 34.42 0 007.49-21.77q0-20.37-21.24-25.49 9.13-2.49 13.75-9.11a25.25 25.25 0 004.62-14.79 28.85 28.85 0 00-7.94-20q-7.94-8.74-25.25-8.74H57.23v109.48h52.12q24.53 0 32.03-9.58zm-53.2-76.37h15q11.24 0 11.23 9.14A9.92 9.92 0 01112 202q-2.4 3-8.26 3H88.18zm0 61.58v-19.89h15.23q7.38 0 10.15 3.17a10.33 10.33 0 012.76 6.94 9.62 9.62 0 01-2.84 6.77c-1.9 2-4.88 3-8.94 3zM196.34 163.05h-33.59v109.44h76.73v-26.86h-43.14v-82.58zM297.36 161.37q-24.69 0-38.6 16t-13.92 40.53q0 25.67 14.56 41t37.6 15.27q22.93 0 37.44-15.71T349 216.69q0-25.18-14.4-40.25t-37.24-15.07zm11.75 80.53q-3.74 7.42-12.23 7.42-15.87 0-15.87-30.55 0-32.55 16.51-32.55 15.32 0 15.32 28.54 0 19.73-3.73 27.14zM410.81 161.37q-24.69 0-38.6 16t-13.92 40.53q0 25.67 14.56 41t37.64 15.31q22.93 0 37.44-15.71t14.52-41.77q0-25.18-14.4-40.25t-37.24-15.11zm11.75 80.53q-3.74 7.42-12.23 7.42-15.87 0-15.88-30.55 0-32.55 16.52-32.55 15.31 0 15.32 28.54 0 19.73-3.73 27.14z"/><path class="prefix__cls-10" d="M120.65 384.18l-15.87-58.13h-43.9V435.5h25.18v-78.26l21.04 78.26h21.33l20.24-78.26v78.26h31.19V326.05H135.8l-15.15 58.13zM198.95 326.05h33.59v109.44h-33.59zM317.85 358.44a159.35 159.35 0 002.56 28.71 153.38 153.38 0 00-11.54-21l-25.5-40.09h-31.75v109.43h27.26v-53a76.27 76.27 0 00-2.64-18 183.54 183.54 0 0011.64 22.6l30 48.35h27.34V326.05h-27.37zM411.25 348.66q12.58 0 15 17.08l32.55-3.21q-3.54-18.27-15.48-28.22t-31.51-9.94q-26.06 0-39.24 16.72t-13.19 41.25q0 25.25 13.63 40.05t34.79 14.79q20 0 30.15-13.15a64.34 64.34 0 014.41 11.46h16.44v-61.33h-49.31v23.25h18.12a12.83 12.83 0 01-4.37 10.1 15.38 15.38 0 01-10.38 3.69 16.45 16.45 0 01-12.86-6.05q-5.29-6.06-5.3-25.06.03-31.42 16.55-31.43z"/><path d="M255.16 554.79q-7.66-3.37-22.4-3.38h-39.41v92.27h28.73v-33.53h16q15.35 0 24.53-8.11t9.2-21.29a28.18 28.18 0 00-4.5-15.62 27.16 27.16 0 00-12.15-10.34zm-24 35.56h-9.46V572.5h10.41q11.56 0 11.56 8.65-.03 9.2-12.54 9.2z" fill="url(#prefix__linear-gradient-17)"/><path fill="url(#prefix__linear-gradient-18)" d="M282.37 643.68h69.42v-22.04h-41.64v-15.07h33.66v-20.48h-33.66V572.7h41.64v-21.29h-69.42v92.27z"/><path fill="url(#prefix__linear-gradient-19)" d="M420.07 551.41h-65.1v22.1h19.13v70.17h26.84v-70.17h19.13v-22.1z"/><path d="M444 551.41l-28.48 92.27h23l5.54-18.18h24.72l5.22 18.18h28.91L474 551.41zm4.87 53.94l7.46-26.76 7.46 26.76z" fill="url(#prefix__linear-gradient-20)"/><path fill="url(#prefix__linear-gradient-21)" d="M539.71 551.41h-28.32v92.27h64.68v-22.65h-36.36v-69.62z"/><path d="M642.93 589.1q-7-2.69-23.52-6.19-6-1.29-8.11-2.7a4.55 4.55 0 01-2.1-4q0-5.75 9.26-5.75 11.16 0 14.81 9.26l23.45-7.09Q647.66 550 619.48 550q-18.6 0-28.5 8.66a27.62 27.62 0 00-9.9 21.7A25.26 25.26 0 00588 598q6.9 7.5 31.17 12.15 6.35 1.29 8.82 2.94a5.28 5.28 0 012.46 4.63q0 5.68-10.67 5.68-13.72 0-17-11.15L576.41 617q7.92 28.13 41.64 28.12 18.47 0 29.81-8.69t11.36-22.7a25.81 25.81 0 00-4.66-15.39 25.39 25.39 0 00-11.63-9.24z" fill="url(#prefix__linear-gradient-22)"/><path fill="url(#prefix__linear-gradient-23)" d="M139.11 764.59h10.68v-13.38h11.66v-8.04h-11.66v-5.82h15.17v-8.51h-25.85v35.75z"/><path fill="url(#prefix__linear-gradient-24)" d="M179.42 728.84h-10.98v35.75h25.07v-8.77h-14.09v-26.98z"/><path d="M212.42 728.29q-8.07 0-12.61 5.22a19.47 19.47 0 00-4.55 13.24q0 8.38 4.76 13.39a16.19 16.19 0 0012.29 5 15.89 15.89 0 0012.23-5.14q4.74-5.14 4.74-13.65 0-8.22-4.7-13.15a16.06 16.06 0 00-12.16-4.91zm3.83 26.31a4.15 4.15 0 01-4 2.42q-5.19 0-5.19-10 0-10.63 5.4-10.63 5 0 5 9.32c.01 4.29-.39 7.29-1.21 8.89z" fill="url(#prefix__linear-gradient-25)"/><path d="M264.35 744.83a11.46 11.46 0 001.26-5.46 9.52 9.52 0 00-3.42-7.64q-3.42-2.9-9.6-2.89h-18.67v35.75h11v-13.67h3.46l5.23 13.67h12.16l-6.5-15.59q3.83-1.8 5.08-4.17zm-11.44-2.42a5.83 5.83 0 01-3.33.86h-4.69v-6.84H250q4.22 0 4.21 3.44a2.89 2.89 0 01-1.3 2.54z" fill="url(#prefix__linear-gradient-26)"/><path d="M279 728.84l-11 35.75h8.91l2.15-7.05h9.58l2 7.05h11.2l-11.21-35.75zm1.89 20.9l2.89-10.37 2.89 10.37z" fill="url(#prefix__linear-gradient-27)"/><path fill="url(#prefix__linear-gradient-28)" d="M316.11 728.84h-10.98v35.75h25.07v-8.77h-14.09v-26.98z"/><path d="M361.26 728.84h-13.83v35.75h14.51a16.51 16.51 0 0012.48-5q4.8-5 4.8-13a18.69 18.69 0 00-4.47-12.36q-4.48-5.39-13.49-5.39zm4.59 24.88a5.5 5.5 0 01-4.59 2.65h-2.86V737h2.86a5.26 5.26 0 014.8 2.83 13 13 0 011.67 6.73 12.23 12.23 0 01-1.88 7.16z" fill="url(#prefix__linear-gradient-29)"/><path fill="url(#prefix__linear-gradient-30)" d="M383.86 764.59h26.9v-8.54h-16.13v-5.84h13.04v-7.94h-13.04v-5.18h16.13v-8.25h-26.9v35.75z"/><path d="M430 736.41a4.14 4.14 0 013.23 1.6q1.38 1.59 1.38 5.18l10.24-.55a16.24 16.24 0 00-4.31-10.42q-3.81-3.93-10.91-3.93-7.59 0-11.84 5.16T413.51 747q0 8.47 4.48 13.3a16.67 16.67 0 0022 1.31c2.77-2.34 4.38-5.7 4.86-10.08l-10-.61q-.52 5.92-4.88 5.92a4.27 4.27 0 01-3.78-2.09c-.9-1.4-1.35-4-1.35-7.94q-.07-10.4 5.16-10.4z" fill="url(#prefix__linear-gradient-31)"/><path d="M464.37 728.29q-8.07 0-12.61 5.22t-4.54 13.24q0 8.38 4.75 13.39a16.22 16.22 0 0012.3 5A15.9 15.9 0 00476.5 760q4.74-5.14 4.74-13.65 0-8.22-4.7-13.15a16.09 16.09 0 00-12.17-4.91zm3.84 26.31a4.16 4.16 0 01-4 2.42Q459 757 459 747q0-10.63 5.39-10.63 5 0 5 9.32c.04 4.31-.39 7.31-1.18 8.91z" fill="url(#prefix__linear-gradient-32)"/><path d="M516.31 744.83a11.57 11.57 0 001.25-5.46 9.54 9.54 0 00-3.41-7.64q-3.42-2.9-9.6-2.89h-18.68v35.75h11v-13.67h3.46l5.22 13.67h12.16L511.23 749q3.82-1.8 5.08-4.17zm-11.45-2.42a5.82 5.82 0 01-3.32.86h-4.69v-6.84h5q4.22 0 4.22 3.44a2.9 2.9 0 01-1.21 2.54z" fill="url(#prefix__linear-gradient-33)"/><path d="M545 743.44a68.42 68.42 0 00-9.11-2.4 10.11 10.11 0 01-3.15-1 1.78 1.78 0 01-.81-1.55c0-1.48 1.2-2.22 3.59-2.22q4.32 0 5.73 3.58l9.09-2.75q-3.51-8.77-14.43-8.77-7.2 0-11 3.35a10.71 10.71 0 00-3.84 8.41 9.8 9.8 0 002.68 6.84q2.67 2.91 12.07 4.71a10.24 10.24 0 013.42 1.14 2 2 0 011 1.79q0 2.21-4.13 2.2-5.33 0-6.6-4.32l-10.19 1.83q3.06 10.9 16.13 10.9 7.15 0 11.55-3.37a10.57 10.57 0 004.4-8.79 9.93 9.93 0 00-1.81-6 9.81 9.81 0 00-4.59-3.58z" fill="url(#prefix__linear-gradient-34)"/></g></g></svg>