<svg width="95" height="86" fill="none" xmlns="http://www.w3.org/2000/svg"><path d="M94.854 39.805c-1.228-3.757-4.285-6.827-8.01-8.146 1.228-.717 2.413-1.72 3.735-3.133 1.799-1.942 2.444-3.715 1.905-5.276a.641.641 0 00-.423-.401.654.654 0 00-.572.127 23.083 23.083 0 01-7.374 4.283 26 26 0 01-.963.328c-1.81.611-3.682 1.234-4.952 2.753l-.021.021c-2.285-.896-5.005-1.16-7.883-.77a26.31 26.31 0 00-3.914.855c1.396-1.414 2.486-3.06 3.174-4.854.328-.2.645-.4.952-.612 1.206.507 2.624.654 4.455.454.042 0 .084-.01.137-.01 6.899-.802 13.162-5.666 15.627-12.145.075-.19.265-.696-.02-1.15-.34-.549-.995-.517-1.217-.517-.138.01-.276.021-.424.021.593-.601 1.09-1.298 1.312-1.92.476-1.277.519-2.66.508-3.83-.01-1.456-.709-1.868-1.11-1.984-.35-.095-.667-.042-.974.042-.328.085-.667.2-.995.306l-.233-2.3c-.084-.78-.507-1.002-.761-1.065a1.19 1.19 0 00-.53.01 6.427 6.427 0 00-2.74 1.382l-.106-.78a1.064 1.064 0 00-.148-.454c-.296-.486-.867-.496-1.058-.507-2.084-.052-4.623.095-6.37 1.53l-.422-.918C75.3.85 75.1.407 74.645.164s-1.195-.338-2.19.601c-3.798 3.567-5.83 7.967-5.587 12.071.096 1.678.572 3.292 1.016 4.853.148.528.307 1.056.445 1.583.55 2.09.783 3.862.116 5.677 0 .01 0 .01-.01.02-.858 2.343-2.434 4.4-4.571 6.015.074-.697.053-1.467 0-2.195l-.011-.21c-.264-4.559-.709-8.959-3.206-12.504a.643.643 0 00-.54-.264.602.602 0 00-.507.306c-.868 1.488-.963 3.218-1.058 4.738-.138 2.258-.276 4.6.084 6.91.297 1.89.836 4.327 2.201 5.213-1.132.697-2.285 1.414-3.333 2.269-4.666 3.787-7.046 10.297-5.925 16.206a.63.63 0 00.688.507c.01 0 .032 0 .042-.011a.624.624 0 00.497-.728c-.782-4.104.276-8.536 2.688-11.975.804 1.677 4.285 2.12 5.354 2.215a9.627 9.627 0 002.063-.031c1.767-.212 3.438-.876 4.75-1.952a.626.626 0 00-.18-1.077l-3.396-1.213c-1.428-.507-2.899-1.045-4.486-1.14a8.055 8.055 0 00-1.164.043c1.037-.823 2.201-1.54 3.323-2.237.624-.38 1.237-.77 1.84-1.171 2.148-.802 4.455-1.551 6.857-1.878 2.349-.328 4.56-.17 6.475.422a2.561 2.561 0 00-.212.263c-2.761 3.83-3.407 9.117-1.618 13.485.55 1.36 1.407 2.11 2.39 2.11.075 0 .149 0 .223-.01 1.016-.117 1.81-1.035 2.222-2.596.412-1.53.656-3.05.73-4.527l3.184 4.21c.392.528.805 1.066 1.302 1.54.137.138.508.486 1.026.433h.021c.307-.031.53-.19.699-.348 1.301-1.108 2.02-2.86 1.925-4.569.995.106 1.968.117 2.91.011a10.843 10.843 0 002.75-.686.568.568 0 00.382-.738zM89.5 12.857H89.521C87.204 18.935 81.29 23.482 74.804 24.2c-1.238.137-2.243.095-3.11-.116.359-.296.708-.602 1.047-.918.656 0 1.312-.032 1.968-.106a17.528 17.528 0 008.242-3.218c1.407-1.023 2.782-2.353 4.338-4.189a43.513 43.513 0 002.211-2.796zm-.412.032h.01a48.138 48.138 0 01-2.042 2.564c-1.545 1.814-2.91 3.133-4.285 4.136a17.065 17.065 0 01-9.173 3.25c2.846-.887 5.946-2.997 8.422-4.822.677-.507 1.343-1.003 2-1.499 1.692-1.266 3.3-2.48 5.068-3.63zm-15.755 9.707a19.464 19.464 0 003.407-4.706h.01a20.42 20.42 0 013.26-2.3c.01-.01.02-.01.031-.01l.01-.011a20.88 20.88 0 018.412-2.638c-1.597 1.066-3.09 2.184-4.634 3.345-.656.495-1.323.991-2 1.498-2.497 1.846-5.64 3.978-8.496 4.822zM83.808 3.783a5.266 5.266 0 012.518-1.625l.254 2.522c-.92.306-1.799.517-2.645.348l-.17-1.213c.011-.01.032-.021.043-.032zm.465 6.964c.307-1.203.127-2.427-.031-3.514l-.127-.918c1.238.116 2.423-.295 3.576-.696.476-.169.941-.327 1.418-.454.063-.01.243-.063.317-.042.064.021.201.243.201.791.01 1.066-.032 2.3-.434 3.387-.349.95-1.65 2.237-2.634 2.638-1.111.19-2.212.475-3.28.834.455-.612.804-1.266.994-2.026zm-2.01-8.568l.74 5.234c.149 1.023.297 2.068.054 3.038-.424 1.7-1.979 2.891-3.682 4.073-.55.317-1.09.654-1.609 1.013.19-.538.37-1.087.508-1.646.095-.39.18-.76.244-1.118 1.195-1.456 1.766-3.387 2.158-5.15.106-.474.19-.928.275-1.382.286-1.487.54-2.774 1.312-4.062zm-1.608 3.989c-.085.443-.17.896-.275 1.371-.35 1.551-.826 3.229-1.757 4.58a10.22 10.22 0 00.085-2.026c-.085-1.266-.455-2.49-.9-3.651.18-.538.54-1.023.847-1.435.984-1.319 1.979-2.532 3.333-2.975-.804 1.35-1.058 2.7-1.333 4.136zm1.132-4.38c-1.386.486-2.391 1.71-3.386 3.04-.264.348-.56.749-.762 1.202-.254-.622-.529-1.213-.793-1.793l-.445-.97c1.323-1.299 3.492-1.5 5.386-1.478zm-13.67 10.995c-.222-3.735 1.672-7.776 5.195-11.089.317-.295.55-.412.666-.422.032 0 .064 0 .075.01.084.043.19.285.254.401l1.407 3.07c.793 1.742 1.618 3.535 1.746 5.424.063 1.002-.064 2.11-.392 3.398-1.058 4.114-3.597 7.776-7.047 10.234.223-1.55-.031-3.102-.486-4.832a45.954 45.954 0 00-.455-1.615c-.445-1.572-.878-3.049-.963-4.579zm-7.174 27.444c-1.915-.17-4.063-.792-4.37-1.54a.876.876 0 01-.063-.286 16.683 16.683 0 008.39 1.203l.244-.031a8.652 8.652 0 01-4.2.654zm-3.936-1.963l.487-.031c.857-.053 1.735-.106 2.56.01.815.116 1.63.295 2.424.454.93.19 1.893.39 2.856.517a16.247 16.247 0 01-8.327-.95zm1.577-.918c.328-.042.656-.052.92-.031 1.408.084 2.794.58 4.137 1.065l1.334.475a43.212 43.212 0 01-2.434-.454 35.698 35.698 0 00-2.444-.453c-.857-.127-1.756-.074-2.624-.021-.254.02-.497.02-.751.031.36-.316 1.142-.527 1.862-.612zm1.27-9.77c-.339-2.184-.201-4.453-.064-6.647.042-.697.095-1.446.222-2.174 0 .528-.02 1.076-.042 1.604-.032.728-.063 1.488-.021 2.184.106 2.11.317 4.231.614 6.32.169 1.203.444 2.395 1.195 3.187-.497-.116-1.344-.876-1.904-4.474zm2.497 4.294c-.075.042-.127.095-.18.148-.836-.718-1.122-1.952-1.302-3.197a69.505 69.505 0 01-.613-6.289c-.032-.685-.01-1.392.02-2.152.033-.855.064-1.73 0-2.553 1.747 3.112 2.106 6.89 2.328 10.825l.011.222c.053.664.159 2.374-.264 2.996zm29.815 5.35a13.07 13.07 0 00-1.618-.992 66.181 66.181 0 00-7.259-3.303 9.44 9.44 0 001.884-.464c.01 0 .01.01.02.01 2.815.644 5.333 2.396 6.973 4.749zm-8.633-8.452c.328-.116.666-.221.984-.338a24.269 24.269 0 006.877-3.777c-.106.887-.688 1.889-1.735 3.018-1.344 1.445-2.529 2.427-3.756 3.091-1.492.813-3.09 1.15-4.508.94-.465-.075-.92-.19-1.396-.328a14.409 14.409 0 00-.794-.21c0-.032 0-.064-.01-.085 1.058-1.203 2.73-1.762 4.338-2.31zm-4.804 15.405c-.106.4-.508 1.699-1.248 1.688-.625 0-1.069-.928-1.238-1.33-1.62-3.977-1.048-8.81 1.481-12.291.074-.095.138-.17.19-.222.35.675.635 1.393.858 2.131.031.264.116.56.243.876.656 2.785.571 5.93-.286 9.148zm7.343.707l-.053-.053c-.434-.411-.804-.907-1.174-1.393l-4.137-5.476c-.01-.01-.032-.02-.043-.031 0-.064-.01-.127-.01-.19.497.59 1.026 1.086 1.513 1.35 1.788.981 3.608 1.636 5.385 1.973.18 1.383-.36 2.838-1.481 3.82zm-4.475-7.966c.264.21.54.411.814.59.646.444 1.312.866 1.99 1.277-.54-.232-1.08-.496-1.62-.791-.36-.19-.782-.591-1.184-1.076zm4.454 2.49c-1.175-.676-2.349-1.383-3.46-2.153-.635-.432-1.28-.918-1.82-1.487a7.946 7.946 0 01-.56-1.056c-.043-.158-.085-.316-.127-.464.93.865 2 1.53 2.94 2.058a34.716 34.716 0 009.29 3.608c-1.925.37-4.073.19-6.263-.506zm6.983.348a34.455 34.455 0 01-9.85-3.714c-1.058-.601-2.286-1.382-3.28-2.416-.117-.37-.254-.739-.392-1.098.053.01.106.032.159.043.497.137 1.016.274 1.545.358.444.064.899.085 1.365.064a65.739 65.739 0 017.818 3.513c.858.454 1.736.96 2.36 1.657.264.474.508.96.698 1.466l-.423.127zM71.153 73.547H3.1v.475h68.053v-.475zM15.268 60.654a.747.747 0 00.582-.338c.148-.243.137-.506-.022-.717a.878.878 0 00-.888-.306c-.265.074-.424.295-.455.601-.011.084-.011.19.02.296a.617.617 0 00.149.232.658.658 0 00.2.147c-.01.021-.03.032-.03.064a14.84 14.84 0 01-.837 2.089.804.804 0 00-.793-.148.796.796 0 00-.54.76c-.01.358.201.707.53.918-.276.485-.561.96-.858 1.435a26.33 26.33 0 00-.36-1.52c-.476-1.973-.37-4.442.276-6.468.116-.369.253-.738.402-1.107.01.02.02.042.031.073.127.264.297.433.508.486.053.01.106.02.159.02a.787.787 0 00.476-.178.848.848 0 00.318-.802.638.638 0 00-.17-.349.686.686 0 00-.275-.147 1.527 1.527 0 00-.614-.032c.18-.37.37-.728.582-1.097h.043a.714.714 0 00.635-.4.813.813 0 00.052-.55.562.562 0 00-.063-.148c.18-.263.36-.538.56-.812.054.01.107.021.149.021.053 0 .106.01.148.01.243 0 .434-.063.571-.19a.578.578 0 00.17-.548.796.796 0 00-.455-.549.56.56 0 00-.487.032c-.296.158-.381.538-.402.644-.021.095-.053.263.042.4v.011c-.18.253-.36.507-.529.76-.148-.085-.349-.137-.645-.148-.096 0-.244 0-.381.074-.275.148-.402.527-.265.834.096.21.286.38.53.474-.244.422-.456.844-.646 1.256-.01 0-.021.01-.032.01a2.57 2.57 0 00-.338-.422c-.212-.21-.402-.327-.614-.348a.677.677 0 00-.709.486.658.658 0 00.381.77.859.859 0 00.476.042c.233-.032.455-.105.667-.169-.212.486-.392.97-.55 1.456-.477 1.477-.657 3.197-.55 4.801-.117-.295-.233-.601-.36-.897-.085-.21-.18-.411-.276-.622.265-.127.487-.401.572-.633a.96.96 0 00-.095-.897c-.096-.137-.212-.2-.339-.18-.127.01-.233.106-.307.264a2.754 2.754 0 00-.2.696c-.149-.305-.308-.611-.456-.917-.095-.2-.2-.401-.307-.602.19.021.413-.042.646-.221.211-.17.296-.465.211-.813-.063-.264-.18-.443-.36-.517-.317-.137-.666.095-.814.39-.042.096-.074.19-.106.285a21.694 21.694 0 01-.751-1.772c-.265-.75-.519-1.657-.593-2.627a.984.984 0 00.783.063.89.89 0 00.54-.675.679.679 0 00-.275-.665c-.233-.169-.593-.169-.847-.095a1.134 1.134 0 00-.2.074c.052-.56.169-1.119.39-1.667a.388.388 0 00.16.031.708.708 0 00.402-.137.556.556 0 00.2-.21c.106-.19.096-.38-.031-.528-.17-.2-.54-.264-.804-.159a.475.475 0 00-.296.486c.01.084.031.169.095.264.01.01.021.031.032.042-.625 1.466-.561 3.028-.276 4.378-.275-.147-.645.011-.825.17a.937.937 0 00-.285.495.541.541 0 00.169.549c.148.137.349.2.571.2.138 0 .286-.031.423-.084a.432.432 0 00.19-.127c.022-.02.043-.052.064-.074l.127.38c.201.549.423 1.087.677 1.615-.169-.159-.338-.306-.54-.38-.306-.106-.634-.064-.867.105-.275.19-.391.56-.275.855.085.2.265.359.53.475.221.095.454.147.655.147.095 0 .19-.01.286-.031.233-.053.444-.19.592-.38.148.295.286.58.434.865.201.401.413.813.614 1.235-.043-.022-.085-.032-.138-.053a1.411 1.411 0 00-.296-.106 2.692 2.692 0 00-.762-.095.983.983 0 00-.338.053c-.265.116-.381.38-.434.591-.053.211-.085.506.074.75a.823.823 0 00.688.347h.042c.233-.01.465-.105.709-.274.275-.2.508-.475.645-.791.095.21.19.411.275.622.37.844.667 1.72.92 2.606 0 .01 0 .021.011.043v.01c.72 2.617.91 5.36.561 8.061l.307.042c.275-2.089.222-4.188-.138-6.246l.011-.01c.35-.57.709-1.15 1.047-1.752.053.01.096.021.138.021h.063c.233-.032.413-.19.519-.464.116-.296.106-.654.01-.918.36-.739.688-1.498.932-2.29.01-.02.01-.042.01-.063.032 0 .064.01.095.01-.01.043 0 .043.022.043zM15.701 63.46c.085.064.19.106.307.127.053.01.106.01.159.01a.747.747 0 00.592-.263c.16-.2.16-.454.16-.676-.012-.327-.18-.548-.456-.611-.349-.085-.762.126-.93.453a.837.837 0 00-.096.496c.021.2.116.359.264.464zM5.862 50.894c-.053.19.01.4.169.517a.5.5 0 00.317.105c.074 0 .148-.01.222-.042.149-.074.254-.2.265-.348 0-.042 0-.095-.01-.137a.565.565 0 00-.52-.422c-.2-.01-.37.105-.443.327zM9.628 48.815c.085.032.18.053.254.053.032 0 .074 0 .106-.01a.443.443 0 00.328-.264c.053-.148.01-.285-.021-.38-.064-.211-.222-.327-.423-.317a.605.605 0 00-.519.486c-.01.095 0 .169.032.242a.494.494 0 00.243.19zM14.897 50.683a.556.556 0 00.35.116h.031a.712.712 0 00.54-.232.633.633 0 00.106-.633c-.149-.317-.582-.317-.826-.211a.608.608 0 00-.36.411.503.503 0 00.16.549z" fill="#fff"/><path d="M72.614 84.067H.942V10.61H54.5v-.95H0v75.356h73.555V49.322h-.941v34.745z" fill="#fff"/><path d="M14.96 21.804a2.63 2.63 0 00.487-1.561c0-.791-.275-1.488-.835-2.11-.561-.612-1.45-.918-2.677-.918H6.052v11.543h5.513c1.735 0 2.856-.338 3.385-1.013.53-.675.794-1.435.794-2.3 0-1.435-.751-2.332-2.243-2.691.645-.158 1.132-.475 1.46-.95zm-5.628-2.11h1.587c.794 0 1.185.317 1.185.96 0 .233-.085.465-.254.665-.17.211-.465.317-.878.317h-1.64v-1.942zm2.677 6.183c-.201.211-.519.317-.942.317H9.332v-2.1h1.608c.519 0 .878.116 1.069.338.19.221.296.464.296.728 0 .264-.095.506-.296.717zM17.214 17.215v11.553h8.126V25.93h-4.57v-8.715h-3.556zM31.466 17.046c-1.745 0-3.1.559-4.084 1.688-.984 1.129-1.47 2.553-1.47 4.273 0 1.804.518 3.25 1.544 4.326 1.027 1.076 2.35 1.615 3.979 1.615 1.618 0 2.94-.55 3.957-1.657 1.026-1.108 1.534-2.575 1.534-4.41 0-1.773-.508-3.187-1.524-4.242-1.016-1.066-2.328-1.593-3.936-1.593zm1.238 8.494c-.264.517-.698.78-1.29.78-1.122 0-1.683-1.076-1.683-3.218 0-2.29.582-3.44 1.746-3.44 1.079 0 1.619 1.003 1.619 3.008 0 1.392-.127 2.352-.392 2.87zM47.411 18.628c-1.016-1.055-2.328-1.593-3.936-1.593-1.746 0-3.1.56-4.084 1.689-.984 1.128-1.47 2.553-1.47 4.273 0 1.804.518 3.25 1.544 4.326 1.026 1.076 2.349 1.614 3.978 1.614 1.62 0 2.942-.549 3.957-1.657 1.027-1.107 1.535-2.574 1.535-4.41-.011-1.762-.519-3.176-1.524-4.242zm-2.698 6.912c-.265.517-.698.78-1.29.78-1.122 0-1.683-1.076-1.683-3.218 0-2.29.582-3.44 1.746-3.44 1.079 0 1.618 1.003 1.618 3.008 0 1.392-.137 2.352-.391 2.87zM12.77 40.554l-1.682-6.13H6.443v11.543H9.11v-8.262l2.222 8.262h2.253l2.148-8.262v8.262h3.301V34.424h-4.666l-1.597 6.13zM24.6 34.424h-3.556v11.543H24.6V34.424zM33.625 45.967h2.888V34.424h-2.888v3.418c0 1.034.095 2.047.275 3.028-.275-.633-.688-1.371-1.217-2.215l-2.698-4.231H26.63v11.543h2.888v-5.593c0-.517-.095-1.15-.275-1.899.413.94.826 1.73 1.228 2.385l3.153 5.107zM43.517 36.808c.89 0 1.418.602 1.587 1.804l3.45-.337c-.254-1.288-.794-2.28-1.64-2.976-.847-.696-1.958-1.044-3.333-1.044-1.841 0-3.227.59-4.148 1.762-.93 1.171-1.396 2.627-1.396 4.357 0 1.773.476 3.187 1.439 4.22.962 1.045 2.19 1.562 3.682 1.562 1.407 0 2.475-.464 3.184-1.382.17.327.328.728.466 1.214h1.735V39.52h-5.216v2.458h1.915c-.01.454-.159.802-.465 1.066-.307.264-.667.39-1.1.39-.53 0-.985-.21-1.355-.643-.37-.422-.561-1.309-.561-2.649 0-2.236.582-3.334 1.756-3.334zM20.452 58.195v9.739h3.037v-3.535h1.692c1.08 0 1.947-.284 2.593-.854.645-.57.973-1.32.973-2.248a2.94 2.94 0 00-.476-1.646 2.88 2.88 0 00-1.29-1.086c-.54-.243-1.334-.36-2.37-.36h-4.159v-.01zm5.322 3.145c0 .643-.444.97-1.323.97h-1.005v-1.878h1.1c.826-.01 1.228.296 1.228.908zM37.222 60.443v-2.248h-7.343v9.739h7.343v-2.332h-4.401V64.02h3.555v-2.162H32.82v-1.414h4.401zM37.56 60.527h2.021v7.407h2.836v-7.407h2.032v-2.332H37.56v2.332zM46.977 58.195l-3.015 9.739h2.433l.582-1.92h2.614l.55 1.92h3.058l-3.058-9.739h-3.164zm.519 5.698l.793-2.828.794 2.828h-1.587zM54.108 58.195v9.739h6.846v-2.395h-3.851v-7.344h-2.995zM65.567 65.792c-.963 0-1.566-.39-1.799-1.182l-2.782.496c.56 1.973 2.031 2.965 4.401 2.965 1.302 0 2.35-.306 3.153-.918.804-.612 1.206-1.414 1.206-2.395a2.74 2.74 0 00-1.724-2.595c-.487-.19-1.323-.412-2.487-.655-.423-.095-.709-.19-.857-.285a.477.477 0 01-.222-.422c0-.4.328-.601.984-.601.783 0 1.312.327 1.566.981l2.487-.749c-.635-1.593-1.958-2.384-3.936-2.384-1.313 0-2.318.306-3.016.918-.698.611-1.047 1.371-1.047 2.29 0 .717.243 1.329.73 1.856.486.528 1.587.96 3.3 1.287.445.095.763.19.932.306.17.116.264.275.264.486-.02.4-.391.601-1.153.601zM17.458 77.82v-.907h-2.74v3.777h1.131v-1.413h1.228v-.845h-1.228v-.612h1.609zM17.817 76.913v3.777h2.656v-.928h-1.492v-2.849h-1.164zM21.14 77.409c-.318.37-.476.834-.476 1.393 0 .59.169 1.055.507 1.414.339.358.773.527 1.302.527s.963-.18 1.29-.538c.34-.359.498-.844.498-1.435 0-.58-.17-1.044-.497-1.382-.328-.338-.762-.517-1.291-.517-.572-.01-1.016.169-1.333.538zm1.872 1.287c0 .454-.042.77-.127.94-.084.168-.222.252-.423.252-.37 0-.55-.348-.55-1.055 0-.749.19-1.118.571-1.118.35 0 .53.327.53.981zM27.975 78.601a1.27 1.27 0 00.137-.58c0-.338-.116-.602-.36-.802-.243-.2-.581-.306-1.015-.306h-1.979v3.777h1.164v-1.445h.37l.55 1.445h1.291l-.687-1.646c.254-.126.433-.274.529-.443zm-1.217-.253a.572.572 0 01-.35.095h-.497v-.718h.54c.296 0 .444.117.444.36 0 .115-.052.2-.137.263zM28.356 80.69h.941l.223-.738h1.015l.212.738h1.185l-1.185-3.777H29.52l-1.164 3.777zm1.671-2.659l.307 1.098h-.613l.306-1.098zM32.28 76.913v3.777h2.657v-.928h-1.492v-2.849H32.28zM38.227 76.913h-1.46v3.777h1.534c.54 0 .984-.179 1.323-.527.338-.348.508-.813.508-1.372 0-.496-.16-.928-.476-1.308-.318-.38-.794-.57-1.429-.57zm.487 2.627a.565.565 0 01-.487.275h-.307v-2.037h.307a.55.55 0 01.508.296c.116.2.18.432.18.707-.01.327-.074.58-.201.76zM43.465 77.789v-.876h-2.847v3.777h2.846v-.897h-1.713v-.622h1.386v-.834H41.75v-.548h1.714zM45.496 77.715c.127 0 .243.053.338.169.096.116.149.295.149.548l1.079-.063c-.032-.454-.19-.823-.455-1.097-.265-.275-.656-.412-1.153-.412-.54 0-.953.18-1.249.549-.296.359-.444.844-.444 1.435 0 .601.158 1.066.476 1.403.317.338.73.507 1.248.507.423 0 .783-.127 1.08-.37.296-.242.465-.601.518-1.065l-1.058-.064c-.032.412-.212.623-.518.623a.456.456 0 01-.403-.222c-.095-.147-.137-.422-.137-.833-.021-.739.159-1.108.529-1.108zM47.803 77.409c-.318.37-.477.834-.477 1.393 0 .59.17 1.055.508 1.414.339.358.773.527 1.302.527s.962-.18 1.29-.538c.339-.359.498-.844.498-1.435 0-.58-.17-1.044-.498-1.382-.328-.348-.761-.517-1.29-.517-.572-.01-1.016.169-1.334.538zm1.862 1.287c0 .454-.043.77-.127.94-.085.168-.222.252-.423.252-.37 0-.55-.348-.55-1.055 0-.749.19-1.118.57-1.118.36 0 .53.327.53.981zM54.627 78.601a1.27 1.27 0 00.137-.58c0-.338-.116-.602-.36-.802-.243-.2-.581-.306-1.015-.306H51.41v3.777h1.164v-1.445h.37l.55 1.445h1.291l-.687-1.646c.264-.126.444-.274.529-.443zm-1.206-.253a.572.572 0 01-.35.095h-.497v-.718h.54c.296 0 .444.117.444.36a.344.344 0 01-.137.263zM56.711 79.857c-.37 0-.603-.148-.698-.454l-1.08.19c.212.77.784 1.15 1.704 1.15.508 0 .91-.116 1.227-.359a1.12 1.12 0 00.466-.928 1.068 1.068 0 00-.667-1.013c-.19-.074-.507-.158-.962-.253a1.05 1.05 0 01-.328-.106.2.2 0 01-.085-.158c0-.158.127-.232.38-.232.308 0 .509.126.604.38l.963-.296c-.244-.612-.762-.928-1.524-.928-.508 0-.9.116-1.164.359a1.1 1.1 0 00-.402.886c0 .274.095.517.286.717.19.2.614.37 1.28.496.17.032.296.074.36.116a.221.221 0 01.106.19c-.032.169-.18.243-.466.243z" fill="#fff"/></svg>