<svg width="1440" height="490" fill="none" xmlns="http://www.w3.org/2000/svg"><path d="M185 469.92c-65.509 7.604-147.053 20.862-185 19.594V3.802c24.965-5.703 78.89 0 145.798 5.703 53.525 4.563 111.511 1.901 133.814 0 33.953-5.703 179.75-15.208 289.597 0 109.848 15.208 166.769 9.505 270.625 0C943.689 0 1049.54-4.753 1210.32 9.505 1338.94 20.911 1417.03 7.921 1440 0v489.514c-61-19.594-115.38-19.594-206.71-5.703-64.27 9.773-158.21-17.321-254.29-21.367-139.5-5.874-160 21.367-245 21.367-88 0-181.142-4.565-286-21.367-93-14.902-181.114-2.029-263 7.476z" fill="#F7EBE3"/></svg>