<svg width="76" height="76" viewBox="0 0 76 76" fill="none" xmlns="http://www.w3.org/2000/svg">
<path d="M40.368 12.5514C43.5254 10.2781 47.188 9.14139 51.3242 9.14139C53.5975 9.14139 56.0919 9.7413 58.8072 11.0043C61.5226 12.2356 63.6696 13.6881 65.2484 15.3615C68.5005 19.403 69.8582 24.1075 69.3846 29.4751C68.8794 34.8427 67.1112 39.042 64.0485 42.01L40.0838 65.9747C39.4839 66.5746 38.7261 66.8588 37.8421 66.8588C36.958 66.8588 36.2318 66.5746 35.6319 65.9747C35.3403 65.687 35.1112 65.3423 34.9591 64.9619C34.807 64.5816 34.735 64.174 34.7478 63.7645C34.7478 62.8805 35.032 62.1227 35.6319 61.5228L50.1244 47.0303C50.9137 46.3356 50.9137 45.6094 50.1244 44.8201C49.335 44.0307 48.6088 44.0307 47.9142 44.8201L33.4217 59.3126C33.1295 59.6069 32.7794 59.8375 32.3935 59.9896C32.0076 60.1418 31.5944 60.2123 31.1799 60.1967C30.2959 60.1967 29.5697 59.9125 28.9698 59.3126C28.6781 59.0249 28.4491 58.6801 28.297 58.2998C28.1448 57.9195 28.0729 57.5118 28.0857 57.1024C28.0857 56.2183 28.3698 55.4606 28.9698 54.8606L43.4622 40.3681C44.3147 39.5788 44.3147 38.7894 43.4622 38.0001C42.736 37.2107 42.0414 37.2107 41.2521 38.0001L26.7596 52.6505C26.464 52.9403 26.1133 53.1678 25.7283 53.3197C25.3432 53.4715 24.9316 53.5446 24.5178 53.5345C23.6337 53.5345 22.876 53.2504 22.2129 52.6505C21.5814 52.0505 21.2657 51.3243 21.2657 50.4403C21.2657 49.5562 21.613 48.7668 22.3076 48.0722L36.8317 33.5481C37.621 32.7588 37.621 32.0326 36.8317 31.338C36.0423 30.6433 35.2846 30.6433 34.5899 31.338L19.9396 45.8936C19.2449 46.5251 18.5187 46.8724 17.7294 46.8724C16.8453 46.8724 16.0875 46.5567 15.5192 45.8936C14.9193 45.2621 14.6035 44.5043 14.6035 43.6203C14.6035 42.7362 14.9193 42.01 15.5192 41.4101C25.1809 31.6853 31.1484 25.8125 33.4217 23.6339L44.6621 34.748C45.8934 35.9162 47.3143 36.5161 49.0509 36.5161C51.261 36.5161 52.9976 35.632 54.2922 33.8639C55.1762 32.5693 55.492 31.1485 55.2394 29.5698C54.9868 27.9911 54.3237 26.665 53.2502 25.5599L40.368 12.5514ZM46.8722 32.5378L33.4217 19.0556L11.0673 41.4101C8.41503 38.7263 6.89948 34.6217 6.55216 29.0331C6.20485 23.476 7.7204 18.6452 11.0673 14.6037C14.8246 10.878 19.3081 8.98352 24.5178 8.98352C29.7591 8.98352 34.211 10.878 37.8421 14.6037L51.3242 28.0858C51.9241 28.6857 52.2083 29.4119 52.2083 30.296C52.2083 31.1801 51.9241 31.9379 51.3242 32.5378C50.7243 33.1061 49.9981 33.4219 49.0509 33.4219C48.1984 33.4219 47.4722 33.1061 46.8722 32.5378Z" fill="#A9780B"/>
</svg>
