<svg xmlns="http://www.w3.org/2000/svg" xmlns:xlink="http://www.w3.org/1999/xlink" viewBox="0 0 368.59 558.79"><defs><style>.cls-1{fill:none;}.cls-2{clip-path:url(#clip-path);}.cls-3{fill:#fff;}.cls-4{fill:#dcc5f1;}.cls-5{fill:#99f;}.cls-6{fill:#5c6bf2;}.cls-7{fill:#b3b3ff;}.cls-8{fill:#132a8e;}.cls-9{fill:#0c1c74;}.cls-10{fill:#fcce38;}.cls-11{fill:#eab01f;}.cls-12{fill:#01327f;}.cls-13{fill:#ff8b66;}.cls-14{fill:#ef6e4b;}.cls-15{fill:#043ba8;}.cls-16{fill:#df2866;}.cls-17{fill:#164353;}.cls-18{fill:#8bbddb;}.cls-19{fill:#1a4850;}.cls-20{fill:#db614d;}.cls-21{fill:#6097b2;}.cls-22{fill:#3e6575;}.cls-23{fill:#0b42c7;}.cls-24{fill:#cdb3e8;}</style><clipPath id="clip-path" transform="translate(-20.07 -9.38)"><rect class="cls-1" width="846.77" height="460.28"/></clipPath></defs><g id="Layer_2" data-name="Layer 2"><g id="OBJECTS"><g class="cls-2"><circle class="cls-3" cx="224.52" cy="73.65" r="36.78"/><path class="cls-4" d="M260.46,63.77,256,61.08a98.88,98.88,0,0,1-7.55,11.52L253,76.14a2.72,2.72,0,0,1,.45,3.84A107,107,0,0,1,242,92.22a2.72,2.72,0,0,1-3.86-.21l-3.82-4.28a98.34,98.34,0,0,1-11,8.28l3,4.25c3.81,5.69,12.19,7,18,2.14a114.54,114.54,0,0,0,19.48-20.78C268.24,75.47,266.38,67.2,260.46,63.77Z" transform="translate(-20.07 -9.38)"/><path class="cls-4" d="M248.65,70.79a100.06,100.06,0,0,0,5.72-8.73,2.92,2.92,0,0,1,4-1h0a3.09,3.09,0,0,1,1.13,4.19,104.74,104.74,0,0,1-6,9.2,2.91,2.91,0,0,1-4.2.49h0A3.09,3.09,0,0,1,248.65,70.79Z" transform="translate(-20.07 -9.38)"/><path class="cls-4" d="M224.16,94.3A100.58,100.58,0,0,0,232.51,88a3.08,3.08,0,0,1,4.22.39h0a2.91,2.91,0,0,1-.22,4.22,104.08,104.08,0,0,1-8.79,6.62,3.09,3.09,0,0,1-4.25-.86h0A2.91,2.91,0,0,1,224.16,94.3Z" transform="translate(-20.07 -9.38)"/><circle class="cls-3" cx="200.9" cy="26.49" r="17.11" transform="translate(20.04 140.44) rotate(-45)"/><path class="cls-4" d="M213.48,25.83,210,35.24a2.57,2.57,0,0,1-3.33,1.51l-16.78-6.26a2.59,2.59,0,0,1-1.52-3.33l3.52-9.41a2.36,2.36,0,0,1,.51-.83,2.52,2.52,0,0,1,.85-.63,2.62,2.62,0,0,1,2-.06L212,22.49a2.68,2.68,0,0,1,1.46,1.34,2.81,2.81,0,0,1,.23,1A2.54,2.54,0,0,1,213.48,25.83Z" transform="translate(-20.07 -9.38)"/><path class="cls-3" d="M213.41,23.83l-11,2.14a2.26,2.26,0,0,1-2.21-.83l-6.94-8.85a2.52,2.52,0,0,0-.85.63l7,8.87A3.32,3.32,0,0,0,202.56,27l11.08-2.14A2.81,2.81,0,0,0,213.41,23.83Z" transform="translate(-20.07 -9.38)"/><circle class="cls-3" cx="161.31" cy="83.34" r="15.94" transform="matrix(0.92, -0.38, 0.38, 0.92, -39.68, 58.69)"/><rect class="cls-4" x="151.13" y="75.66" width="20.36" height="14.51" rx="4.37" transform="translate(302.55 156.45) rotate(180)"/><path class="cls-3" d="M165.3,82.81a.75.75,0,0,0,1.5,0,.75.75,0,0,0-1.5,0Z" transform="translate(-20.07 -9.38)"/><path class="cls-3" d="M160.56,82.81a.75.75,0,0,0,1.5,0,.75.75,0,0,0-1.5,0Z" transform="translate(-20.07 -9.38)"/><path class="cls-3" d="M155.82,82.81a.75.75,0,1,0,.75-.75A.75.75,0,0,0,155.82,82.81Z" transform="translate(-20.07 -9.38)"/><path class="cls-4" d="M162.71,89.61s-.86,4-5.87,4.73c0,0,2.43-.87,2.43-4.73Z" transform="translate(-20.07 -9.38)"/><circle class="cls-3" cx="115.59" cy="17.68" r="10.78"/><path class="cls-4" d="M139.67,21.9h0a5.67,5.67,0,0,0-8,0h0a5.69,5.69,0,0,0,0,8l4,4,4-4A5.67,5.67,0,0,0,139.67,21.9Zm-4,6.29A2.17,2.17,0,1,1,137.82,26,2.17,2.17,0,0,1,135.65,28.19Z" transform="translate(-20.07 -9.38)"/><polygon class="cls-3" points="195.98 95.56 185.98 110.22 201.31 100.89 195.98 95.56"/><path class="cls-5" d="M107.89,191.15c1.65-5.79,4.79-9,16.31-17.73s2.43-11.49-3.64-6.95-12.34,17.2-12.34,17.2-.85-14,7.14-23.17,8.45-19.49,1.69-18.17-11,19.16-11.46,27.29a55.83,55.83,0,0,1-4.09-23.69c.76-13-5.71-18.32-9.73-18-5.59.5-.2,7.49,3.27,17.59,3.1,9,5.1,18.63,6.29,21.92,0,0-10.33-20.95-21-23.09s-9.26,5.32-4.06,8.13S94.65,164,100.85,173c0,0-18-12.53-24.93-5S77.2,178,85,175.64A16.25,16.25,0,0,1,103.58,182a21.17,21.17,0,0,0-12.64-2.55c-7.06.63-9.65,6.63-7.61,8.68,2.42,2.43,6.71-.44,13.55-2.27s6.73,6.24,7.06,9.81S105.66,199,107.89,191.15Z" transform="translate(-20.07 -9.38)"/><path class="cls-6" d="M78.24,148.12c.26.11.66.26,1.15.5s1.08.51,1.73.9,1.38.81,2.15,1.31l1.19.83,1.24.92,1.28,1,1.29,1.11c.87.77,1.74,1.59,2.61,2.45s1.72,1.74,2.55,2.66a103.92,103.92,0,0,1,8.45,10.64c1,1.42,1.8,2.64,2.37,3.54l-.27-.93c-.15-.48-.31-1-.47-1.45l-.51-1.46a24.92,24.92,0,0,1-.89-3.06c-.25-1-.46-2.07-.65-3.11-.74-4.18-1.3-8.36-1.93-12.27-.32-1.95-.61-3.84-.93-5.63s-.65-3.46-1-5-.71-2.94-1.08-4.17a31.11,31.11,0,0,0-1.08-3.14c-.36-.85-.66-1.51-.9-1.94l-.37-.67s.15.22.41.64a17.14,17.14,0,0,1,1,1.91,30.32,30.32,0,0,1,1.23,3.1c.42,1.23.85,2.62,1.24,4.16.78,3.08,1.53,6.71,2.18,10.63s1.26,8.09,2,12.23c.19,1,.39,2.07.62,3.08a24.27,24.27,0,0,0,.84,3c.17.49.34,1,.5,1.47s.31,1,.47,1.48.28,1,.41,1.47.25,1,.37,1.46c.18.71.32,1.41.46,2.1.11-1,.27-2.29.51-3.83a88.69,88.69,0,0,1,2.79-12.36c.34-1.1.71-2.19,1.1-3.25.19-.54.4-1.06.6-1.58l.64-1.51.67-1.45c.23-.46.45-.92.68-1.36l.69-1.26.7-1.16c.47-.72.91-1.38,1.34-1.94s.81-1,1.13-1.42.6-.66.78-.86.28-.31.28-.31l-.27.31c-.18.2-.46.48-.78.87s-.72.86-1.11,1.43-.85,1.23-1.32,2c-.21.37-.44.76-.68,1.16s-.44.83-.68,1.26-.44.9-.66,1.37-.43,1-.65,1.45l-.62,1.52c-.19.52-.4,1-.58,1.57-.38,1.07-.74,2.16-1.06,3.26a88.08,88.08,0,0,0-2.65,12.35c-.35,2.49-.53,4.37-.59,5.22.12.71.23,1.42.32,2.11.24,1.81.35,3.53.41,5.12v.18l.2-.36c.18-.35.43-.76.7-1.24s.6-1,1-1.58.77-1.19,1.21-1.83.93-1.3,1.43-2,1-1.36,1.61-2.06l.87-1c.29-.35.59-.69.9-1,.62-.66,1.23-1.34,1.88-1.94l1-.93c.31-.3.65-.57,1-.85l1-.82c.31-.26.63-.49.94-.73.62-.47,1.19-.94,1.77-1.3l1.54-1,1.24-.69,1.09-.6-1.08.61-1.23.72-1.53,1c-.57.36-1.13.83-1.74,1.31-.3.24-.62.48-.93.75l-.93.83c-.31.28-.64.56-1,.86l-.93.93c-.65.62-1.24,1.3-1.84,2-.31.33-.6.68-.89,1l-.85,1c-.55.7-1.08,1.39-1.58,2.07s-1,1.35-1.39,2-.82,1.26-1.17,1.83-.66,1.12-.94,1.59-.51.89-.69,1.24c-.29.55-.47.92-.53,1.05,0,.69,0,1.35-.05,2a2.18,2.18,0,0,1,0,.24h0c0,.36,0,.72-.08,1.05s-.05.64-.08.94-.08.59-.11.86c-.08.56-.15,1.07-.24,1.52s-.17.86-.25,1.21l-.23.89-.19.73s0-.26.15-.74l.18-.9c0-.35.11-.76.18-1.22s.12-1,.17-1.51c0-.28,0-.57.08-.86s0-.61,0-.93,0-.67,0-1h0a2.32,2.32,0,0,0,0-.26c0-.18-.06-.43-.13-.76,0-.16-.09-.33-.14-.53l-.22-.61c-.1-.21-.19-.43-.31-.66s-.26-.47-.42-.7A7.68,7.68,0,0,0,104,185a8.11,8.11,0,0,0-1.7-1.17l-.48-.24a2.53,2.53,0,0,0-.51-.22c-.35-.12-.7-.25-1.06-.36l-1.12-.26c-.37-.09-.76-.1-1.14-.16a11.37,11.37,0,0,0-1.16-.11l-1.15,0c-.76,0-1.51,0-2.24.06l-.53,0-.53.07a10.16,10.16,0,0,0-1,.16,8.81,8.81,0,0,0-1,.22,7.21,7.21,0,0,0-.86.27,7.72,7.72,0,0,0-.77.31,6,6,0,0,0-.67.35,6.35,6.35,0,0,0-1,.71,3.12,3.12,0,0,0-.68.81,3.15,3.15,0,0,1,.67-.83,6.9,6.9,0,0,1,1-.72,4.67,4.67,0,0,1,.67-.36,5,5,0,0,1,.77-.33,7.23,7.23,0,0,1,.86-.29,8.8,8.8,0,0,1,1-.23c.33-.08.67-.13,1-.18l.53-.08.54,0c.73-.08,1.49-.08,2.26-.1l1.15,0a11.5,11.5,0,0,1,1.17.08c.39.06.78.07,1.16.15l1.14.24c.37.11.73.24,1.09.36a3.08,3.08,0,0,1,.53.21l.5.24a8.27,8.27,0,0,1,1.77,1.18,8.05,8.05,0,0,1,1.29,1.42,8.51,8.51,0,0,1,.45.73c.13.24.24.47.34.69s.12.32.18.47c0-.47,0-.95,0-1.46-.1-1.51-.25-3.14-.51-4.84-.14-.18-.36-.47-.67-.85a31.45,31.45,0,0,0-2.4-2.6c-.52-.52-1.11-1-1.75-1.6S99.8,175.6,99,175.07a26.75,26.75,0,0,0-2.37-1.53c-.42-.24-.84-.49-1.28-.7s-.87-.43-1.32-.63-.9-.38-1.35-.57-.92-.32-1.38-.47-.92-.28-1.37-.39-.92-.22-1.37-.3a23,23,0,0,0-2.63-.33l-1.22-.06H83.6c-.37,0-.72.05-1.06.06s-.65,0-.94.09c-.6.09-1.12.14-1.54.23l-1.32.27,1.32-.29c.42-.09.94-.15,1.53-.25.3-.05.62-.06,1-.1s.69-.07,1.06-.07l1.15,0,1.23,0a23.31,23.31,0,0,1,2.64.31c.46.06.91.18,1.38.28s.92.24,1.39.37.93.29,1.39.46.93.34,1.38.55.9.39,1.34.62.87.45,1.29.68c.85.48,1.66,1,2.42,1.52s1.46,1.08,2.12,1.61,1.26,1.07,1.79,1.59a31.15,31.15,0,0,1,2.69,2.87c-.27-1.6-.61-3.25-1-4.95,0-.2-.11-.4-.16-.61-.48-.8-1.53-2.5-3-4.68A105.07,105.07,0,0,0,93.28,160c-.82-.93-1.67-1.82-2.52-2.69s-1.72-1.69-2.57-2.47c-.44-.38-.87-.75-1.28-1.12l-1.26-1-1.23-.94-1.18-.83c-.77-.51-1.48-1-2.14-1.34s-1.24-.67-1.72-.92-.88-.39-1.14-.51l-.41-.18Z" transform="translate(-20.07 -9.38)"/><path class="cls-7" d="M274.05,336.73c-1-5.94.43-10.18,7-23s-2.77-11.42-6.28-4.7-3.69,20.84-3.69,20.84-6.82-12.25-3.59-24-.8-21.23-6.33-17.11-1.65,22,1.47,29.56a55.89,55.89,0,0,1-13.93-19.59c-4.92-12-13.08-14.06-16.55-12-4.82,2.86,3.07,6.84,10.56,14.44,6.71,6.82,12.65,14.6,15.15,17,0,0-18.37-14.42-28.94-11.72s-6,8.8-.14,9.09,21.57,2.42,31,7.83c0,0-21.7-3.49-24.64,6.28s5.46,8.41,11.49,2.95a16.25,16.25,0,0,1,19.49-2.32,21.08,21.08,0,0,0-12.5,3.17c-6.09,3.62-5.83,10.15-3.11,11.11,3.24,1.14,5.86-3.3,11.24-7.91s8.77,2.72,10.61,5.8S275.43,344.77,274.05,336.73Z" transform="translate(-20.07 -9.38)"/><path class="cls-5" d="M228.7,310.75c.29,0,.71,0,1.25,0s1.2,0,2,.06,1.6.14,2.52.26l1.42.22,1.52.3,1.59.37,1.65.45c1.12.32,2.26.68,3.41,1.08s2.31.83,3.45,1.29a106.56,106.56,0,0,1,12.23,5.94c1.5.86,2.75,1.61,3.66,2.17l-.65-.72-1-1.11-1.1-1.09a25.08,25.08,0,0,1-2.12-2.37c-.67-.83-1.31-1.67-1.94-2.53-2.47-3.44-4.79-7-7-10.23-1.13-1.62-2.21-3.2-3.27-4.67s-2.08-2.84-3.07-4.08-1.91-2.34-2.77-3.29A32.79,32.79,0,0,0,238,290.4c-.69-.62-1.25-1.07-1.65-1.37l-.62-.44.65.41a18.64,18.64,0,0,1,1.73,1.28,32.56,32.56,0,0,1,2.45,2.27c.91.92,1.9,2,2.91,3.21,2,2.44,4.28,5.39,6.56,8.64s4.64,6.75,7.13,10.15c.61.85,1.24,1.7,1.89,2.51a25.38,25.38,0,0,0,2,2.33l1.09,1.1,1.06,1.14,1,1.14,1,1.16c.46.56.89,1.13,1.31,1.69-.32-.93-.74-2.18-1.19-3.67a87.35,87.35,0,0,1-2.83-12.35c-.17-1.14-.31-2.28-.42-3.41-.06-.57-.09-1.13-.13-1.68s-.06-1.1-.09-1.64,0-1.07,0-1.59,0-1,0-1.53.05-1,.08-1.44.08-.91.12-1.34c.12-.85.22-1.64.37-2.33s.29-1.28.4-1.77.27-.86.34-1.12l.12-.39-.11.4c-.08.26-.21.63-.33,1.12s-.28,1.08-.38,1.77-.24,1.47-.34,2.33c0,.43-.07.88-.11,1.34s0,.94-.07,1.44,0,1,0,1.52,0,1,0,1.58.07,1.09.1,1.64.09,1.11.16,1.67c.12,1.13.27,2.27.45,3.4a87.77,87.77,0,0,0,3,12.28c.75,2.39,1.41,4.17,1.72,5,.42.59.82,1.18,1.2,1.76,1,1.53,1.84,3,2.59,4.45,0,.05.05.1.08.16,0-.13,0-.26,0-.41,0-.4.06-.88.1-1.43s.1-1.17.19-1.84.17-1.41.3-2.17.27-1.58.42-2.41.36-1.69.57-2.56c.11-.43.23-.86.34-1.3s.23-.87.37-1.3c.28-.86.53-1.73.85-2.56l.46-1.24c.16-.41.34-.8.5-1.19s.34-.77.5-1.15.36-.72.53-1.07c.36-.69.67-1.36,1-1.93s.66-1.11,1-1.58l.82-1.17.72-1-.71,1-.8,1.18-.93,1.59c-.36.58-.66,1.25-1,1.94-.17.35-.35.71-.52,1.08s-.31.76-.48,1.15-.33.78-.48,1.19-.29.82-.44,1.24c-.31.83-.55,1.7-.81,2.57-.13.43-.25.86-.35,1.3l-.33,1.3c-.19.86-.37,1.72-.52,2.55s-.3,1.63-.39,2.4-.2,1.49-.27,2.17-.11,1.28-.16,1.83-.07,1-.08,1.42c0,.62,0,1,0,1.17.3.63.57,1.23.82,1.81.09.14.13.22.13.22h0l.38,1,.33.87.27.83c.17.53.33,1,.44,1.47s.23.85.31,1.2.12.65.17.9l.14.74-.18-.73-.23-.89c-.1-.34-.23-.73-.36-1.17s-.31-.92-.5-1.44L273,338c-.11-.28-.24-.57-.36-.86l-.41-.93h0a1.91,1.91,0,0,0-.13-.23,7.23,7.23,0,0,0-.44-.62l-.36-.42-.46-.45-.57-.47c-.22-.14-.44-.31-.69-.45a7.59,7.59,0,0,0-1.68-.72,8.79,8.79,0,0,0-2-.32h-.54a2.56,2.56,0,0,0-.55,0c-.37,0-.74.07-1.11.13l-1.12.25c-.38.08-.73.24-1.1.35a11,11,0,0,0-1.09.4c-.35.16-.71.31-1.06.45-.69.34-1.37.65-2,1l-.47.26-.44.29a8.93,8.93,0,0,0-.84.59,9.58,9.58,0,0,0-.76.6,8,8,0,0,0-.66.62,6.27,6.27,0,0,0-.56.62,4.8,4.8,0,0,0-.46.6,6.2,6.2,0,0,0-.59,1.07,3.19,3.19,0,0,0-.27,1,3.53,3.53,0,0,1,.25-1,6.5,6.5,0,0,1,.58-1.08,4.76,4.76,0,0,1,.45-.61,6.36,6.36,0,0,1,.55-.63,6.71,6.71,0,0,1,.66-.64,8,8,0,0,1,.75-.62c.26-.21.54-.4.83-.6l.45-.3.46-.27c.63-.39,1.31-.72,2-1.07l1.06-.47a10.23,10.23,0,0,1,1.09-.42,11.11,11.11,0,0,1,1.11-.37l1.13-.28c.38-.07.77-.1,1.14-.15a2.69,2.69,0,0,1,.56,0h.56a8.4,8.4,0,0,1,2.11.3,8.17,8.17,0,0,1,1.78.72c.26.14.49.32.72.46s.41.33.61.48l.36.35c-.21-.42-.44-.85-.67-1.3-.74-1.31-1.58-2.72-2.56-4.14-.19-.11-.52-.27-1-.48A33.32,33.32,0,0,0,264,327.3c-.7-.24-1.46-.46-2.27-.68s-1.68-.41-2.58-.56-1.85-.28-2.81-.36c-.48,0-1-.07-1.45-.07s-1,0-1.46,0-1,.05-1.47.07l-1.44.17c-.48.08-1,.15-1.42.25s-.92.19-1.36.32c-.88.24-1.72.53-2.51.83l-1.13.48-1,.51c-.33.15-.63.35-.92.51s-.58.32-.82.49c-.49.33-.94.6-1.28.87l-1.08.81,1.07-.83c.33-.26.78-.54,1.27-.88.24-.18.53-.33.81-.5s.59-.37.92-.53l1-.52,1.12-.5a26.53,26.53,0,0,1,2.52-.86c.44-.14.9-.23,1.36-.35s.94-.18,1.42-.27l1.45-.18c.49,0,1-.1,1.48-.1s1,0,1.48,0,1,0,1.46.06a28.13,28.13,0,0,1,2.83.32c.92.14,1.79.34,2.62.53s1.59.43,2.3.66a30.25,30.25,0,0,1,3.66,1.43c-.93-1.32-2-2.67-3.06-4l-.41-.48c-.78-.51-2.47-1.59-4.76-2.92a106,106,0,0,0-12.13-6.05c-1.13-.47-2.29-.91-3.43-1.32s-2.28-.78-3.38-1.12l-1.64-.46-1.59-.39-1.51-.31-1.42-.24c-.92-.13-1.76-.24-2.51-.28s-1.41-.06-2-.08-1,0-1.25,0h-.44Z" transform="translate(-20.07 -9.38)"/><path class="cls-7" d="M292.59,363.75c-2.35.15-6.37-2.4-9.17-5.91a26.46,26.46,0,0,1,4.35-11.42c.44,4.72,2.18,8.1,9,11.57,4.69,2.4,7.65-1.91,3.05-5.27-5.52-4-7.9-9-5.31-13.47a31.87,31.87,0,0,1,9.12-4.85,42.82,42.82,0,0,0,4.22,11.34c3.26,6.14,8.37,2.86,4.64-2-1.91-2.48-1.75-7.32-1.15-11.47a59,59,0,0,1,8.66-1.23,54.26,54.26,0,0,0-.47,8.49c.26,7.1,8.18,5.49,5.83-.85-.67-1.81-.09-4.86.84-7.65,7.77.55,11.55,3,11.55,3a76.21,76.21,0,0,1-.08,8.87,9.12,9.12,0,0,1-4,2.69c-3.33.67-6.32-.05-5.7,2.64.5,2.19,4,3.13,8.77,1.71a43.39,43.39,0,0,1-2.16,7.54,13.33,13.33,0,0,1-4.36.66c-3.32-.24-5.87-2.82-7.66-1.53-1.59,1.15.1,5.43,9.19,6.47a28.38,28.38,0,0,1-7.15,7.72c-2.26-.79-4.28-1.71-5.13-2.66-2.42-2.69-2.19-5.38-4.57-4.27-2,.94-3,6,3.77,10.32a36.75,36.75,0,0,1-9.62,2.61c-1.73-1.58-3.08-3.42-3.26-5.41-.54-6.05-7.11-3.37-1.4,5.81h0c-9.17,4.31-9.45-4.42-9.45-4.42-7.51.74-9.64-2.38-11-7.12C295.12,372.17,296.28,363.51,292.59,363.75Z" transform="translate(-20.07 -9.38)"/><path class="cls-5" d="M286.77,355.38c0,.12.05.31.12.53a6.69,6.69,0,0,0,.29.8,2.27,2.27,0,0,0,.23.47,4.41,4.41,0,0,0,.3.5,6.73,6.73,0,0,0,.82,1c.16.17.32.34.5.5a6.57,6.57,0,0,0,.57.48,15.24,15.24,0,0,0,1.28.89c.45.27.92.53,1.41.77a28,28,0,0,0,5.57,2c1,.25,1.82.4,2.26.48.49-.64,1-1.28,1.61-1.92a29.56,29.56,0,0,1,3.51-3.21c.46-.35.93-.69,1.41-1-.39-.42-.9-1-1.5-1.72s-1.36-1.67-2.08-2.68a36,36,0,0,1-2.13-3.26c-.33-.57-.64-1.16-.92-1.75a14.7,14.7,0,0,1-.73-1.77l-.15-.44-.12-.44a8.71,8.71,0,0,1-.2-.85c-.06-.28-.07-.56-.11-.83s0-.53,0-.78,0-.48.07-.71.09-.43.14-.63.14-.36.2-.53a3.29,3.29,0,0,1,.22-.42,2.66,2.66,0,0,1,.38-.55l.14-.19-.14.19a3.06,3.06,0,0,0-.35.57,4.18,4.18,0,0,0-.2.42l-.18.53c0,.2-.07.41-.11.63s0,.45,0,.7,0,.49.05.76.07.53.14.8.13.55.22.83.09.28.14.43l.16.42a18.5,18.5,0,0,0,.78,1.71c.3.57.63,1.14,1,1.69.7,1.11,1.47,2.17,2.22,3.13s1.51,1.84,2.17,2.56,1.22,1.32,1.62,1.73h0c.7-.46,1.43-.91,2.17-1.34,1.49-.86,3-1.68,4.54-2.51s3-1.66,4.46-2.55c.18-.1.35-.21.52-.32-.09-.12-.18-.26-.28-.41s-.39-.58-.58-.93l-.32-.55-.31-.59c-.22-.4-.41-.86-.62-1.31s-.39-.94-.56-1.44a15.87,15.87,0,0,1-.46-1.53l-.19-.77c-.05-.27-.1-.53-.14-.79s-.1-.51-.12-.77l-.07-.76c0-.24,0-.49,0-.73v-.7c0-.23,0-.45,0-.67l.06-.62c0-.39.07-.76.12-1.07s.12-.6.17-.82c.09-.46.15-.71.15-.71s0,.26-.12.71c0,.23-.08.51-.13.83s0,.68-.06,1.07l0,.62,0,.66q0,.33,0,.69c0,.24.06.47.09.72s.07.49.1.74.11.5.16.75.11.5.17.76l.22.75c.14.5.35,1,.52,1.47s.41.93.62,1.38.43.86.66,1.24c.12.19.23.38.33.56l.33.51c.21.33.43.62.61.88l.32.42c1-.65,2-1.33,3-2,.64-.48,1.28-.95,1.88-1.44s1.2-1,1.77-1.43,1.09-1,1.62-1.43,1-.92,1.48-1.37l.69-.65.64-.65c.41-.41.82-.8,1.18-1.18.71-.78,1.36-1.43,1.87-2l1.61-1.77L333.93,338c-.46.61-1,1.32-1.71,2.15-.34.41-.72.83-1.1,1.28l-.61.69-.65.7c-.89,1-1.89,2-3,3-.55.51-1.12,1-1.73,1.54s-1.23,1-1.88,1.51c-1.31,1-2.68,2-4.15,2.89-.89.56-1.8,1.09-2.72,1.62.45.15,1.06.34,1.78.54s1.74.47,2.76.68l.78.16.8.13c.54.1,1.09.16,1.64.23s1.11.09,1.65.13,1.09,0,1.61,0,1-.05,1.5-.09l1.33-.19,1.11-.27a5.6,5.6,0,0,0,.83-.29l.72-.27-.7.31a6.62,6.62,0,0,1-.83.32l-1.1.32-1.34.26-1.51.16c-.53,0-1.07.05-1.63.05s-1.11,0-1.67-.06-1.13-.08-1.68-.16l-.82-.1-.79-.12c-1.05-.16-2-.37-2.84-.56-1.24-.29-2.16-.56-2.54-.68l-.84.47c-1.25.68-2.51,1.33-3.72,2a15,15,0,0,1,1.76.85A27.23,27.23,0,0,1,315.3,359q.7.51,1.41,1.08c.47.37,1,.77,1.41,1.17.93.81,1.82,1.65,2.67,2.42a13.82,13.82,0,0,0,2.47,1.88,4.42,4.42,0,0,0,2.1.56A4.15,4.15,0,0,0,326,366l.21,0-.21,0a3.68,3.68,0,0,1-.62.07,4.33,4.33,0,0,1-1-.07,5.11,5.11,0,0,1-1.19-.41,14.46,14.46,0,0,1-2.58-1.8c-.88-.74-1.8-1.54-2.75-2.3q-.72-.57-1.44-1.11c-.49-.35-1-.69-1.44-1a25.86,25.86,0,0,0-2.67-1.56,13.47,13.47,0,0,0-2-.83,2.93,2.93,0,0,0-.38-.11,40.65,40.65,0,0,0-4.05,2.59c-.51.37-1,.75-1.46,1.14l.11.06a4,4,0,0,1,.39.33,5.85,5.85,0,0,1,.67.9,41.12,41.12,0,0,1,2.32,5.16c.39.94.78,1.88,1.2,2.74.2.43.42.83.63,1.21a9.67,9.67,0,0,0,.67,1,5.53,5.53,0,0,0,.67.79,4,4,0,0,0,.63.49l.26.14.21.07.17.05-.17,0-.22-.07-.27-.12a3.74,3.74,0,0,1-.66-.47,5.31,5.31,0,0,1-.72-.76,10.54,10.54,0,0,1-.73-1c-.23-.37-.47-.77-.7-1.19-.46-.85-.91-1.77-1.35-2.7a40,40,0,0,0-2.52-4.94,5,5,0,0,0-.62-.75,1.21,1.21,0,0,0-.51-.32l-.1,0h0c-.48.42-.94.83-1.37,1.26s-1,1-1.45,1.57c-.23.26-.46.51-.67.77l-.62.77c-.28.34-.53.69-.77,1-.09.23-.2.51-.31.83a12.68,12.68,0,0,0-.72,3.44,7.21,7.21,0,0,0,.13,1.87,5.25,5.25,0,0,0,.54,1.54,4.54,4.54,0,0,0,.36.56c.11.16.23.29.31.4l.32.31-.33-.3c-.09-.11-.21-.23-.33-.39a3.1,3.1,0,0,1-.38-.55,5.44,5.44,0,0,1-.62-1.54,7.51,7.51,0,0,1-.2-1.91,12.89,12.89,0,0,1,.5-3.24l-.55.82c-.15.22-.29.43-.42.64l-.38.6-.65,1.07c-.77,1.31-1.2,2.06-1.2,2.06l.25-.57c.17-.37.4-.92.73-1.61s.73-1.52,1.27-2.43a33.94,33.94,0,0,1,1.88-3c.24-.35.5-.7.77-1.06-.47-.09-1.2-.25-2.07-.49a28.37,28.37,0,0,1-5.58-2.12c-.49-.25-1-.53-1.41-.81a13.85,13.85,0,0,1-1.27-.93,5.39,5.39,0,0,1-.56-.5,6,6,0,0,1-.5-.51,6.65,6.65,0,0,1-.8-1.05,4.29,4.29,0,0,1-.29-.5,2.89,2.89,0,0,1-.22-.48,5.63,5.63,0,0,1-.28-.81c-.06-.23-.07-.42-.1-.54l0-.19Z" transform="translate(-20.07 -9.38)"/><path class="cls-5" d="M223.69,248.74c-2.35.15-6.38-2.39-9.18-5.91a26.69,26.69,0,0,1,4.35-11.42c.44,4.73,2.19,8.1,9,11.58,4.69,2.39,7.65-1.91,3-5.28-5.51-4-7.9-9-5.3-13.47a31.66,31.66,0,0,1,9.11-4.84,43,43,0,0,0,4.23,11.34c3.26,6.13,8.37,2.86,4.64-2-1.91-2.48-1.76-7.32-1.16-11.47a59.19,59.19,0,0,1,8.67-1.24,52,52,0,0,0-.47,8.49c.26,7.11,8.18,5.5,5.83-.84-.67-1.81-.09-4.86.83-7.65,7.78.54,11.56,3,11.56,3a80.7,80.7,0,0,1-.08,8.86,9.15,9.15,0,0,1-4,2.7c-3.33.67-6.33,0-5.71,2.63.51,2.19,4,3.13,8.77,1.72a42.53,42.53,0,0,1-2.16,7.54,13.59,13.59,0,0,1-4.35.66c-3.32-.25-5.87-2.82-7.66-1.54-1.6,1.16.1,5.43,9.18,6.48a28.35,28.35,0,0,1-7.14,7.72c-2.26-.79-4.29-1.71-5.14-2.66-2.41-2.7-2.19-5.39-4.57-4.27-2,.94-3,6,3.78,10.32a37.31,37.31,0,0,1-9.63,2.61c-1.73-1.58-3.08-3.42-3.26-5.41-.54-6.05-7.11-3.37-1.4,5.8h0c-9.17,4.32-9.44-4.41-9.44-4.41-7.51.73-9.64-2.38-11-7.12C226.22,257.16,227.37,248.5,223.69,248.74Z" transform="translate(-20.07 -9.38)"/><path class="cls-6" d="M217.87,240.38c0,.12,0,.31.12.53a4.68,4.68,0,0,0,.29.8,2.9,2.9,0,0,0,.23.47,3.89,3.89,0,0,0,.3.5,7.17,7.17,0,0,0,.81,1c.16.17.33.34.51.5l.57.48a15,15,0,0,0,1.27.88c.46.28.93.54,1.41.77a28.77,28.77,0,0,0,5.58,2c1,.25,1.81.4,2.25.47.5-.63,1-1.27,1.61-1.91a28.78,28.78,0,0,1,3.52-3.21c.45-.36.93-.7,1.41-1-.39-.42-.91-1-1.5-1.73s-1.36-1.67-2.09-2.67A37.41,37.41,0,0,1,232,235c-.33-.57-.64-1.16-.92-1.75a18.89,18.89,0,0,1-.73-1.77l-.15-.44-.12-.44c-.09-.29-.13-.58-.19-.86s-.08-.56-.11-.82,0-.53,0-.78,0-.49.06-.71.09-.44.15-.63l.19-.53c.07-.16.16-.3.22-.43a4.45,4.45,0,0,1,.38-.55l.15-.18-.14.19a4,4,0,0,0-.36.56c-.06.13-.14.27-.2.43l-.17.53c0,.19-.08.4-.12.62s0,.46,0,.7,0,.5.06.76a6.26,6.26,0,0,0,.14.81,6.81,6.81,0,0,0,.22.83c0,.14.09.28.13.42s.11.28.17.43a16.19,16.19,0,0,0,.78,1.71c.3.57.63,1.14,1,1.69a36.24,36.24,0,0,0,2.23,3.13c.76,1,1.5,1.83,2.16,2.56s1.22,1.32,1.62,1.73h0c.7-.47,1.42-.92,2.16-1.34,1.49-.87,3-1.68,4.54-2.52s3-1.66,4.47-2.54l.51-.32c-.08-.13-.18-.26-.28-.41s-.38-.58-.58-.94l-.31-.54-.31-.59c-.23-.41-.41-.86-.63-1.31s-.39-1-.56-1.44-.34-1-.45-1.53l-.2-.78c0-.26-.09-.52-.14-.78s-.09-.51-.12-.77l-.06-.76a6.11,6.11,0,0,1-.05-.73v-1.37l.06-.62c.05-.39.07-.76.12-1.08s.13-.59.17-.82c.1-.45.15-.71.15-.71l-.11.72c0,.23-.08.51-.13.82s0,.69-.07,1.08l0,.61,0,.66,0,.7c0,.23.06.47.09.71s.06.5.1.75.1.49.15.75.12.5.17.75l.23.76c.14.5.34,1,.52,1.46s.41.94.61,1.38.43.86.67,1.24q.16.3.33.57l.33.51c.21.33.43.61.6.87l.33.43c1-.66,2-1.33,3-2,.65-.47,1.28-.95,1.89-1.43s1.2-1,1.76-1.44,1.1-1,1.62-1.42,1-.93,1.48-1.37l.69-.65.64-.65c.42-.42.82-.81,1.18-1.19.72-.77,1.37-1.42,1.88-2l1.61-1.76L265,223c-.46.6-1,1.32-1.72,2.15-.33.4-.71.82-1.1,1.28-.19.22-.4.45-.6.69s-.43.46-.66.69c-.89,1-1.88,2-3,3-.55.51-1.12,1-1.73,1.53s-1.23,1-1.88,1.52c-1.31,1-2.69,2-4.15,2.89-.89.56-1.8,1.09-2.72,1.61.45.15,1.05.34,1.77.55s1.75.47,2.77.67l.77.16.8.14c.54.1,1.09.15,1.65.22s1.1.09,1.65.14l1.6,0,1.5-.09,1.34-.19,1.1-.28a4.84,4.84,0,0,0,.84-.28l.72-.27-.71.3a5.63,5.63,0,0,1-.82.32l-1.1.33-1.34.26-1.51.16c-.53,0-1.08,0-1.63,0s-1.12,0-1.68-.06-1.12-.08-1.67-.15l-.82-.1-.8-.12c-1-.17-2-.37-2.83-.56-1.24-.29-2.17-.57-2.54-.68l-.85.47c-1.25.67-2.5,1.33-3.72,2a13.62,13.62,0,0,1,1.76.85,25,25,0,0,1,2.66,1.72c.47.33.94.7,1.42,1.08s.94.77,1.41,1.17c.92.8,1.81,1.65,2.66,2.41a12.94,12.94,0,0,0,2.47,1.88,4.31,4.31,0,0,0,2.1.56,4.44,4.44,0,0,0,.62,0l.22,0-.22,0a3.68,3.68,0,0,1-.61.07,3.86,3.86,0,0,1-1-.08,4.44,4.44,0,0,1-1.19-.41,13.32,13.32,0,0,1-2.58-1.8c-.88-.73-1.8-1.54-2.76-2.3-.47-.38-1-.75-1.44-1.1s-1-.69-1.44-1a26.88,26.88,0,0,0-2.67-1.57,12.64,12.64,0,0,0-2-.83l-.37-.11A42.71,42.71,0,0,0,237,244.5c-.5.37-1,.76-1.45,1.14l.11.07a2.3,2.3,0,0,1,.38.33,5.4,5.4,0,0,1,.67.9A40.42,40.42,0,0,1,239,252.1c.38.94.78,1.88,1.19,2.73.21.43.43.84.64,1.22s.44.72.66,1a6,6,0,0,0,.68.78,3.37,3.37,0,0,0,.62.49l.27.14a1.65,1.65,0,0,0,.2.07l.18.06-.18-.05-.21-.06-.27-.13a3,3,0,0,1-.66-.46,6,6,0,0,1-.73-.76c-.24-.3-.48-.64-.72-1s-.48-.78-.71-1.2c-.46-.84-.91-1.76-1.34-2.69a40.14,40.14,0,0,0-2.53-4.95,4.38,4.38,0,0,0-.61-.74,1.23,1.23,0,0,0-.52-.32l-.09,0h-.05c-.47.41-.93.83-1.36,1.26s-1,1-1.46,1.56c-.22.27-.46.52-.67.78l-.61.77c-.28.34-.53.68-.77,1-.09.23-.2.5-.32.83a12.71,12.71,0,0,0-.71,3.43,7.76,7.76,0,0,0,.12,1.88,5.56,5.56,0,0,0,.55,1.54,5.48,5.48,0,0,0,.35.56c.12.16.23.28.32.39l.31.32-.32-.3a5,5,0,0,1-.34-.39c-.12-.16-.25-.34-.38-.55a5.83,5.83,0,0,1-.62-1.55,8.39,8.39,0,0,1-.2-1.9,12.36,12.36,0,0,1,.51-3.24l-.55.82-.43.64c-.13.2-.25.41-.37.6l-.66,1.07-1.19,2.06.25-.57c.17-.37.4-.92.72-1.61s.73-1.52,1.27-2.44a35,35,0,0,1,1.89-3c.24-.35.49-.71.76-1.06-.47-.1-1.19-.26-2.07-.5a28.52,28.52,0,0,1-5.58-2.11c-.48-.25-.95-.53-1.4-.82a12.14,12.14,0,0,1-1.27-.92c-.2-.16-.39-.33-.57-.5s-.34-.34-.5-.51a8.12,8.12,0,0,1-.8-1,3.7,3.7,0,0,1-.29-.51,3.92,3.92,0,0,1-.22-.47,6.35,6.35,0,0,1-.27-.81,5.08,5.08,0,0,1-.1-.54l0-.2Z" transform="translate(-20.07 -9.38)"/><path class="cls-7" d="M95.86,209.79c2.35.15,6.38-2.39,9.18-5.9a26.68,26.68,0,0,0-4.35-11.43c-.44,4.73-2.19,8.11-9,11.58-4.69,2.39-7.65-1.91-3-5.28,5.51-4,7.89-9,5.3-13.46a31.5,31.5,0,0,0-9.12-4.85,43,43,0,0,1-4.22,11.34c-3.26,6.14-8.37,2.86-4.64-2,1.91-2.48,1.76-7.32,1.15-11.47a58.88,58.88,0,0,0-8.66-1.24,52.06,52.06,0,0,1,.47,8.49c-.26,7.11-8.18,5.5-5.83-.84.67-1.81.09-4.86-.84-7.65-7.77.55-11.55,3-11.55,3a78.49,78.49,0,0,0,.08,8.87,9.21,9.21,0,0,0,4,2.69c3.33.67,6.32-.05,5.7,2.63-.5,2.2-4,3.13-8.77,1.72a43.37,43.37,0,0,0,2.17,7.54,13.55,13.55,0,0,0,4.35.66c3.32-.25,5.87-2.82,7.66-1.53,1.6,1.15-.1,5.43-9.18,6.47a28.2,28.2,0,0,0,7.14,7.72c2.26-.79,4.28-1.71,5.14-2.66,2.41-2.69,2.18-5.39,4.57-4.27,2,.94,3,6-3.78,10.32a37.21,37.21,0,0,0,9.63,2.61c1.72-1.58,3.07-3.42,3.25-5.41.55-6.05,7.12-3.37,1.4,5.8h0c9.17,4.32,9.45-4.41,9.45-4.41,7.51.74,9.64-2.38,11-7.12C93.33,218.22,92.18,209.56,95.86,209.79Z" transform="translate(-20.07 -9.38)"/><path class="cls-5" d="M101.68,201.43c0,.12-.05.31-.12.53a4.39,4.39,0,0,1-.29.8,2.9,2.9,0,0,1-.23.47,4.41,4.41,0,0,1-.3.5,7.17,7.17,0,0,1-.81,1c-.16.17-.33.34-.51.5s-.37.32-.57.48a15.43,15.43,0,0,1-2.69,1.65,27.83,27.83,0,0,1-5.57,2c-1,.25-1.81.4-2.26.48-.49-.64-1-1.28-1.61-1.92a28.74,28.74,0,0,0-3.51-3.21c-.45-.35-.93-.69-1.41-1,.39-.42.9-1,1.5-1.72s1.36-1.67,2.09-2.68,1.46-2.11,2.13-3.26c.33-.57.64-1.16.92-1.75a18.89,18.89,0,0,0,.73-1.77l.14-.44.13-.44c.08-.29.13-.58.19-.86s.07-.56.11-.82,0-.53,0-.78,0-.49-.07-.71-.09-.43-.14-.63l-.19-.53a4,4,0,0,0-.23-.42,3.35,3.35,0,0,0-.37-.56l-.15-.18.14.19a3.28,3.28,0,0,1,.35.56c.06.13.15.27.21.43l.17.53c0,.2.07.41.11.62s0,.46,0,.7,0,.5,0,.76a8.09,8.09,0,0,1-.14.81,6.81,6.81,0,0,1-.22.83l-.14.42c0,.14-.1.29-.16.43a16.19,16.19,0,0,1-.78,1.71c-.3.57-.63,1.14-1,1.69a34.13,34.13,0,0,1-2.22,3.13c-.76,1-1.51,1.83-2.16,2.56s-1.23,1.32-1.63,1.73h0c-.7-.47-1.42-.91-2.17-1.34-1.49-.86-3-1.68-4.54-2.51s-3-1.66-4.46-2.55l-.52-.32.29-.41c.17-.28.38-.58.58-.93l.31-.55L71,194c.23-.41.41-.86.63-1.31s.39-.94.55-1.44.35-1,.46-1.53l.2-.78c0-.26.09-.52.13-.78s.1-.51.13-.77l.06-.76a6.11,6.11,0,0,0,0-.73v-1.37c0-.21,0-.42-.07-.62,0-.39-.06-.76-.12-1.08s-.12-.59-.17-.81l-.14-.72.11.72c0,.23.08.51.13.82s0,.69.07,1.08l0,.62,0,.65,0,.7c0,.23-.06.47-.09.72s-.06.49-.1.74-.1.5-.15.75-.12.5-.17.76l-.23.75c-.14.5-.34,1-.52,1.47s-.41.93-.61,1.37-.43.86-.67,1.25l-.33.56-.33.51c-.21.33-.43.61-.61.87l-.32.43c-1-.65-2-1.33-3-2q-1-.72-1.89-1.44c-.62-.47-1.2-1-1.76-1.44s-1.1-1-1.62-1.42-1-.93-1.48-1.37l-.69-.65-.64-.65-1.19-1.19c-.71-.77-1.36-1.42-1.87-2l-1.61-1.77,1.42,1.92c.46.61,1,1.32,1.71,2.15.34.41.72.83,1.11,1.28l.6.69.66.7c.88,1,1.88,2,3,3,.55.51,1.12,1,1.73,1.53s1.23,1,1.88,1.52c1.31,1,2.68,2,4.15,2.89.89.56,1.8,1.09,2.72,1.62-.45.15-1,.34-1.77.54s-1.75.47-2.77.68l-.78.15L66,201c-.53.1-1.09.16-1.64.22s-1.1.09-1.65.14l-1.61,0c-.52,0-1-.05-1.5-.09l-1.33-.19-1.11-.28a5,5,0,0,1-.83-.28l-.72-.27.71.3a5.56,5.56,0,0,0,.82.33l1.1.32,1.34.26,1.51.16,1.63.05c.55,0,1.12,0,1.68-.07s1.12-.07,1.67-.15l.82-.1.79-.12c1.05-.16,2-.37,2.84-.56,1.24-.29,2.17-.56,2.54-.68l.85.47c1.25.67,2.5,1.33,3.72,2a13.62,13.62,0,0,0-1.76.85A25,25,0,0,0,73.16,205c-.47.34-.94.7-1.42,1.08s-.95.77-1.41,1.17c-.93.81-1.82,1.65-2.66,2.41a13.17,13.17,0,0,1-2.48,1.89,4.42,4.42,0,0,1-2.1.56c-.26,0-.47,0-.61,0l-.22,0,.21,0a3.82,3.82,0,0,0,.62.07,4.33,4.33,0,0,0,1-.07,5.44,5.44,0,0,0,1.19-.41,13.4,13.4,0,0,0,2.58-1.81c.88-.73,1.8-1.54,2.75-2.3.48-.38,1-.75,1.44-1.1s1-.69,1.45-1a26.88,26.88,0,0,1,2.67-1.57,14.92,14.92,0,0,1,2-.83l.37-.1a42.65,42.65,0,0,1,4.06,2.58c.5.37,1,.76,1.45,1.14l-.11.07a2.37,2.37,0,0,0-.38.33,4.49,4.49,0,0,0-.67.9,40.42,40.42,0,0,0-2.33,5.16c-.38.94-.78,1.88-1.2,2.73-.2.43-.42.84-.63,1.22a11.55,11.55,0,0,1-.66,1,6.16,6.16,0,0,1-.68.79,3.4,3.4,0,0,1-.63.48l-.26.14-.21.08-.17,0,.18,0,.21-.06.27-.12a3.41,3.41,0,0,0,.66-.47,6,6,0,0,0,.73-.76c.24-.3.48-.64.72-1s.48-.77.71-1.2c.46-.84.9-1.76,1.34-2.69a39.94,39.94,0,0,1,2.53-4.94,4.11,4.11,0,0,1,.61-.75,1.17,1.17,0,0,1,.52-.32l.09,0h0c.48.41.94.83,1.37,1.26s1,1,1.46,1.57l.67.77.61.77c.28.34.53.68.77,1s.2.5.31.83a12.32,12.32,0,0,1,.72,3.44,7.71,7.71,0,0,1-.12,1.87,5.56,5.56,0,0,1-.55,1.54,6.21,6.21,0,0,1-.35.56l-.32.4-.31.31.32-.3c.09-.11.21-.23.34-.39a5.24,5.24,0,0,0,.37-.55,5.57,5.57,0,0,0,.62-1.54,7.51,7.51,0,0,0,.2-1.91,12.38,12.38,0,0,0-.5-3.24l.55.82.43.64.37.6.66,1.07,1.19,2.06-.25-.57c-.17-.37-.4-.92-.73-1.61s-.72-1.52-1.27-2.43a33.94,33.94,0,0,0-1.88-3c-.24-.35-.5-.7-.76-1.06.47-.1,1.19-.26,2.07-.5a28.52,28.52,0,0,0,5.58-2.11c.48-.25.95-.53,1.4-.81a13.85,13.85,0,0,0,1.27-.93,6.85,6.85,0,0,0,.56-.5,6.13,6.13,0,0,0,.51-.51,8.12,8.12,0,0,0,.8-1.05c.11-.16.2-.34.29-.5a4.9,4.9,0,0,0,.22-.48,7.64,7.64,0,0,0,.27-.81,5.08,5.08,0,0,0,.1-.54l0-.19Z" transform="translate(-20.07 -9.38)"/><path class="cls-5" d="M277.66,357.92s-6.35-9.19,1.93-24.35a36.13,36.13,0,0,1,25-18.16s-4.35,9.59-5.07,18.71C297.94,353.91,284.6,364.33,277.66,357.92Z" transform="translate(-20.07 -9.38)"/><path class="cls-6" d="M277.65,355.91c0-.44.06-.94.11-1.5h0l-.08-.23a14,14,0,0,1-.49-1.51c-.13-.51-.25-1-.33-1.54s-.15-1-.19-1.55a13.55,13.55,0,0,1,0-1.56c.23,1,.48,2,.77,3,.14.49.29,1,.46,1.46,0,.11.08.22.12.33.09-.67.2-1.38.36-2.14.1-.54.24-1.1.36-1.68s.29-1.17.48-1.77c.27-1,.61-2,1-3.08l-.05-.12c-.07-.16-.1-.33-.16-.49a9.07,9.07,0,0,1-.24-1l-.09-.51c0-.17,0-.34-.07-.5,0-.34-.06-.68-.08-1a16.85,16.85,0,0,1,0-2c0-.34,0-.67.08-1s.08-.66.13-1a35,35,0,0,0,.29,4c.05.32.1.65.16,1,0,.16.06.32.1.48l.11.47c.08.24.14.48.22.72.46-1.17.95-2.37,1.54-3.54s1.34-2.59,2.07-3.86c.36-.59.74-1.18,1.11-1.77v-.05c0-.19,0-.38,0-.57s.05-.38.07-.57a5.43,5.43,0,0,1,.09-.56A20.32,20.32,0,0,1,286,330c.21-.71.44-1.42.71-2.11s.54-1.38.85-2.05c-.19.72-.36,1.43-.54,2.15s-.35,1.43-.49,2.15-.28,1.43-.37,2.15c0,.14,0,.27,0,.41l.45-.66c.42-.58.84-1.16,1.28-1.72l1.31-1.63,1.33-1.53c.44-.49.89-.95,1.32-1.41s.87-.88,1.3-1.3.82-.81,1.24-1.17c.81-.73,1.56-1.4,2.26-1.95s1.28-1.06,1.8-1.43l1.62-1.18-1.46,1.37c-.47.42-1,1-1.65,1.59s-1.32,1.33-2.08,2.11c-.38.38-.75.81-1.14,1.24s-.81.86-1.21,1.34-.82.95-1.23,1.45L290,329.36c-.4.54-.82,1.08-1.24,1.64l-1.22,1.71c-.18.27-.36.55-.55.82l1.83-.69q.82-.31,1.62-.66c.54-.22,1.08-.44,1.61-.68s1.06-.47,1.59-.72l.78-.38.78-.4c.26-.14.52-.27.76-.42s.51-.29.75-.45l.73-.48.69-.54-.59.65-.67.59c-.22.19-.47.36-.7.54s-.49.34-.73.51c-.49.34-1,.63-1.52.92l-.78.43c-.25.14-.52.27-.79.4-.52.27-1.06.51-1.6.76l-1.63.68c-.94.39-1.89.72-2.86,1.05l-1,1.68c-.73,1.24-1.44,2.49-2.06,3.76s-1.22,2.53-1.75,3.77l-.09.22.28,0c.3,0,.6,0,.9,0s.6,0,.91,0l.91-.1.9-.15.9-.2c.3-.07.59-.17.89-.24s.59-.17.88-.27.59-.19.88-.3l.86-.34a8.19,8.19,0,0,0,.86-.36l.86-.37c.28-.12.56-.27.84-.41l.84-.4c.55-.3,1.11-.59,1.67-.88-.5.38-1,.75-1.52,1.12s-1.06.68-1.61,1-1.1.63-1.68.88l-.87.4c-.29.13-.59.23-.89.35s-.59.22-.9.31-.61.2-.92.28l-.93.22-.95.17-1,.1c-.32,0-.64,0-1,0a7.87,7.87,0,0,1-1,0l-.51-.07c-.36.91-.7,1.8-1,2.67-.4,1.17-.74,2.29-1,3.34s-.5,2-.68,2.8l.95,0,1.25-.09c.42,0,.84-.06,1.26-.11l1.25-.13,1.26-.16.62-.1.63-.09.62-.11.62-.13c.42-.07.83-.18,1.25-.26a12.31,12.31,0,0,1-1.17.53c-.4.16-.81.3-1.22.42s-.82.25-1.24.34-.84.2-1.26.27l-.63.11-.64.09c-.42.06-.85.1-1.28.14s-.85.07-1.28.09l-1.15,0c-.11.57-.19,1.08-.26,1.53-.09.62-.16,1.12-.19,1.46s0,.52,0,.52A18.46,18.46,0,0,1,277.65,355.91Z" transform="translate(-20.07 -9.38)"/><path class="cls-5" d="M191.4,220.16s-8.14-7.65-3.22-24.21a36.15,36.15,0,0,1,20.61-23s-2.24,10.29-1,19.36C210.39,212,199.53,225,191.4,220.16Z" transform="translate(-20.07 -9.38)"/><path class="cls-6" d="M191,218.2c-.07-.43-.14-.94-.21-1.49h0l-.13-.21a15.76,15.76,0,0,1-.8-1.37c-.23-.47-.45-.95-.64-1.43s-.36-1-.51-1.48-.28-1-.38-1.51q.66,1.41,1.38,2.76c.24.45.49.89.76,1.32a3.21,3.21,0,0,0,.19.31c-.05-.68-.09-1.4-.1-2.18,0-.55,0-1.12,0-1.71s0-1.21.09-1.84c.06-1,.18-2.11.33-3.21l-.07-.11a4,4,0,0,1-.26-.45,8.82,8.82,0,0,1-.45-.93l-.19-.47c-.07-.16-.12-.32-.18-.48-.11-.32-.2-.65-.29-1a16.59,16.59,0,0,1-.42-2c-.06-.33-.1-.66-.14-1s-.06-.67-.08-1a32.31,32.31,0,0,0,1.12,3.82c.12.31.23.62.36.92l.2.45.21.44c.12.22.23.44.36.65.21-1.24.43-2.51.76-3.78s.77-2.81,1.22-4.2c.22-.66.47-1.32.71-2v0c0-.19-.06-.38-.08-.57s0-.38-.06-.57l0-.56c0-.75,0-1.5.06-2.24s.13-1.48.25-2.21.24-1.47.4-2.19c0,.74-.06,1.48-.08,2.21s0,1.47,0,2.21,0,1.46.09,2.18c0,.14,0,.27,0,.41l.3-.74c.3-.66.58-1.32.89-1.95l.94-1.87,1-1.77c.33-.58.67-1.12,1-1.66s.66-1,1-1.54.64-1,1-1.41c.64-.89,1.23-1.7,1.8-2.38s1-1.3,1.46-1.78l1.34-1.49-1.14,1.64c-.38.51-.79,1.17-1.28,1.9s-1,1.59-1.59,2.5c-.3.46-.57,1-.86,1.46s-.61,1-.9,1.56l-.9,1.68c-.3.58-.6,1.18-.9,1.78s-.58,1.23-.87,1.86-.55,1.28-.83,1.93c-.12.31-.25.62-.37.92L197,193.3l1.44-1c.48-.33,1-.66,1.43-1s.94-.68,1.41-1l.68-.54c.23-.17.45-.36.67-.55s.45-.37.66-.57.44-.39.64-.59l.61-.63.57-.67-.45.76-.53.72c-.18.23-.38.45-.57.68s-.4.43-.61.64c-.41.43-.85.83-1.29,1.23l-.67.57c-.22.2-.46.38-.69.56-.46.37-.93.72-1.4,1.08l-1.45,1c-.84.57-1.71,1.11-2.58,1.63-.22.62-.45,1.24-.65,1.86-.46,1.36-.89,2.73-1.23,4.11s-.66,2.72-.92,4.05l0,.23.28,0c.29,0,.59-.09.88-.16s.59-.16.88-.24l.87-.29.85-.33.84-.39c.28-.13.54-.28.82-.42s.54-.29.8-.45.54-.31.8-.48l.77-.51a8.09,8.09,0,0,0,.77-.53l.76-.54c.25-.18.48-.39.73-.58l.74-.57,1.45-1.21c-.41.48-.83.95-1.26,1.42s-.89.89-1.36,1.32-.94.84-1.46,1.21l-.76.57-.79.52c-.27.18-.54.35-.82.5s-.55.32-.84.46l-.87.42-.89.36c-.3.11-.61.21-.92.3s-.62.18-.94.24a9.61,9.61,0,0,1-1,.16l-.5,0c-.17,1-.32,1.91-.42,2.82-.14,1.23-.24,2.39-.3,3.47s-.07,2-.07,2.89l.92-.24,1.21-.35,1.2-.37,1.2-.4c.4-.14.8-.27,1.19-.42a42.68,42.68,0,0,0,1.18-.45l.59-.23.58-.25c.4-.16.77-.36,1.17-.53a12.53,12.53,0,0,1-1,.77c-.36.24-.73.46-1.1.67s-.76.41-1.15.59-.77.37-1.17.53l-.6.24-.6.22c-.41.15-.82.28-1.22.41s-.83.24-1.24.35l-1.12.27c0,.57,0,1.09.06,1.54,0,.63.09,1.13.12,1.47s.07.52.07.52A18.81,18.81,0,0,1,191,218.2Z" transform="translate(-20.07 -9.38)"/><path class="cls-7" d="M243.86,258.1s3.57-10.58,20.67-13a36.17,36.17,0,0,1,29.5,9.18s-10.29,2.24-18,7.11C259.2,272,242.86,267.5,243.86,258.1Z" transform="translate(-20.07 -9.38)"/><path class="cls-5" d="M245.46,256.9c.37-.25.79-.53,1.27-.82h0l.14-.21a14.91,14.91,0,0,1,.91-1.29c.34-.41.68-.81,1-1.18s.74-.74,1.13-1.08a12.66,12.66,0,0,1,1.22-1c-.67.79-1.32,1.58-1.94,2.4-.31.4-.61.82-.89,1.24-.07.09-.13.19-.2.29.59-.32,1.24-.66,1.94-1,.49-.24,1-.46,1.56-.71s1.11-.47,1.7-.68c1-.37,2-.71,3.06-1l.07-.11c.09-.15.2-.28.3-.42s.44-.54.66-.8l.35-.37.37-.36c.24-.24.5-.45.76-.67a18.82,18.82,0,0,1,1.62-1.2c.27-.19.56-.37.85-.54s.58-.33.88-.49a32.74,32.74,0,0,0-3,2.61c-.23.23-.47.46-.68.71s-.23.23-.33.36l-.31.38c-.15.2-.31.39-.45.59,1.21-.32,2.46-.64,3.76-.87s2.87-.48,4.33-.65l2.08-.17,0,0,.49-.31.49-.28c.16-.1.33-.18.5-.27a22,22,0,0,1,2.06-.88c.7-.25,1.4-.49,2.12-.69s1.43-.39,2.15-.54c-.69.27-1.37.56-2.05.84s-1.35.58-2,.9-1.32.63-1.94,1l-.36.21.8,0h2.14l2.1.08,2,.15c.66.06,1.3.15,1.92.22s1.23.17,1.82.26,1.14.18,1.68.3c1.08.22,2.06.41,2.92.64s1.61.4,2.22.6l1.91.59-2-.35c-.62-.13-1.38-.23-2.25-.37s-1.86-.26-2.94-.41c-.53-.08-1.1-.12-1.68-.18s-1.18-.13-1.8-.16-1.25-.1-1.9-.13l-2-.08h-2.05l-2.11,0-1,.05,1.66,1.06c.49.31,1,.61,1.49.91s1,.6,1.51.88,1,.57,1.52.84l.78.4c.26.14.52.26.78.38s.53.26.8.36.53.24.8.34l.83.29.84.24-.88-.09-.87-.18c-.29-.07-.57-.16-.85-.24s-.57-.19-.85-.29c-.56-.19-1.1-.42-1.64-.66l-.81-.37c-.27-.12-.53-.26-.79-.39-.53-.27-1-.55-1.56-.84s-1-.59-1.53-.89c-.87-.53-1.71-1.09-2.55-1.67-.66.06-1.31.11-2,.18-1.43.15-2.86.33-4.25.59s-2.75.53-4.07.85l-.23.06.15.24a9,9,0,0,0,.52.74c.17.24.38.47.57.7l.63.67.66.63.7.6c.23.2.48.38.72.57s.49.38.74.55.51.36.77.52l.78.5c.26.17.53.32.8.47l.81.47.83.42.83.44c.57.26,1.14.53,1.7.81-.6-.17-1.2-.36-1.81-.55s-1.18-.44-1.76-.69-1.16-.51-1.71-.82l-.84-.46-.81-.5c-.27-.17-.53-.35-.79-.54s-.52-.37-.76-.57l-.74-.62-.7-.66c-.23-.23-.45-.46-.66-.7s-.42-.5-.6-.76a8.87,8.87,0,0,1-.55-.81l-.25-.44c-.94.25-1.86.51-2.73.8-1.18.38-2.28.77-3.29,1.17s-1.87.77-2.65,1.13c.19.25.39.5.6.74l.82.95c.27.32.55.63.84.94s.56.62.85.93.58.61.88.91l.45.44.45.44.46.44c.15.15.31.28.47.42.31.3.64.56,1,.85a12.33,12.33,0,0,1-1.12-.63,12.51,12.51,0,0,1-1.07-.72c-.35-.25-.69-.51-1-.79s-.65-.55-1-.85l-.47-.44c-.15-.15-.31-.3-.45-.46-.3-.31-.59-.62-.88-.94s-.57-.65-.84-1-.47-.59-.7-.9c-.52.25-1,.48-1.38.7l-1.29.71-.44.28A19.09,19.09,0,0,1,245.46,256.9Z" transform="translate(-20.07 -9.38)"/><path class="cls-8" d="M168.29,409.54v20a86.28,86.28,0,0,1-85.4-73.94l-6.35-44-6.51-45,29.58-1,9.27,56.68,7,42.73a53.1,53.1,0,0,0,52.42,44.55Z" transform="translate(-20.07 -9.38)"/><path class="cls-9" d="M108.88,322.26a85.85,85.85,0,0,1-32.34-10.65l-6.51-45,29.58-1Z" transform="translate(-20.07 -9.38)"/><path class="cls-8" d="M115.59,286.6h-38a37.63,37.63,0,0,1-9.83-1.31h0c-15.31-4.11-27.86-17.37-29.91-33.1l-.68-5.13c-2.48-19,11.31-34.42,30.8-34.42h38a38.58,38.58,0,0,1,14.38,2.82h0c13.2,5.29,23.54,17.45,25.39,31.6l.67,5.13C148.86,271.19,135.08,286.6,115.59,286.6Z" transform="translate(-20.07 -9.38)"/><path class="cls-9" d="M115.59,286.6h-38a37.63,37.63,0,0,1-9.83-1.31h0c-13.19-5.3-23.52-17.45-25.37-31.59l-.67-5.13c-2.48-19,11.31-34.42,30.8-34.42h38a37.63,37.63,0,0,1,9.83,1.31h0c13.2,5.29,23.54,17.45,25.39,31.6l.67,5.13C148.86,271.19,135.08,286.6,115.59,286.6Z" transform="translate(-20.07 -9.38)"/><path class="cls-10" d="M117.44,279.76H83.7a36.36,36.36,0,0,1-35.29-30.53l-.6-4.56c-2.2-16.86,10-30.53,27.32-30.53h33.74a36.25,36.25,0,0,1,26,11.57,34.2,34.2,0,0,1,9.25,19l.6,4.56C147,266.09,134.73,279.76,117.44,279.76Z" transform="translate(-20.07 -9.38)"/><path class="cls-11" d="M117.44,279.76H83.7A35.5,35.5,0,0,1,63,272.85a34.12,34.12,0,0,1-9.23-18.93l-.59-4.56c-2.2-16.86,10-30.53,27.31-30.53h33.75a35.54,35.54,0,0,1,20.7,6.88,34.2,34.2,0,0,1,9.25,19l.6,4.56C147,266.09,134.73,279.76,117.44,279.76Z" transform="translate(-20.07 -9.38)"/><path class="cls-11" d="M104.31,388h147.5a0,0,0,0,1,0,0v16.47a10.59,10.59,0,0,1-10.59,10.59H114.9a10.59,10.59,0,0,1-10.59-10.59V388A0,0,0,0,1,104.31,388Z" transform="translate(336.05 793.68) rotate(180)"/><rect class="cls-9" x="97.69" y="409.84" width="160.74" height="20.51" rx="4.75" transform="translate(336.05 830.8) rotate(180)"/><path class="cls-9" d="M171.88,423.3h12.35a4.22,4.22,0,0,1,4.22,4.22v54a0,0,0,0,1,0,0h-20.8a0,0,0,0,1,0,0v-54A4.22,4.22,0,0,1,171.88,423.3Z" transform="translate(336.05 895.44) rotate(180)"/><rect class="cls-9" x="171.65" y="475.06" width="12.82" height="55.88" transform="translate(336.05 996.6) rotate(180)"/><path class="cls-9" d="M108.89,556.22c18.61-29.83,62.47-30.65,69.17-30.6s50.56.77,69.17,30.6h-9.76S214.92,538,178.06,537.7c-36.86.29-59.41,18.52-59.41,18.52Z" transform="translate(-20.07 -9.38)"/><path class="cls-9" d="M235,560.32a7.86,7.86,0,1,1,7.85,7.85A7.85,7.85,0,0,1,235,560.32Z" transform="translate(-20.07 -9.38)"/><circle class="cls-9" cx="113.32" cy="560.32" r="7.86" transform="translate(-478.11 532.49) rotate(-76.72)"/><polygon class="cls-9" points="153.94 547.02 162.05 547.02 164.4 516.24 151.58 516.24 153.94 547.02"/><rect class="cls-9" x="173.56" y="552.46" width="9" height="15.71" rx="2.47" transform="translate(336.05 1111.25) rotate(180)"/><path class="cls-12" d="M228.71,212.61c-2.66-6.33-19.34-10.4-19.42-6.37s12.93,24,12.93,24Z" transform="translate(-20.07 -9.38)"/><path class="cls-13" d="M230.88,241.94c.2-13.73-9.75-48.46-18-62.91l-7.45,3.26s7.29,39,5.88,52.1,2.56,22.12,11.38,24.3S230.83,244.83,230.88,241.94Z" transform="translate(-20.07 -9.38)"/><path class="cls-13" d="M199.88,162c5.08,8.95-1.31,14.88,5.55,20.26,4.25,3.34,8.63-1.08,8.63-1.08,1.33-5.66,5.66-13.7,8-17.28s.21-3.17.21-3.17c.25-.31.5-.59.75-.88,1.87-2.19,3.58-3.52,1.33-3.71-2.54-.23-8.15,5.73-8.15,5.73,5.95-10.44,9.1-10.21,6.83-10.66-3.09-.61-9.59,7.65-9.79,7.89,2.48-6.84,5.4-9.57,3.19-9.3s-8.19,11.74-10.32,16c-.49,1-.77,1.56-.77,1.56C201.72,159.82,199.88,162,199.88,162Z" transform="translate(-20.07 -9.38)"/><path class="cls-14" d="M206.15,165.82c-.49,1-.77,1.56-.77,1.56A7,7,0,0,1,208,173.8,6.23,6.23,0,0,0,206.15,165.82Z" transform="translate(-20.07 -9.38)"/><path class="cls-14" d="M216.63,167.15c.58-.83,3.81-5.64,5.68-6.39.25-.31.5-.59.75-.88C221.05,158.9,217.2,166.05,216.63,167.15Z" transform="translate(-20.07 -9.38)"/><path class="cls-15" d="M177,200.16c14.94,4.47,31.76,32.43,31.76,32.43l.55-26.35s9.76,10.7,19.42,6.37c0,0,10.62,39.95,2.48,51.89s-49.14-15.34-49.14-15.34Z" transform="translate(-20.07 -9.38)"/><path class="cls-12" d="M216.63,322.86C219,352.28,179.2,400.78,104.12,382l48.33-96,47.43-42.22S212.72,274,216.63,322.86Z" transform="translate(-20.07 -9.38)"/><path class="cls-16" d="M135,121.76s-12.33,0-20.53,18.49c-6.11,13.75-1.09,51.44-9,66.88s-13.38,46.48-.29,55.9,45,3.67,54.92-12.91,20.76-84.78,13.18-110.23S138.85,118,135,121.76Z" transform="translate(-20.07 -9.38)"/><path class="cls-12" d="M136.59,190.22c4.35-1.93,21.62-5.8,38.54,10.5s-31.33,15.81-31.33,15.81l-17.2-10S127.13,194.41,136.59,190.22Z" transform="translate(-20.07 -9.38)"/><path class="cls-3" d="M175.13,200.72s-17.11-4.56-31.18-2c-10.33,1.86-30.85.7-37.67,13.8-8.47,16.25,10,42.18,21.76,58.78,4.39,6.18,13.67,23.34,15.55,39.8,0,0,31.14,9.05,58-2.7l2-38.2S222.93,234.33,175.13,200.72Z" transform="translate(-20.07 -9.38)"/><path class="cls-9" d="M178.65,397.94S163.56,405,160,404.73c-38.81-2.93-47.64-35.87-44.25-48.81,9-34.72,27.27-48.86,27.27-48.86,4.51,1.48,10.51,2.28,17,2.68a242.42,242.42,0,0,0,27.81-.26c2.64-.17,5-.33,7-.49,4.16-.33,6.77-.62,6.77-.62,5,9.65,9.7,31.65,13.39,53,.19,1.11.38,2.21.56,3.29,2.73,16.14,11,30,3.78,35.45C204.9,411,178.65,397.94,178.65,397.94Z" transform="translate(-20.07 -9.38)"/><path class="cls-13" d="M158.87,400.12c-11.61-36.76,8-69.9,8-69.9,37.24-7.45,95.28-3.28,101.46,0,8,4.27,17.36,36.76,18,40.78,2,12.17,20.26,97.45,31.1,133.2,2.07,6.81,12.13,20.37,16,23.54l.11,0a14.3,14.3,0,0,1,5.21,2.76,11.35,11.35,0,0,1,1.86,2.07H319.25a29,29,0,0,1-4.16-5.42c-3.37-5.4-9.86-4.18-9.86-4.18-2,1.75-2.33,9.75-2.38,11.63h-2.52c-.88-2.25-3.94-12.56-3-16.42.77-3.1,3.09-10.28,4.09-13.71a11.63,11.63,0,0,0,.56-2.78c-2.8-11.74-12.43-51.79-29.17-84.08-11.33-21.85-16.11-32.51-18.91-49.4C216.87,370.41,158.87,400.12,158.87,400.12Z" transform="translate(-20.07 -9.38)"/><path class="cls-17" d="M319.25,534.64c-2.16,0-6.32-4.5-9.25-6.77-2.73-2.12-4.31-2-4.31-2-2,1.75-2.79,6.91-2.84,8.79h-2.52c-.88-2.25-3.94-12.56-3-16.42.77-3.1,2.55-7.38,3.1-13.26,7.88-4.48,14.64,10.69,24.78,19.23,5.1,4.29,8.26,3.55,8.26,3.55l.11,0c.42.24,3.47.47,6.27,2,4.22,2.54,4.29,4.12,4.86,4.91Z" transform="translate(-20.07 -9.38)"/><path class="cls-14" d="M175.69,395.64l16.8-41.3c37.24-7.45,52.53,8.74,62.6,8.92,16.15.28,17.62,27.74,14,44.7-1.82,8.59-33.26,124.05-32,129.77,1.55,6.95,12.13,20.38,16,23.54l.11,0a14.65,14.65,0,0,1,5.21,2.76,11.35,11.35,0,0,1,1.86,2.07H239a29.18,29.18,0,0,1-4.16-5.41c-3.37-5.4-9.86-4.18-9.86-4.18-2,1.75-2.33,9.74-2.38,11.62h-2.52c-.88-2.24-3.94-12.55-3-16.41.77-3.1,3.2-10.25,4.09-13.72,4.77-18.45,8.69-23.24,11.67-73.82,1.63-27.64,0-48.51,11.44-62.44C244.24,401.78,201,405.12,175.69,395.64Z" transform="translate(-20.07 -9.38)"/><path class="cls-17" d="M239,568.17c-2.16,0-6.32-4.49-9.25-6.76-2.73-2.12-4.31-2-4.31-2-2,1.75-2.79,6.91-2.84,8.79h-2.52c-.88-2.24-3.94-12.55-3-16.41.77-3.1,2.55-7.38,3.1-13.27,7.88-4.48,14.64,10.69,24.78,19.23,5.1,4.3,8.26,3.55,8.26,3.55l.11,0c.42.25,3.47.48,6.27,2,4.22,2.53,4.29,4.11,4.86,4.9Z" transform="translate(-20.07 -9.38)"/><path class="cls-13" d="M166.83,330.22c37.24-7.45,95.28-3.28,101.46,0,8,4.27-9.26,33.07-17.89,32.09-37,2.17-47.2,32.61-91.53,37.81a60.32,60.32,0,0,1-4.49-35.39C158.16,343.3,166.83,330.22,166.83,330.22Z" transform="translate(-20.07 -9.38)"/><path class="cls-14" d="M137.78,174.7s4.75,15.47,1.53,30.92c0,0,10.6,10.8,17.09,1.24,0,0-1.92-14.63,4-32.65C164.43,162.14,137.78,174.7,137.78,174.7Z" transform="translate(-20.07 -9.38)"/><path class="cls-18" d="M169.81,158.34c-.56-4.89.5-9,2.38-9.23s5.28,2.76,5.84,7.64-1.94,9.83-3.81,10S170.38,163.22,169.81,158.34Z" transform="translate(-20.07 -9.38)"/><path class="cls-19" d="M165.24,159c-.82-7.2.94-13.32,3.93-13.66s6.11,5.21,6.94,12.41-.94,13.32-3.94,13.66S166.07,166.17,165.24,159Z" transform="translate(-20.07 -9.38)"/><path class="cls-13" d="M154.24,187c13.11-2.31,19-12.17,14.49-37.84-2.33-13.25-10.5-20.19-25.18-17.6s-19.43,11.79-17.1,25C131.3,184.15,140.71,189.35,154.24,187Z" transform="translate(-20.07 -9.38)"/><path class="cls-20" d="M134.4,165c0,1.35,1.38,2.45,3.08,2.45s3.07-1.1,3.07-2.46-1.38-2.46-3.08-2.46S134.4,163.6,134.4,165Z" transform="translate(-20.07 -9.38)"/><path class="cls-20" d="M161.48,160.93c.32,1.32,1.92,2.07,3.57,1.66s2.73-1.79,2.41-3.11a2.82,2.82,0,0,0-3.57-1.66C162.24,158.22,161.16,159.61,161.48,160.93Z" transform="translate(-20.07 -9.38)"/><path class="cls-19" d="M137.71,150.55a.66.66,0,0,0,.78-.26c1.48-2.22,4.69-2.7,4.72-2.71a.66.66,0,1,0-.19-1.31c-.15,0-3.83.57-5.64,3.29a.67.67,0,0,0,.19.92Z" transform="translate(-20.07 -9.38)"/><path class="cls-19" d="M156.5,145.16a.59.59,0,0,0,.35,0s3.22-.64,5.37.94a.66.66,0,0,0,.93-.14.67.67,0,0,0-.14-.93c-2.63-1.94-6.27-1.2-6.43-1.17a.66.66,0,0,0-.51.79A.67.67,0,0,0,156.5,145.16Z" transform="translate(-20.07 -9.38)"/><path class="cls-19" d="M139.57,157c.29,1.63,1.25,2.82,2.16,2.66s1.4-1.6,1.12-3.23-1.25-2.82-2.16-2.66S139.29,155.39,139.57,157Z" transform="translate(-20.07 -9.38)"/><path class="cls-19" d="M158,154.5c.29,1.63,1.25,2.82,2.15,2.66s1.41-1.61,1.12-3.24-1.25-2.82-2.15-2.66S157.74,152.87,158,154.5Z" transform="translate(-20.07 -9.38)"/><path class="cls-19" d="M159,170.33s-8,2.58-12.54,1.12c0,0,3.44,5.63,7.8,4.3A6.61,6.61,0,0,0,159,170.33Z" transform="translate(-20.07 -9.38)"/><path class="cls-19" d="M144.67,155.75s-1.9-3.8-3.42-3.23-2.12,4.21-2.12,4.21l-2.54-.83,2.38-.1s.58-3.8,2.14-4.08C143.32,151.32,144.67,155.75,144.67,155.75Z" transform="translate(-20.07 -9.38)"/><path class="cls-19" d="M157.48,154s.49-4.21,2.12-4.2S163,153,163,153l2.11-1.64-2.28.71s-1.84-3.37-3.39-3.1C157.24,149.38,157.48,154,157.48,154Z" transform="translate(-20.07 -9.38)"/><path class="cls-20" d="M153.14,164.15a3.78,3.78,0,0,1-1,.21l-.13-1.43c1.22-.11,1.6-.78,1.7-1.32a1.75,1.75,0,0,0-.6-1.78c-.23-.12-.52,0-.86.36l-1-1a2.07,2.07,0,0,1,2.56-.66,3.15,3.15,0,0,1,1.36,3.33A2.94,2.94,0,0,1,153.14,164.15Z" transform="translate(-20.07 -9.38)"/><path class="cls-16" d="M130.88,145.9A25.14,25.14,0,0,1,132,143c.19-.46.41-.88.61-1.28a11.32,11.32,0,0,1,.6-1.11,14.78,14.78,0,0,1,1-1.59c.25-.38.4-.59.4-.59l-.29.65a16.35,16.35,0,0,0-.69,1.72,10.72,10.72,0,0,0-.38,1.17c-.13.42-.26.86-.36,1.33a23.82,23.82,0,0,0-.52,2.91,26.76,26.76,0,0,0-.21,2.89,86.69,86.69,0,0,1,11.59-3.19c0-.63.07-1.27.08-1.92,0-1,0-1.91-.1-2.81a23.58,23.58,0,0,0-.35-2.43q-.13-.52-.24-1a6.91,6.91,0,0,0-.23-.72l-.22-.64.34.58c.1.19.25.41.37.68l.43.92c.27.69.57,1.5.83,2.4s.48,1.87.66,2.85c.11.57.19,1.13.27,1.69.69-.12,1.37-.24,2-.34,1.08-6.6-.39-10.78-.39-10.78,1.92,2.44,3.24,6.74,4.06,10.29,1.86-.21,3.61-.33,5.23-.41-.13-.39-.26-.78-.4-1.17-.35-1-.74-1.94-1.13-2.83s-.8-1.69-1.17-2.37c-.19-.35-.39-.64-.55-.91a5.66,5.66,0,0,0-.46-.68l-.42-.58.52.49a6.83,6.83,0,0,1,.58.6c.21.24.47.5.71.81.51.62,1.06,1.36,1.62,2.18s1.12,1.73,1.65,2.65c.34.58.67,1.17,1,1.75,2.22,0,4.15,0,5.76.12a31.67,31.67,0,0,0-1.3-3.17,26.39,26.39,0,0,0-1.43-2.64c-.25-.42-.49-.81-.75-1.17s-.49-.71-.74-1-.47-.58-.66-.83-.4-.44-.56-.6l-.49-.53.58.43.66.5.81.71c.31.25.6.56.93.88a14.06,14.06,0,0,1,1,1,28.62,28.62,0,0,1,2,2.44,35.35,35.35,0,0,1,2.55,4.15c1.81.19,2.81.4,2.81.4-2.34-11.46-13-20.27-25.06-18.46-20.56,3.09-16.28,24.06-16.28,24.06l1.7-.66A31.69,31.69,0,0,1,130.88,145.9Z" transform="translate(-20.07 -9.38)"/><path class="cls-19" d="M130.78,163.07c1.26,7.14-.13,13.35-3.11,13.87s-6.4-4.84-7.65-12,.13-13.35,3.11-13.88S129.53,155.93,130.78,163.07Z" transform="translate(-20.07 -9.38)"/><path class="cls-21" d="M123.3,158s-1.77-28,17.23-32.3,29.13,12.79,29.13,12.79-8.36-18.66-30.61-15.16-19.49,36-19.49,36Z" transform="translate(-20.07 -9.38)"/><path class="cls-18" d="M126.26,164c.85,4.84,0,9-1.82,9.35s-5.44-2.44-6.29-7.28,1.35-9.92,3.21-10.25S125.41,159.13,126.26,164Z" transform="translate(-20.07 -9.38)"/><path class="cls-19" d="M155.16,183.78l-2.32.26a1.49,1.49,0,0,1-1.66-1.32h0a1.5,1.5,0,0,1,1.32-1.66l2.32-.26a1.49,1.49,0,0,1,1.66,1.31h0A1.51,1.51,0,0,1,155.16,183.78Z" transform="translate(-20.07 -9.38)"/><path class="cls-22" d="M150.28,183.27c-17.8,0-25.24-12.56-25.31-12.69a.5.5,0,0,1,.86-.5c.08.13,7.69,12.92,26,12.16a.5.5,0,0,1,.52.48.51.51,0,0,1-.48.52Z" transform="translate(-20.07 -9.38)"/><path class="cls-9" d="M234.7,402.24s-.41,4.23-9,7.87-30.59-5.37-65.71-5.38c-15.43,0-14.45-29.78-8.19-52.91.19-.7.39-1.4.59-2.1,0,0,0,0,0,0a91,91,0,0,1,5.2-14c.39-.81.78-1.58,1.18-2.32,1.87-3.45,3.83-6,5.76-7.32,0,0,2.62-.41,7.11-.94l1.71-.2c3.22-.36,7.2-.75,11.73-1.1l2.56-.19c3.69-.25,7.68-.46,11.89-.6l1.64,0c4-.11,8.23-.15,12.52-.07l1.43,0c4,.08,8,.27,12,.57l2.49.2c4.06.35,8.11.83,12.08,1.47h0l.9.14c3.85.63,7.63,1.41,11.28,2.36C253.92,327.68,224.89,360.74,234.7,402.24Z" transform="translate(-20.07 -9.38)"/><circle class="cls-18" cx="110.3" cy="346.48" r="1.32"/><path class="cls-18" d="M131.69,366.48a1.32,1.32,0,1,1-1.32-1.32A1.33,1.33,0,0,1,131.69,366.48Z" transform="translate(-20.07 -9.38)"/><path class="cls-18" d="M138.69,350.56a1.32,1.32,0,1,1-1.32-1.32A1.32,1.32,0,0,1,138.69,350.56Z" transform="translate(-20.07 -9.38)"/><path class="cls-18" d="M138.69,361.18a1.32,1.32,0,1,1-1.32-1.33A1.32,1.32,0,0,1,138.69,361.18Z" transform="translate(-20.07 -9.38)"/><path class="cls-18" d="M145.69,334.64a1.32,1.32,0,1,1-1.32-1.32A1.32,1.32,0,0,1,145.69,334.64Z" transform="translate(-20.07 -9.38)"/><path class="cls-18" d="M145.69,345.25a1.32,1.32,0,1,1-1.32-1.32A1.33,1.33,0,0,1,145.69,345.25Z" transform="translate(-20.07 -9.38)"/><circle class="cls-18" cx="124.3" cy="346.48" r="1.32"/><path class="cls-18" d="M145.69,366.48a1.32,1.32,0,1,1-1.32-1.32A1.33,1.33,0,0,1,145.69,366.48Z" transform="translate(-20.07 -9.38)"/><circle class="cls-18" cx="131.3" cy="309.33" r="1.32"/><path class="cls-18" d="M152.69,329.33a1.32,1.32,0,1,1-1.32-1.32A1.32,1.32,0,0,1,152.69,329.33Z" transform="translate(-20.07 -9.38)"/><circle class="cls-18" cx="131.3" cy="330.56" r="1.32"/><path class="cls-18" d="M152.69,350.56a1.32,1.32,0,1,1-1.32-1.32A1.32,1.32,0,0,1,152.69,350.56Z" transform="translate(-20.07 -9.38)"/><path class="cls-18" d="M152.69,361.18a1.32,1.32,0,1,1-1.32-1.33A1.32,1.32,0,0,1,152.69,361.18Z" transform="translate(-20.07 -9.38)"/><path class="cls-18" d="M159.69,313.41a1.32,1.32,0,1,1-1.32-1.32A1.32,1.32,0,0,1,159.69,313.41Z" transform="translate(-20.07 -9.38)"/><circle class="cls-18" cx="138.3" cy="314.64" r="1.32"/><path class="cls-18" d="M159.69,334.64a1.32,1.32,0,1,1-1.32-1.32A1.32,1.32,0,0,1,159.69,334.64Z" transform="translate(-20.07 -9.38)"/><path class="cls-18" d="M159.69,345.25a1.32,1.32,0,1,1-1.32-1.32A1.33,1.33,0,0,1,159.69,345.25Z" transform="translate(-20.07 -9.38)"/><circle class="cls-18" cx="138.3" cy="346.48" r="1.32"/><path class="cls-18" d="M159.69,366.48a1.32,1.32,0,1,1-1.32-1.32A1.33,1.33,0,0,1,159.69,366.48Z" transform="translate(-20.07 -9.38)"/><circle class="cls-18" cx="145.3" cy="309.33" r="1.32"/><path class="cls-18" d="M166.69,329.33a1.32,1.32,0,1,1-1.32-1.32A1.32,1.32,0,0,1,166.69,329.33Z" transform="translate(-20.07 -9.38)"/><circle class="cls-18" cx="145.3" cy="330.56" r="1.32"/><path class="cls-18" d="M166.69,350.56a1.32,1.32,0,1,1-1.32-1.32A1.32,1.32,0,0,1,166.69,350.56Z" transform="translate(-20.07 -9.38)"/><path class="cls-18" d="M166.69,361.18a1.32,1.32,0,1,1-1.32-1.33A1.32,1.32,0,0,1,166.69,361.18Z" transform="translate(-20.07 -9.38)"/><path class="cls-18" d="M173.69,313.41a1.32,1.32,0,1,1-1.32-1.32A1.32,1.32,0,0,1,173.69,313.41Z" transform="translate(-20.07 -9.38)"/><circle class="cls-18" cx="152.3" cy="314.64" r="1.32"/><path class="cls-18" d="M173.69,334.64a1.32,1.32,0,1,1-1.32-1.32A1.32,1.32,0,0,1,173.69,334.64Z" transform="translate(-20.07 -9.38)"/><path class="cls-18" d="M173.69,345.25a1.32,1.32,0,1,1-1.32-1.32A1.33,1.33,0,0,1,173.69,345.25Z" transform="translate(-20.07 -9.38)"/><circle class="cls-18" cx="152.3" cy="346.48" r="1.32"/><path class="cls-18" d="M173.69,366.48a1.32,1.32,0,1,1-1.32-1.32A1.33,1.33,0,0,1,173.69,366.48Z" transform="translate(-20.07 -9.38)"/><circle class="cls-18" cx="159.3" cy="309.33" r="1.32"/><path class="cls-18" d="M180.69,329.33a1.32,1.32,0,1,1-1.32-1.32A1.32,1.32,0,0,1,180.69,329.33Z" transform="translate(-20.07 -9.38)"/><circle class="cls-18" cx="159.3" cy="330.56" r="1.32"/><path class="cls-18" d="M180.69,350.56a1.32,1.32,0,1,1-1.32-1.32A1.32,1.32,0,0,1,180.69,350.56Z" transform="translate(-20.07 -9.38)"/><path class="cls-18" d="M180.69,361.18a1.32,1.32,0,1,1-1.32-1.33A1.32,1.32,0,0,1,180.69,361.18Z" transform="translate(-20.07 -9.38)"/><path class="cls-18" d="M187.69,313.41a1.32,1.32,0,1,1-1.32-1.32A1.32,1.32,0,0,1,187.69,313.41Z" transform="translate(-20.07 -9.38)"/><circle class="cls-18" cx="166.3" cy="314.64" r="1.32"/><path class="cls-18" d="M187.69,334.64a1.32,1.32,0,1,1-1.32-1.32A1.32,1.32,0,0,1,187.69,334.64Z" transform="translate(-20.07 -9.38)"/><path class="cls-18" d="M187.69,345.25a1.32,1.32,0,1,1-1.32-1.32A1.33,1.33,0,0,1,187.69,345.25Z" transform="translate(-20.07 -9.38)"/><circle class="cls-18" cx="166.3" cy="346.48" r="1.32"/><path class="cls-18" d="M187.69,366.48a1.32,1.32,0,1,1-1.32-1.32A1.33,1.33,0,0,1,187.69,366.48Z" transform="translate(-20.07 -9.38)"/><circle class="cls-18" cx="173.3" cy="309.33" r="1.32"/><path class="cls-18" d="M194.69,329.33a1.32,1.32,0,1,1-1.32-1.32A1.32,1.32,0,0,1,194.69,329.33Z" transform="translate(-20.07 -9.38)"/><circle class="cls-18" cx="173.3" cy="330.56" r="1.32"/><path class="cls-18" d="M194.69,350.56a1.32,1.32,0,1,1-1.32-1.32A1.32,1.32,0,0,1,194.69,350.56Z" transform="translate(-20.07 -9.38)"/><path class="cls-18" d="M194.69,361.18a1.32,1.32,0,1,1-1.32-1.33A1.32,1.32,0,0,1,194.69,361.18Z" transform="translate(-20.07 -9.38)"/><path class="cls-18" d="M201.69,313.41a1.32,1.32,0,1,1-1.32-1.32A1.32,1.32,0,0,1,201.69,313.41Z" transform="translate(-20.07 -9.38)"/><circle class="cls-18" cx="180.3" cy="314.64" r="1.32"/><path class="cls-18" d="M201.69,334.64a1.32,1.32,0,1,1-1.32-1.32A1.32,1.32,0,0,1,201.69,334.64Z" transform="translate(-20.07 -9.38)"/><path class="cls-18" d="M201.69,345.25a1.32,1.32,0,1,1-1.32-1.32A1.33,1.33,0,0,1,201.69,345.25Z" transform="translate(-20.07 -9.38)"/><circle class="cls-18" cx="180.3" cy="346.48" r="1.32"/><path class="cls-18" d="M201.69,366.48a1.32,1.32,0,1,1-1.32-1.32A1.33,1.33,0,0,1,201.69,366.48Z" transform="translate(-20.07 -9.38)"/><path class="cls-18" d="M208.69,329.33a1.32,1.32,0,1,1-1.32-1.32A1.32,1.32,0,0,1,208.69,329.33Z" transform="translate(-20.07 -9.38)"/><circle class="cls-18" cx="187.3" cy="330.56" r="1.32"/><path class="cls-18" d="M208.69,350.56a1.32,1.32,0,1,1-1.32-1.32A1.32,1.32,0,0,1,208.69,350.56Z" transform="translate(-20.07 -9.38)"/><path class="cls-18" d="M208.69,361.18a1.32,1.32,0,1,1-1.32-1.33A1.32,1.32,0,0,1,208.69,361.18Z" transform="translate(-20.07 -9.38)"/><path class="cls-18" d="M215.7,324a1.33,1.33,0,0,1-2.65,0,1.3,1.3,0,0,1,.63-1.12l1.43,0A1.28,1.28,0,0,1,215.7,324Z" transform="translate(-20.07 -9.38)"/><path class="cls-18" d="M215.69,334.64a1.32,1.32,0,1,1-1.32-1.32A1.32,1.32,0,0,1,215.69,334.64Z" transform="translate(-20.07 -9.38)"/><path class="cls-18" d="M215.69,345.25a1.32,1.32,0,1,1-1.32-1.32A1.33,1.33,0,0,1,215.69,345.25Z" transform="translate(-20.07 -9.38)"/><circle class="cls-18" cx="194.3" cy="346.48" r="1.32"/><path class="cls-18" d="M215.69,366.48a1.32,1.32,0,1,1-1.32-1.32A1.33,1.33,0,0,1,215.69,366.48Z" transform="translate(-20.07 -9.38)"/><path class="cls-18" d="M222.69,329.33a1.32,1.32,0,1,1-1.32-1.32A1.32,1.32,0,0,1,222.69,329.33Z" transform="translate(-20.07 -9.38)"/><circle class="cls-18" cx="201.3" cy="330.56" r="1.32"/><path class="cls-18" d="M222.69,350.56a1.32,1.32,0,1,1-1.32-1.32A1.32,1.32,0,0,1,222.69,350.56Z" transform="translate(-20.07 -9.38)"/><path class="cls-18" d="M222.69,361.18a1.32,1.32,0,1,1-1.32-1.33A1.32,1.32,0,0,1,222.69,361.18Z" transform="translate(-20.07 -9.38)"/><path class="cls-18" d="M229.7,324a1.33,1.33,0,0,1-2.65,0,1.27,1.27,0,0,1,.11-.52l2.49.2A.86.86,0,0,1,229.7,324Z" transform="translate(-20.07 -9.38)"/><path class="cls-18" d="M229.69,334.64a1.32,1.32,0,1,1-1.32-1.32A1.32,1.32,0,0,1,229.69,334.64Z" transform="translate(-20.07 -9.38)"/><path class="cls-18" d="M229.69,345.25a1.32,1.32,0,1,1-1.32-1.32A1.33,1.33,0,0,1,229.69,345.25Z" transform="translate(-20.07 -9.38)"/><circle class="cls-18" cx="208.3" cy="346.48" r="1.32"/><path class="cls-18" d="M229.69,366.48a1.32,1.32,0,1,1-1.32-1.32A1.33,1.33,0,0,1,229.69,366.48Z" transform="translate(-20.07 -9.38)"/><path class="cls-18" d="M236.69,329.33a1.32,1.32,0,1,1-1.32-1.32A1.32,1.32,0,0,1,236.69,329.33Z" transform="translate(-20.07 -9.38)"/><circle class="cls-18" cx="215.3" cy="330.56" r="1.32"/><path class="cls-18" d="M236.69,350.56a1.32,1.32,0,1,1-1.32-1.32A1.32,1.32,0,0,1,236.69,350.56Z" transform="translate(-20.07 -9.38)"/><path class="cls-18" d="M242.64,325.32l-.27,0a1.21,1.21,0,0,1-.63-.17Z" transform="translate(-20.07 -9.38)"/><path class="cls-18" d="M243.69,334.64a1.32,1.32,0,1,1-1.32-1.32A1.32,1.32,0,0,1,243.69,334.64Z" transform="translate(-20.07 -9.38)"/><path class="cls-23" d="M131.05,196.53s5.6,35,26.42,59.62S130.7,372.78,104.12,382a266.46,266.46,0,0,1,24.93-74.82S116.94,271.66,107.8,250,92.55,209.53,131.05,196.53Z" transform="translate(-20.07 -9.38)"/><path class="cls-15" d="M136.59,190.22s-15.48,4.95-17.14,25.63l14.85,6.43-4.75,7.5s11.81,13.54,23.65,20.89C153.2,250.67,126.13,196.41,136.59,190.22Z" transform="translate(-20.07 -9.38)"/><path class="cls-23" d="M156.63,191.67S167.8,189.89,185.3,219s31.33,103.9,31.33,103.9-1.26-72.57-13-93.7S180,201.21,172.37,197.92C172.37,197.92,160.71,189.57,156.63,191.67Z" transform="translate(-20.07 -9.38)"/><path class="cls-15" d="M156.63,191.67s24.06,8.16,41.51,57.49c0,0,.6-14.66,0-21.27L186.63,219l5.92-4.18S164,186.32,156.63,191.67Z" transform="translate(-20.07 -9.38)"/><path class="cls-12" d="M201.33,259.25s8.61,10.36,0,19.69c0,0-7-2.12-7-7.39S193.94,261.89,201.33,259.25Z" transform="translate(-20.07 -9.38)"/><path class="cls-13" d="M152.45,286.06s-2.24-13.95,6.09-17.35,66.75-12.56,66.75-12.56l5.49,6.32S175.3,292.4,152.45,286.06Z" transform="translate(-20.07 -9.38)"/><path class="cls-13" d="M217.51,262.57c.4,4.11,8.83,3.71,8.83,3.71s4.77.78,7.29.87c0,0-.24,3.06,1.13,3.25s2-4.89,2-4.89,2.5,5.29,3.51,4.89.8-5.69.8-5.69,2.94,0,3.13.8a19.52,19.52,0,0,0,1.22,3.06c.61,1.24,1.34,2.25,1.93,1.85,1.18-.8.59-7.08.59-7.08a10.75,10.75,0,0,1,2.14.19c.59.21,2,4.71,3.93,2a10.64,10.64,0,0,0-3.93-7.27c-1.79-1.34-8.61-3.41-12.54-3.72-5.74-.42-13.41.82-14.84,1.58S217.11,258.45,217.51,262.57Z" transform="translate(-20.07 -9.38)"/><path class="cls-14" d="M236.73,265.5s.61-3.21-1-3.79a32,32,0,0,0-4.54-1,22.31,22.31,0,0,1,5.65.74c2.14.73,1.38,6.86,1.38,6.86Z" transform="translate(-20.07 -9.38)"/><path class="cls-14" d="M237.51,259.25a6.22,6.22,0,0,1,2.73,1.46c.66.87.8,4,.8,4s2.94,0,3.13.8a19.52,19.52,0,0,0,1.22,3.06c0-.55-.33-4.69-1.71-6.85S238.19,259.27,237.51,259.25Z" transform="translate(-20.07 -9.38)"/><path class="cls-14" d="M244.17,259.23s3.34,2,3.74,4.11a10.75,10.75,0,0,1,2.14.19A6.8,6.8,0,0,0,244.17,259.23Z" transform="translate(-20.07 -9.38)"/><path class="cls-14" d="M217.51,262.57c.4,4.11,8.83,3.71,8.83,3.71s4.77.78,7.29.87c.35-1.17-.42-1.69-.52-2.65,0,0-3.55.07-4.23-.59,0,0-3.32.59-4.8-.38S219.87,266,217.51,262.57Z" transform="translate(-20.07 -9.38)"/><path class="cls-15" d="M104.12,216.53c4.53-8.51,48,50.62,48,50.62s27.82-4.75,49.16-7.9c0,0-7,13.59,0,19.69,0,0-45.28,14-58.28,14.67s-22.07-16.77-33.5-39.36S102,220.58,104.12,216.53Z" transform="translate(-20.07 -9.38)"/><path class="cls-11" d="M388.48,293.18H169.91a2.13,2.13,0,0,1-2.13-2.14v-14.6H387.46a57.34,57.34,0,0,1,1.11,8.61A63.33,63.33,0,0,1,388.48,293.18Z" transform="translate(-20.07 -9.38)"/><path class="cls-10" d="M388.57,285.05H160.63a2.92,2.92,0,0,1-2.92-2.92V270.75a2.92,2.92,0,0,1,2.92-2.92H384.85a49.17,49.17,0,0,1,2.61,8.61A57.34,57.34,0,0,1,388.57,285.05Z" transform="translate(-20.07 -9.38)"/><path class="cls-8" d="M245.33,235.81h100a6.25,6.25,0,0,0,6.13-5.59l6.72-75.82a5,5,0,0,0-5.13-5.59h-100a6.25,6.25,0,0,0-6.13,5.59l-6.73,75.82A5.06,5.06,0,0,0,245.33,235.81Z" transform="translate(-20.07 -9.38)"/><path class="cls-9" d="M249.19,235.81h100a6.25,6.25,0,0,0,6.13-5.59l6.72-75.82a5,5,0,0,0-5.13-5.59h-100a6.25,6.25,0,0,0-6.13,5.59l-6.73,75.82A5.06,5.06,0,0,0,249.19,235.81Z" transform="translate(-20.07 -9.38)"/><path class="cls-9" d="M338.6,267.76H284.11l4.09-4.23a3.37,3.37,0,0,1,2.08-1l21.07-2.28L295.2,228.89l4-24h19.57l9,55.4,7.51,1.91a3.4,3.4,0,0,1,2.43,2.37Z" transform="translate(-20.07 -9.38)"/><path class="cls-8" d="M329,267.76l-9.74-60.15a3.27,3.27,0,0,0-3.23-2.75H303.64a3.27,3.27,0,0,0-3.12,4.24l18.25,58.66Z" transform="translate(-20.07 -9.38)"/><path class="cls-8" d="M331.28,179.1l-.89.77a7.26,7.26,0,0,1-4.78,1.8h-32.4a3.22,3.22,0,0,0-3.21,2.89l-2.49,24.93a8.4,8.4,0,0,1-4.22,6.47l-1,.57,3.2-34.68a3,3,0,0,1,3-2.75Z" transform="translate(-20.07 -9.38)"/><path class="cls-9" d="M220.87,267.76v-7.2l-33.93,3.21a2.37,2.37,0,0,0-2.16,2.38v1.61Z" transform="translate(-20.07 -9.38)"/><path class="cls-8" d="M220.87,260.56h56.64A2.39,2.39,0,0,1,279.9,263v4.81h-59Z" transform="translate(-20.07 -9.38)"/><path class="cls-24" d="M63.8,25.67a4.67,4.67,0,0,1-.66-2.4,4.75,4.75,0,0,1,3.78-4.65,8.27,8.27,0,0,1,16,.19,4.75,4.75,0,0,1,3.12,4.46,4.68,4.68,0,0,1-.6,2.29h5.64a3.18,3.18,0,0,1,0,6.35H64.57a3.17,3.17,0,0,1-.77-6.24Z" transform="translate(-20.07 -9.38)"/><path class="cls-24" d="M300.63,47.05a4.65,4.65,0,0,1-.66-2.4A4.76,4.76,0,0,1,303.76,40a8.27,8.27,0,0,1,16,.2,4.73,4.73,0,0,1,3.12,4.45,4.78,4.78,0,0,1-.59,2.29h5.63a3.18,3.18,0,0,1,0,6.35H301.4a3.17,3.17,0,0,1-.77-6.24Z" transform="translate(-20.07 -9.38)"/><path class="cls-24" d="M346.88,117.3a9.81,9.81,0,0,0-6.47-14.57,17.09,17.09,0,0,0-33.07.4,9.81,9.81,0,0,0-5.22,14H290.48a6.56,6.56,0,1,0,0,13.11h54.8a6.54,6.54,0,0,0,1.6-12.89Z" transform="translate(-20.07 -9.38)"/><path class="cls-24" d="M76.71,111.8a8.67,8.67,0,0,0,1.22-4.46,8.82,8.82,0,0,0-7-8.64,15.38,15.38,0,0,0-29.76.36,8.84,8.84,0,0,0-4.7,12.55H26a5.9,5.9,0,1,0,0,11.8H75.28a5.89,5.89,0,0,0,1.43-11.61Z" transform="translate(-20.07 -9.38)"/><path class="cls-24" d="M124.63,76.28a4.64,4.64,0,0,0,.66-2.39,4.74,4.74,0,0,0-3.78-4.65,8.27,8.27,0,0,0-16,.19,4.75,4.75,0,0,0-3.11,4.46,4.67,4.67,0,0,0,.59,2.29H97.34a3.18,3.18,0,0,0,0,6.35h26.52a3.17,3.17,0,0,0,.77-6.25Z" transform="translate(-20.07 -9.38)"/></g></g></g></svg>