<svg width="309" height="120" fill="none" xmlns="http://www.w3.org/2000/svg"><path fill-rule="evenodd" clip-rule="evenodd" d="M34.581 13.22C18.514 13.22 5.5 26.213 5.5 42.23v43.24c0 16.018 13.014 29.012 29.084 29.029H274.79c16.067 0 29.081-12.993 29.081-29.011v-43.24c0-16.018-13.014-29.011-29.081-29.011h-48.375v-5h48.375c18.818 0 34.081 15.221 34.081 34.011v43.24c0 18.79-15.263 34.011-34.081 34.011H34.579C15.763 119.481.5 104.261.5 85.47V42.232C.5 23.441 15.763 8.22 34.581 8.22h48.374v5H34.581z" fill="#fff"/><path d="M115.728 20.07h-4.748V11.8h-7.043v8.27h-4.785V.27h4.785v7.856h7.043V.27h4.748v19.8zM135.555 10.576c0 1.928-.361 3.64-1.084 5.117-.722 1.477-1.733 2.63-3.051 3.44-1.318.811-2.835 1.208-4.514 1.208-1.68 0-3.196-.397-4.497-1.171-1.3-.775-2.329-1.874-3.051-3.315-.722-1.442-1.12-3.1-1.156-4.955V9.783c0-1.946.361-3.657 1.066-5.135.704-1.477 1.733-2.63 3.069-3.44C123.673.395 125.19 0 126.888 0c1.679 0 3.178.396 4.496 1.19 1.318.792 2.347 1.927 3.069 3.404.723 1.478 1.102 3.153 1.102 5.063v.919zm-4.857-.829c0-1.964-.326-3.46-.994-4.486-.65-1.027-1.607-1.532-2.835-1.532-2.401 0-3.665 1.802-3.81 5.387l-.018 1.46c0 1.946.325 3.423.976 4.468.65 1.045 1.607 1.567 2.871 1.567 1.209 0 2.13-.504 2.798-1.531.65-1.027.993-2.504.993-4.414v-.919h.019zM152.438 3.964h-5.959V20.07h-4.785V3.964h-5.85V.27h16.576v3.694h.018zM159.227 16.395h8.324v3.675h-13.109V.27h4.785v16.125zM174.666 20.07h-4.767V.27h4.767v19.8zM194.564 20.07h-4.767l-7.024-12.323V20.07h-4.785V.27h4.785l7.024 12.324V.27h4.767v19.8zM209.895 11.657h-7.512v4.738h8.884v3.675h-13.669V.27h13.687v3.694h-8.902v4.18h7.512v3.513zM44.567 89.83H33.859l12.008-40.825h-4.659l6.934-8.972h11.195L44.567 89.83zM60.98 46.88c1.517-5.136 4.46-6.847 9.408-6.847h10.021c5.291 0 7.693 2.468 6.05 8.215L76.093 83.382c-1.445 4.99-4.117 6.432-9.534 6.432H50.905l2.744-9.459h11.195c1.102 0 1.788-.144 2.258-1.711l1.444-4.649h-7.963c-4.947 0-6.59-3.153-5.146-8.09L60.98 46.88zm4.858 18.556c-.343 1.027.27 1.442 1.101 1.442h3.702l5.29-17.8c.343-1.226-.27-1.442-1.3-1.442h-1.914c-1.174 0-1.715.54-2.058 1.64l-4.821 16.16zM106.339 79.345c-1.788 6.09-6.049 11.639-15.655 11.369-5.562-.144-12.496-3.225-9.534-13.008l8.45-28.7c2.203-7.334 7.422-10 14.626-10 8.848 0 12.766 4.18 10.094 13.278l-7.981 27.061zm-1.788-29.097c.542-1.91.271-3.08-1.787-3.08-1.914 0-2.673 1.17-3.16 2.882l-8.848 29.854c-.542 1.783-.072 2.81 1.715 2.882 1.788.073 2.745-.684 3.287-2.594l8.793-29.944zM135.446 79.345c-1.787 6.09-6.049 11.639-15.655 11.369-5.561-.144-12.495-3.225-9.534-13.008l8.433-28.7c2.203-7.334 7.421-10 14.626-10 8.848 0 12.766 4.18 10.093 13.278l-7.963 27.061zm-1.787-29.097c.541-1.91.271-3.08-1.788-3.08-1.914 0-2.672 1.17-3.16 2.882l-8.848 29.854c-.541 1.783-.072 2.81 1.716 2.882 1.787.073 2.744-.684 3.286-2.594l8.794-29.944zM157.747 44.97c.957-3.225 3.286-4.937 7.89-4.937h12.008c4.46 0 6.591 2.739 5.489 6.432l-3.773 12.738c-.831 3.008-2.203 4.648-6.519 4.936 4.045.415 4.189 3.838 3.359 6.432l-3.973 13.693c-.957 3.225-3.015 5.549-7.62 5.549H151.77c-4.46 0-6.519-3.009-5.345-6.99l3.918-13.153c.831-3.008 2.257-4.864 6.591-4.99-3.972-.54-3.972-3.766-3.16-6.378l3.973-13.333zm3.159 36.573c1.03 0 1.86-.072 2.258-1.513l3.087-10.342c.416-1.225.343-2.054-1.173-2.054h-2.185c-1.029 0-1.716.144-2.203 1.64l-3.088 10.341c-.415 1.298-.144 1.91 1.372 1.91h1.932v.018zm7.765-33.493c-1.029 0-1.643.072-2.131 1.514l-2.817 9.242c-.415 1.225-.415 2.198 1.102 2.198h2.257c1.029 0 1.643 0 2.131-1.513l2.816-9.513c.416-1.297.199-1.91-1.3-1.91h-2.058v-.018zM187.396 44.97c.957-3.225 3.286-4.937 7.891-4.937h12.007c4.46 0 6.591 2.739 5.49 6.432l-3.774 12.738c-.831 3.008-2.203 4.648-6.519 4.936 4.045.415 4.189 3.838 3.359 6.432l-3.973 13.693c-.957 3.225-3.015 5.549-7.62 5.549h-12.838c-4.46 0-6.519-3.009-5.345-6.99l3.918-13.153c.831-3.008 2.258-4.864 6.591-4.99-3.972-.54-3.972-3.766-3.16-6.378l3.973-13.333zm3.16 36.573c1.029 0 1.86-.072 2.257-1.513l3.088-10.342c.415-1.225.343-2.054-1.174-2.054h-2.203c-1.029 0-1.715.144-2.203 1.64l-3.088 10.341c-.415 1.298-.144 1.91 1.373 1.91h1.95v.018zm7.764-33.493c-1.029 0-1.643.072-2.131 1.514l-2.816 9.242c-.416 1.225-.416 2.198 1.101 2.198h2.257c1.029 0 1.643 0 2.131-1.513l2.817-9.513c.415-1.297.198-1.91-1.3-1.91h-2.059v-.018zM224.882 46.88c1.516-5.136 4.46-6.847 9.407-6.847h10.022c5.29 0 7.692 2.468 6.049 8.215l-10.365 35.133c-1.444 4.99-4.117 6.432-9.534 6.432h-15.655l2.745-9.459h11.195c1.101 0 1.787-.144 2.257-1.711l1.444-4.649h-7.981c-4.947 0-6.59-3.153-5.146-8.09l5.562-19.025zm4.875 18.556c-.343 1.027.271 1.442 1.101 1.442h3.702l5.291-17.8c.343-1.226-.271-1.442-1.3-1.442h-1.914c-1.174 0-1.716.54-2.059 1.64l-4.821 16.16zM254.116 46.88c1.516-5.136 4.46-6.847 9.407-6.847h10.022c5.29 0 7.692 2.468 6.049 8.215l-10.365 35.133c-1.444 4.99-4.117 6.432-9.534 6.432H244.04l2.744-9.459h11.196c1.101 0 1.787-.144 2.257-1.711l1.444-4.649h-7.963c-4.947 0-6.59-3.153-5.146-8.09l5.544-19.025zm4.875 18.556c-.343 1.027.271 1.442 1.101 1.442h3.702l5.291-17.8c.343-1.226-.271-1.442-1.3-1.442h-1.914c-1.174 0-1.716.54-2.059 1.64l-4.821 16.16z" fill="#fff"/></svg>