<svg xmlns="http://www.w3.org/2000/svg" viewBox="0 0 896.78 805.59"><defs><style>.cls-1{fill:#fff;}</style></defs><g id="Layer_2" data-name="Layer 2"><g id="Object"><path class="cls-1" d="M896.49,377.13c-11.56-35.59-40.53-64.72-75.69-77.24,11.56-6.83,22.85-16.34,35.27-29.74,17-18.39,23.08-35.22,17.95-50a5.9,5.9,0,0,0-4-3.76,5.83,5.83,0,0,0-5.39,1.23,218.85,218.85,0,0,1-69.72,40.62c-3,1.07-6,2.1-9.11,3.13-17.12,5.75-34.81,11.7-46.82,26.08l-.18.23c-21.57-8.47-47.26-11-74.54-7.27a251.35,251.35,0,0,0-37,8.14,134.27,134.27,0,0,0,30-46c3.06-1.85,6-3.82,9-5.85,11.42,4.78,24.84,6.17,42.1,4.29l1.26-.15c65.19-7.6,124.44-53.72,147.7-115.13.68-1.79,2.48-6.55-.17-10.88-3.17-5.16-9.43-4.94-11.5-4.87-1.33.06-2.64.17-4,.24,5.61-5.73,10.25-12.25,12.43-18.17,4.46-12.13,4.94-25.16,4.82-36.29C858.74,41.92,852.23,38,848.37,37c-3.27-.93-6.33-.36-9.17.38-3.14.83-6.28,1.85-9.42,2.92L827.59,18.5c-.76-7.44-4.84-9.54-7.19-10.13a10.23,10.23,0,0,0-4.95.09,60.2,60.2,0,0,0-25.86,13.07l-1-7.37a11.14,11.14,0,0,0-1.38-4.34c-2.76-4.62-8.22-4.75-10-4.8-19.72-.48-43.66.91-60.19,14.54l-4-8.7c-1.28-2.78-3.21-7-7.52-9.32s-11.32-3.16-20.72,5.72C648.89,41.09,629.66,82.79,632,121.65c.95,15.89,5.37,31.18,9.64,46,1.44,5,2.88,10,4.19,15,5.19,19.84,7.36,36.59,1.1,53.79l-.06.18c-8.1,22.16-23,41.71-43.19,57a126.91,126.91,0,0,0,0-20.82l-.13-2c-2.47-43.25-6.65-84.86-30.33-118.53a5.88,5.88,0,0,0-5.08-2.5,5.82,5.82,0,0,0-4.85,2.94c-8.15,14.1-9.13,30.48-10,44.92C552,219,550.69,241.1,554.06,263c2.75,17.89,7.86,41,20.78,49.42C564.18,319,553.29,325.88,543.32,334c-44.12,35.94-66.64,97.65-56,153.56a5.9,5.9,0,0,0,6.47,4.76l.42-.07a5.89,5.89,0,0,0,4.7-6.89c-7.38-39,2.6-80.92,25.39-113.5,7.62,15.93,40.53,20.13,50.64,21a95.13,95.13,0,0,0,19.47-.25,87.09,87.09,0,0,0,44.93-18.51A5.89,5.89,0,0,0,637.57,364L605.5,352.46c-13.48-4.84-27.41-9.85-42.39-10.79a67.88,67.88,0,0,0-11,.44c9.82-7.81,20.78-14.62,31.43-21.18,5.86-3.61,11.68-7.27,17.42-11.07,20.34-7.6,42.1-14.69,64.83-17.77,22.17-3.06,43.12-1.63,61.22,4a25.78,25.78,0,0,0-2,2.49c-26.14,36.25-32.16,86.44-15.32,127.85,5.25,12.91,13.29,20,22.65,20a20.57,20.57,0,0,0,2.09-.13c9.63-1.12,17.06-9.78,21-24.65a211.08,211.08,0,0,0,6.94-42.87l30.08,40a117.77,117.77,0,0,0,12.34,14.62c1.32,1.25,4.8,4.59,9.67,4.12l.25,0a12.38,12.38,0,0,0,6.64-3.26,53.66,53.66,0,0,0,18.18-43.29,124.45,124.45,0,0,0,27.48.08,103.57,103.57,0,0,0,26-6.46A5.91,5.91,0,0,0,896.49,377.13ZM845.9,121.74h.27C824.23,179.35,768.36,222.42,707,229.23c-11.7,1.27-21.25.92-29.37-1.13,3.42-2.77,6.72-5.68,9.93-8.68a161.29,161.29,0,0,0,96.47-31.5c13.26-9.71,26.3-22.32,41-39.7C832.34,139.69,839.27,130.78,845.9,121.74ZM842,122h.15c-6.17,8.32-12.64,16.49-19.31,24.35-14.58,17.2-27.46,29.66-40.53,39.23a161.82,161.82,0,0,1-86.71,30.82c26.93-8.44,56.18-28.42,79.57-45.72,6.43-4.75,12.7-9.48,18.9-14.16C810.09,144.4,825.31,132.92,842,122ZM693.13,214a185.17,185.17,0,0,0,32.16-44.55s.06,0,.09-.05a194.17,194.17,0,0,1,30.83-21.83,2.29,2.29,0,0,0,.27-.14l.11-.08a196.57,196.57,0,0,1,79.53-25c-15.1,10.14-29.16,20.68-43.8,31.73-6.2,4.68-12.46,9.41-18.88,14.15C749.76,185.77,720.06,206,693.13,214Zm99-178.35a50.24,50.24,0,0,1,23.8-15.41l2.42,23.94c-8.68,2.87-17,4.87-25,3.29L791.65,36A4.17,4.17,0,0,0,792.1,35.66Zm4.42,66.08c2.86-11.37,1.2-23-.26-33.31L795,59.68c11.7,1.13,22.89-2.79,33.75-6.61,4.48-1.57,9-3.15,13.43-4.33a10.25,10.25,0,0,1,3-.44c.58.17,1.87,2.29,1.93,7.53.11,10.07-.29,21.76-4.09,32.1-3.31,9-15.56,21.19-24.94,24.95a209.21,209.21,0,0,0-31,7.9A52.48,52.48,0,0,0,796.52,101.74Zm-19-81.24,7.05,49.59c1.37,9.66,2.79,19.65.5,28.76-4.05,16.07-18.75,27.43-34.84,38.56q-7.79,4.47-15.19,9.61c1.83-5.13,3.45-10.34,4.81-15.63.94-3.68,1.69-7.2,2.31-10.64,11.3-13.83,16.7-32.14,20.4-48.82,1-4.49,1.83-8.84,2.63-13.07C767.84,44.92,770.22,32.73,777.53,20.5ZM762.3,58.31c-.8,4.2-1.61,8.52-2.61,13-3.25,14.66-7.8,30.6-16.6,43.39a97.79,97.79,0,0,0,.79-19.19c-.82-12-4.26-23.63-8.52-34.57,1.71-5.06,5.11-9.68,8-13.57,9.25-12.51,18.66-24,31.47-28.17C767.32,31.85,764.87,44.73,762.3,58.31ZM773,16.75c-13.1,4.62-22.64,16.24-32,28.84A65.27,65.27,0,0,0,733.78,57c-2.41-5.87-5-11.55-7.47-17l-4.21-9.2C734.59,18.52,755.15,16.58,773,16.75ZM643.76,121c-2.12-35.37,15.77-73.68,49.08-105.11,3-2.81,5.17-3.85,6.32-4a1.24,1.24,0,0,1,.71.07c.83.44,1.84,2.66,2.38,3.84L715.58,44.9c7.53,16.45,15.32,33.46,16.52,51.38.64,9.51-.56,20-3.67,32.18a172.25,172.25,0,0,1-66.65,97c2.13-14.73-.26-29.36-4.55-45.79-1.34-5.11-2.81-10.2-4.28-15.29C648.67,149.52,644.63,135.53,643.76,121ZM576,381.13c-18.07-1.62-38.44-7.53-41.25-14.64a7.74,7.74,0,0,1-.61-2.75,157.42,157.42,0,0,0,79.29,11.35c.77-.09,1.53-.23,2.29-.33A81,81,0,0,1,576,381.13Zm-37.19-18.59c1.52-.08,3-.18,4.57-.28,8-.5,16.38-1,24.21.14,7.66,1.15,15.4,2.75,22.89,4.3,8.84,1.83,17.89,3.71,27,4.88A154,154,0,0,1,538.76,362.54Zm14.92-8.76a50.85,50.85,0,0,1,8.69-.33c13.31.83,26.44,5.55,39.13,10.12l12.58,4.52c-7.77-1.16-15.5-2.71-23.05-4.28s-15.31-3.17-23-4.32c-8.14-1.22-16.63-.69-24.84-.17-2.38.15-4.73.24-7.09.35C539.54,356.58,546.85,354.57,553.68,353.78Zm12-92.53c-3.18-20.7-1.89-42.21-.65-63a187.15,187.15,0,0,1,2.07-20.56c0,5-.16,10.16-.37,15.22-.29,6.94-.58,14.12-.24,20.71,1,20,3,40.11,5.82,59.88,1.63,11.37,4.25,22.65,11.33,30.18C579,302.51,571,295.27,565.72,261.25Zm23.54,40.63a5.58,5.58,0,0,0-1.67,1.45c-7.88-6.83-10.63-18.49-12.32-30.27-2.81-19.68-4.76-39.75-5.79-59.62-.34-6.45-.06-13.24.24-20.42a206.19,206.19,0,0,0,0-24.23c16.51,29.47,19.91,65.34,22,102.57l.13,2.1C592.3,279.81,593.32,296,589.26,301.88Zm281.87,50.69a119.5,119.5,0,0,0-15.33-9.37,639,639,0,0,0-68.55-31.29A83.85,83.85,0,0,0,805,307.47c.08,0,.14.08.23.1C831.85,313.66,855.56,330.29,871.13,352.57Zm-81.61-80c3.14-1.05,6.26-2.1,9.32-3.2a230.09,230.09,0,0,0,64.95-35.8c-1,8.37-6.51,17.94-16.38,28.6-12.66,13.66-23.93,22.95-35.46,29.25-14.11,7.71-29.23,10.86-42.57,8.85a111,111,0,0,1-13.24-3.11c-2.44-.67-4.93-1.36-7.46-2a6,6,0,0,0-.09-.85C758.51,283,774.27,277.67,789.52,272.54Zm-45.46,146c-1,3.75-4.79,16.13-11.78,16-5.89,0-10.13-8.81-11.67-12.61-15.34-37.74-9.87-83.47,14-116.51a22.19,22.19,0,0,1,1.76-2.1,127.93,127.93,0,0,1,8.13,20.23,37.77,37.77,0,0,0,2.26,8.32C753,358.16,752.25,388,744.06,418.53Zm69.45,6.7c-.15-.13-.33-.28-.53-.48a107.78,107.78,0,0,1-11.07-13.19l-39.08-51.89c-.1-.13-.25-.2-.36-.32,0-.61-.07-1.23-.1-1.84,4.71,5.6,9.74,10.27,14.28,12.77A174.48,174.48,0,0,0,827.59,389,41.84,41.84,0,0,1,813.51,425.23Zm-42.32-75.51c2.54,2,5.12,3.87,7.7,5.65,6.11,4.21,12.41,8.19,18.76,12.06-5.12-2.21-10.22-4.69-15.31-7.49C779,358.09,775,354.3,771.19,349.72Zm42.09,23.58c-11.08-6.41-22.15-13.07-32.71-20.35a106.21,106.21,0,0,1-17.2-14.14,70.13,70.13,0,0,1-5.25-10c-.37-1.49-.76-3-1.16-4.43,8.84,8.16,18.93,14.51,27.79,19.54a327.91,327.91,0,0,0,87.8,34.23C854.34,381.57,834,379.88,813.28,373.3Zm66,3.25a324.76,324.76,0,0,1-93.07-35.24c-10-5.68-21.59-13.07-31-22.87-1.13-3.51-2.35-7-3.73-10.36l1.53.42a123.43,123.43,0,0,0,14.63,3.41,66.87,66.87,0,0,0,12.86.62,638.41,638.41,0,0,1,73.93,33.27c8.14,4.32,16.36,9.08,22.29,15.66a107.79,107.79,0,0,1,6.65,13.93C882,375.82,880.64,376.18,879.28,376.55Z"/><rect class="cls-1" x="29.28" y="696.94" width="643.17" height="4.47"/><path class="cls-1" d="M144.25,574.67a6.91,6.91,0,0,0,5.49-3.22,5.8,5.8,0,0,0-.24-6.83,8.21,8.21,0,0,0-8.37-2.86,6.06,6.06,0,0,0-4.31,5.66,6.55,6.55,0,0,0,.24,2.78,5.77,5.77,0,0,0,1.39,2.16,7.73,7.73,0,0,0,1.94,1.43,1.32,1.32,0,0,0-.33.56,139.09,139.09,0,0,1-7.86,19.77,7.45,7.45,0,0,0-7.53-1.39,7.75,7.75,0,0,0-5.13,7.22,10.36,10.36,0,0,0,5,8.66c-2.62,4.6-5.34,9.12-8.06,13.6Q115,615,113.07,607.86c-4.47-18.69-3.48-42.11,2.59-61.26q1.68-5.25,3.8-10.48c.09.23.16.45.27.67,1.17,2.5,2.82,4.1,4.77,4.63a5.67,5.67,0,0,0,1.48.19,7.14,7.14,0,0,0,4.45-1.67,8.28,8.28,0,0,0,3-7.55,5.77,5.77,0,0,0-1.64-3.31,6.34,6.34,0,0,0-2.64-1.42,13.5,13.5,0,0,0-5.84-.25q2.52-5.2,5.51-10.43l.4,0a7.11,7.11,0,0,0,1.94-.26,6.77,6.77,0,0,0,4.08-3.49,7.6,7.6,0,0,0,.49-5.2,5.27,5.27,0,0,0-.56-1.38q2.52-3.81,5.3-7.66a8.88,8.88,0,0,0,1.42.23,13.66,13.66,0,0,0,1.4.07,7.55,7.55,0,0,0,5.41-1.82,5.52,5.52,0,0,0,1.63-5.21,7.09,7.09,0,0,0-4.34-5.16,5.29,5.29,0,0,0-4.56.26c-2.75,1.54-3.63,5.09-3.83,6.14h0a5.16,5.16,0,0,0,.36,3.78l0,.06q-2.61,3.61-5,7.21a12.65,12.65,0,0,0-6.13-1.36h0a7.7,7.7,0,0,0-3.64.72,6.32,6.32,0,0,0-2.48,7.95,8.61,8.61,0,0,0,5,4.46q-3.37,6-6.14,11.93h0l-.26.08a28.8,28.8,0,0,0-3.17-4h0c-2-2-3.84-3.07-5.78-3.25a6.43,6.43,0,0,0-6.7,4.62,6.36,6.36,0,0,0,3.55,7.34,8.42,8.42,0,0,0,4.48.44,31.64,31.64,0,0,0,6.28-1.63,146.28,146.28,0,0,0-5.17,13.78,126.46,126.46,0,0,0-5.21,45.49c-1.06-2.84-2.17-5.67-3.37-8.47-.85-2-1.74-3.94-2.65-5.9a11.76,11.76,0,0,0,5.43-6,9,9,0,0,0-.87-8.49,3.56,3.56,0,0,0-3.24-1.75,3.72,3.72,0,0,0-2.88,2.48,27.94,27.94,0,0,0-1.88,6.56c-1.43-2.92-2.88-5.82-4.32-8.67q-1.42-2.82-2.85-5.69a8.38,8.38,0,0,0,6.1-2.1c2-1.55,2.75-4.44,2-7.71-.55-2.47-1.74-4.17-3.45-4.91-3-1.29-6.25.89-7.67,3.74A17.32,17.32,0,0,0,87,547c-2.6-5.51-5-11.11-7.08-16.81a100,100,0,0,1-5.63-24.86,9.62,9.62,0,0,0,4.53,1.15,8.42,8.42,0,0,0,2.92-.51,8.12,8.12,0,0,0,5.06-6.41,6.4,6.4,0,0,0-2.59-6.26c-2.15-1.57-5.59-1.59-8-.92a9.29,9.29,0,0,0-1.9.75A55.56,55.56,0,0,1,78,477.36a4.15,4.15,0,0,0,1.45.28,6.76,6.76,0,0,0,3.76-1.31,6.08,6.08,0,0,0,1.94-1.95,4.11,4.11,0,0,0-.31-5,7.2,7.2,0,0,0-7.6-1.5,4.39,4.39,0,0,0-2.78,4.61,5.84,5.84,0,0,0,.88,2.51c.08.14.17.26.26.39-5.85,13.86-5.29,28.75-2.57,41.54-2.55-1.39-6.11.06-7.84,1.59a8.68,8.68,0,0,0-2.65,4.72,5.6,5.6,0,0,0,.25,3.51,5.29,5.29,0,0,0,1.29,1.69,8,8,0,0,0,5.39,1.93,10.62,10.62,0,0,0,4-.83,5.62,5.62,0,0,0,1.85-1.16,4.34,4.34,0,0,0,.56-.72c.39,1.23.8,2.42,1.21,3.57,1.86,5.21,4,10.32,6.37,15.34a14.4,14.4,0,0,0-5.1-3.57h0a9.13,9.13,0,0,0-8.22,1,7,7,0,0,0-2.61,8.1c.76,1.86,2.45,3.39,5,4.53A15.58,15.58,0,0,0,78.8,558a10.83,10.83,0,0,0,2.69-.32,10.55,10.55,0,0,0,5.6-3.59q2.05,4.15,4.11,8.23C93.13,566.14,95.09,570,97,574c-.42-.16-.84-.33-1.28-.52a21.15,21.15,0,0,0-2.77-1,25.29,25.29,0,0,0-7.17-.91,8.26,8.26,0,0,0-3.19.55c-2.48,1.06-3.59,3.61-4.08,5.57s-.76,4.78.75,7.13A7.67,7.67,0,0,0,85.71,588h.37a12.3,12.3,0,0,0,6.66-2.59A19.63,19.63,0,0,0,98.89,578c.91,2,1.8,3.93,2.64,5.9a193.52,193.52,0,0,1,8.66,24.67c0,.12,0,.24.08.35s0,.05,0,.08a193.82,193.82,0,0,1,5.3,76.39l2.94.39a197,197,0,0,0-1.27-59.24l.09-.11c3.31-5.44,6.65-10.94,9.85-16.56a5.13,5.13,0,0,0,1.32.19,5.66,5.66,0,0,0,.6,0c2.19-.28,3.94-1.85,4.93-4.42a12.85,12.85,0,0,0,.08-8.71,143.55,143.55,0,0,0,8.75-21.67,1.24,1.24,0,0,0,.05-.6,7.59,7.59,0,0,0,.95.07Z"/><path class="cls-1" d="M148.35,601.33a7.27,7.27,0,0,0,2.94,1.17,8.89,8.89,0,0,0,1.53.14,7,7,0,0,0,5.55-2.47c1.48-1.89,1.54-4.28,1.48-6.38-.09-3-1.7-5.23-4.33-5.83a8.37,8.37,0,0,0-8.82,4.34,8,8,0,0,0-.88,4.7A6.36,6.36,0,0,0,148.35,601.33Z"/><path class="cls-1" d="M55.45,482.16a4.67,4.67,0,0,0,1.62,4.94,4.89,4.89,0,0,0,3,1,5.06,5.06,0,0,0,2.08-.45,4,4,0,0,0,2.4-4.69,5.26,5.26,0,0,0-4.89-4A4.25,4.25,0,0,0,55.45,482.16Z"/><path class="cls-1" d="M91,462.54a6.36,6.36,0,0,0,2.44.53,4.59,4.59,0,0,0,1-.1,4.09,4.09,0,0,0,3.07-2.48,5.65,5.65,0,0,0-.16-3.64,3.78,3.78,0,0,0-3.95-3,5.57,5.57,0,0,0-4.87,4.57,3.75,3.75,0,0,0,.31,2.26A4,4,0,0,0,91,462.54Z"/><path class="cls-1" d="M140.79,480.2a5.58,5.58,0,0,0,3.28,1.15h.33a6.72,6.72,0,0,0,5.08-2.23,5.7,5.7,0,0,0,1-6c-1.38-3-5.48-3-7.83-2a5.94,5.94,0,0,0-3.43,3.86A5,5,0,0,0,140.79,480.2Z"/><polygon class="cls-1" points="686.27 796.65 8.94 796.65 8.94 100.36 515.12 100.36 515.12 91.42 0 91.42 0 805.59 695.21 805.59 695.21 467.28 686.27 467.28 686.27 796.65"/><path class="cls-1" d="M141.38,206.54A25.25,25.25,0,0,0,146,191.75a28.85,28.85,0,0,0-7.94-20q-7.94-8.74-25.25-8.74H57.23V272.49h52.12q24.53,0,32-9.58a34.42,34.42,0,0,0,7.49-21.77q0-20.37-21.24-25.49Q136.76,213.16,141.38,206.54Zm-53.2-20h15q11.24,0,11.23,9.14A9.92,9.92,0,0,1,112,202q-2.4,3-8.26,3H88.18Zm25.3,58.57c-1.9,2-4.88,3-8.94,3H88.18V228.23h15.23q7.38,0,10.15,3.17a10.33,10.33,0,0,1,2.76,6.94A9.62,9.62,0,0,1,113.48,245.11Z"/><polygon class="cls-1" points="162.75 163.05 162.75 272.49 239.48 272.49 239.48 245.63 196.34 245.63 196.34 163.05 162.75 163.05"/><path class="cls-1" d="M297.36,161.37q-24.69,0-38.6,16t-13.92,40.53q0,25.67,14.56,41T297,274.17q22.93,0,37.44-15.71T349,216.69q0-25.18-14.4-40.25T297.36,161.37Zm11.75,80.53q-3.74,7.42-12.23,7.42-15.87,0-15.87-30.55,0-32.55,16.51-32.55,15.32,0,15.32,28.54Q312.84,234.49,309.11,241.9Z"/><path class="cls-1" d="M448.05,176.44q-14.39-15.08-37.24-15.07-24.69,0-38.6,16t-13.92,40.53q0,25.67,14.56,41t37.64,15.31q22.93,0,37.44-15.71t14.52-41.77Q462.45,191.51,448.05,176.44ZM422.56,241.9q-3.74,7.42-12.23,7.42-15.87,0-15.88-30.55,0-32.55,16.52-32.55,15.31,0,15.32,28.54Q426.29,234.49,422.56,241.9Z"/><polygon class="cls-1" points="120.65 384.18 104.78 326.05 60.88 326.05 60.88 435.5 86.06 435.5 86.06 357.24 107.1 435.5 128.43 435.5 148.67 357.24 148.67 435.5 179.86 435.5 179.86 326.05 135.8 326.05 120.65 384.18"/><rect class="cls-1" x="198.95" y="326.05" width="33.59" height="109.44"/><path class="cls-1" d="M317.85,435.49h27.34V326.05H317.85v32.39a159.35,159.35,0,0,0,2.56,28.71,153.38,153.38,0,0,0-11.54-21l-25.5-40.09H251.62V435.49h27.26v-53a76.27,76.27,0,0,0-2.64-18,183.54,183.54,0,0,0,11.64,22.6Z"/><path class="cls-1" d="M411.25,348.66q12.58,0,15,17.08l32.55-3.21q-3.54-18.27-15.48-28.22t-31.51-9.94q-26.06,0-39.24,16.72t-13.19,41.25q0,25.25,13.63,40.05t34.79,14.79q20,0,30.15-13.15a64.34,64.34,0,0,1,4.41,11.46H458.8V374.16H409.49v23.25h18.12a12.83,12.83,0,0,1-4.37,10.1,15.38,15.38,0,0,1-10.38,3.69A16.45,16.45,0,0,1,400,405.15q-5.29-6.06-5.3-25.06Q394.73,348.67,411.25,348.66Z"/><path class="cls-1" d="M193.35,551.41v92.27h28.73V610.15h16q15.35,0,24.53-8.11t9.2-21.29a28.18,28.18,0,0,0-4.5-15.62,27.16,27.16,0,0,0-12.17-10.34q-7.66-3.37-22.4-3.38Zm50.29,29.74q0,9.2-12.51,9.2h-9.46V572.5h10.41Q243.65,572.5,243.64,581.15Z"/><polygon class="cls-1" points="351.79 572.7 351.79 551.41 282.37 551.41 282.37 643.68 351.79 643.68 351.79 621.64 310.15 621.64 310.15 606.57 343.81 606.57 343.81 586.09 310.15 586.09 310.15 572.7 351.79 572.7"/><polygon class="cls-1" points="354.97 573.51 374.1 573.51 374.1 643.68 400.94 643.68 400.94 573.51 420.07 573.51 420.07 551.41 354.97 551.41 354.97 573.51"/><path class="cls-1" d="M444,551.41l-28.48,92.27h23l5.54-18.18h24.72L474,643.68h28.91L474,551.41Zm4.87,53.94,7.46-26.76,7.46,26.76Z"/><polygon class="cls-1" points="511.39 551.41 511.39 643.68 576.07 643.68 576.07 621.03 539.71 621.03 539.71 551.41 511.39 551.41"/><path class="cls-1" d="M619.75,623.4q-13.72,0-17-11.15L576.41,617q7.92,28.13,41.64,28.12,18.47,0,29.81-8.69t11.36-22.7a25.81,25.81,0,0,0-4.66-15.39,25.39,25.39,0,0,0-11.63-9.22q-7-2.69-23.52-6.19c-4-.86-6.72-1.76-8.11-2.7a4.55,4.55,0,0,1-2.1-4q0-5.75,9.26-5.75,11.16,0,14.81,9.26l23.45-7.09Q647.66,550,619.48,550q-18.6,0-28.5,8.66a27.62,27.62,0,0,0-9.9,21.7A25.26,25.26,0,0,0,588,598q6.9,7.5,31.17,12.15,6.35,1.29,8.82,2.94a5.28,5.28,0,0,1,2.46,4.63Q630.42,623.41,619.75,623.4Z"/><polygon class="cls-1" points="164.96 737.35 164.96 728.84 139.11 728.84 139.11 764.59 149.79 764.59 149.79 751.21 161.45 751.21 161.45 743.17 149.79 743.17 149.79 737.35 164.96 737.35"/><polygon class="cls-1" points="168.44 728.84 168.44 764.59 193.51 764.59 193.51 755.82 179.42 755.82 179.42 728.84 168.44 728.84"/><path class="cls-1" d="M199.81,733.51a19.47,19.47,0,0,0-4.55,13.24q0,8.38,4.76,13.39a16.19,16.19,0,0,0,12.29,5A15.89,15.89,0,0,0,224.54,760q4.74-5.14,4.74-13.65,0-8.22-4.7-13.15a16.06,16.06,0,0,0-12.16-4.92Q204.35,728.29,199.81,733.51Zm17.66,12.22c0,4.3-.4,7.25-1.22,8.87a4.15,4.15,0,0,1-4,2.42q-5.19,0-5.19-10,0-10.63,5.4-10.63Q217.47,736.41,217.47,745.73Z"/><path class="cls-1" d="M264.35,744.83a11.46,11.46,0,0,0,1.26-5.46,9.52,9.52,0,0,0-3.42-7.64q-3.42-2.9-9.6-2.89H233.92v35.75h11V750.92h3.46l5.22,13.67h12.17L259.27,749Q263.1,747.2,264.35,744.83Zm-11.44-2.42a5.83,5.83,0,0,1-3.33.86h-4.69v-6.84H250q4.22,0,4.21,3.44A2.89,2.89,0,0,1,252.91,742.41Z"/><path class="cls-1" d="M268,764.59h8.91l2.15-7.05h9.58l2,7.05h11.2l-11.21-35.75H279Zm15.82-25.22,2.89,10.37h-5.78Z"/><polygon class="cls-1" points="305.13 728.84 305.13 764.59 330.2 764.59 330.2 755.82 316.11 755.82 316.11 728.84 305.13 728.84"/><path class="cls-1" d="M361.26,728.84H347.43v35.75h14.51a16.51,16.51,0,0,0,12.48-5q4.8-5,4.8-13a18.69,18.69,0,0,0-4.47-12.36Q370.27,728.84,361.26,728.84Zm4.59,24.88a5.5,5.5,0,0,1-4.59,2.65H358.4V737h2.86a5.26,5.26,0,0,1,4.8,2.83,13,13,0,0,1,1.67,6.73A12.23,12.23,0,0,1,365.85,753.72Z"/><polygon class="cls-1" points="410.76 737.09 410.76 728.84 383.86 728.84 383.86 764.59 410.76 764.59 410.76 756.05 394.63 756.05 394.63 750.21 407.67 750.21 407.67 742.27 394.63 742.27 394.63 737.09 410.76 737.09"/><path class="cls-1" d="M430,736.41a4.14,4.14,0,0,1,3.23,1.6q1.38,1.59,1.38,5.18l10.24-.55a16.24,16.24,0,0,0-4.31-10.42q-3.81-3.93-10.91-3.93-7.59,0-11.84,5.16T413.51,747q0,8.47,4.48,13.3a16.67,16.67,0,0,0,22,1.31c2.77-2.34,4.38-5.7,4.86-10.08l-10-.61q-.52,5.92-4.88,5.92a4.27,4.27,0,0,1-3.78-2.09c-.9-1.4-1.35-4-1.35-7.94Q424.77,736.41,430,736.41Z"/><path class="cls-1" d="M451.76,733.51q-4.54,5.24-4.54,13.24,0,8.38,4.75,13.39a16.22,16.22,0,0,0,12.3,5A15.9,15.9,0,0,0,476.5,760q4.74-5.14,4.74-13.65,0-8.22-4.7-13.15a16.09,16.09,0,0,0-12.17-4.92Q456.3,728.29,451.76,733.51Zm17.67,12.22c0,4.3-.41,7.25-1.22,8.87a4.16,4.16,0,0,1-4,2.42Q459,757,459,747q0-10.63,5.39-10.63Q469.43,736.41,469.43,745.73Z"/><path class="cls-1" d="M516.31,744.83a11.45,11.45,0,0,0,1.25-5.46,9.54,9.54,0,0,0-3.41-7.64q-3.42-2.9-9.6-2.89H485.87v35.75h11V750.92h3.46l5.22,13.67H517.7L511.23,749Q515.05,747.2,516.31,744.83Zm-11.45-2.42a5.82,5.82,0,0,1-3.32.86h-4.69v-6.84h5q4.22,0,4.22,3.44A2.9,2.9,0,0,1,504.86,742.41Z"/><path class="cls-1" d="M536,756.73q-5.33,0-6.6-4.32l-10.19,1.83q3.06,10.9,16.13,10.9,7.15,0,11.55-3.37a10.57,10.57,0,0,0,4.4-8.79,9.93,9.93,0,0,0-1.81-6,9.81,9.81,0,0,0-4.5-3.58,68.42,68.42,0,0,0-9.11-2.4,10.11,10.11,0,0,1-3.15-1,1.78,1.78,0,0,1-.81-1.55c0-1.48,1.2-2.22,3.59-2.22q4.32,0,5.73,3.58l9.09-2.75q-3.51-8.77-14.43-8.77-7.2,0-11,3.35a10.71,10.71,0,0,0-3.84,8.41,9.8,9.8,0,0,0,2.68,6.84q2.67,2.91,12.07,4.71a10.24,10.24,0,0,1,3.42,1.14,2,2,0,0,1,1,1.79Q540.11,756.74,536,756.73Z"/></g></g></svg>