<svg width="62" height="62" viewBox="0 0 62 62" fill="none" xmlns="http://www.w3.org/2000/svg">
<path d="M59.5 27C59.5 25.6739 58.9732 24.4022 58.0355 23.4645C57.0978 22.5268 55.8261 22 54.5 22H38.7L41.1 10.575C41.15 10.325 41.175 10.05 41.175 9.775C41.175 8.75 40.75 7.8 40.075 7.125L37.425 4.5L20.975 20.95C20.05 21.875 19.5 23.125 19.5 24.5V49.5C19.5 50.8261 20.0268 52.0979 20.9645 53.0355C21.9021 53.9732 23.1739 54.5 24.5 54.5H47C49.075 54.5 50.85 53.25 51.6 51.45L59.15 33.825C59.375 33.25 59.5 32.65 59.5 32V27ZM4.5 54.5H14.5V24.5H4.5V54.5Z" fill="#A9780B"/>
</svg>
