<svg width="76" height="76" viewBox="0 0 76 76" fill="none" xmlns="http://www.w3.org/2000/svg">
<g clip-path="url(#clip0)">
<path d="M61.6569 48.5976C62.869 45.526 63.4939 42.2846 63.4939 38.9535C63.4939 31.1264 60.0506 24.0914 54.6038 19.2719L56.0258 17.8499L56.8011 18.6251C57.0148 18.8388 57.2949 18.946 57.5751 18.946C57.8552 18.946 58.136 18.8388 58.3497 18.6251C58.7771 18.1971 58.7771 17.5033 58.3497 17.0758L55.2512 13.978C54.8231 13.5505 54.13 13.5505 53.7025 13.978C53.2745 14.406 53.2745 15.0998 53.7025 15.5266L54.4772 16.3012L52.8997 17.8787C48.7909 14.8115 43.7583 12.92 38.302 12.695V10.4764H41.0402C42.5506 10.4764 43.7784 9.24806 43.7784 7.73828C43.7784 6.2285 42.5506 5.00012 41.0402 5.00012H33.3735C31.8631 5.00012 30.6353 6.2285 30.6353 7.73828C30.6353 9.24806 31.8631 10.4764 33.3735 10.4764H36.1116V12.695C30.1026 12.9426 24.6094 15.2164 20.2956 18.8507L17.7461 16.3012L18.5207 15.5266C18.9488 15.0992 18.9488 14.406 18.5207 13.978C18.0933 13.5505 17.3995 13.5505 16.9721 13.978L15.4247 15.526C15.4241 15.5266 15.4235 15.5266 15.4228 15.5266C15.4222 15.5272 15.4222 15.5278 15.4216 15.5285L13.8742 17.0758C13.4461 17.5039 13.4461 18.1971 13.8742 18.6251C14.0879 18.8388 14.3681 18.946 14.6482 18.946C14.9283 18.946 15.2091 18.8388 15.4228 18.6251L16.1975 17.8505L18.6762 20.3292C13.8886 25.0929 10.9204 31.6829 10.9204 38.9535C10.9204 53.4484 22.7123 65.2403 37.2071 65.2403C40.5332 65.2403 43.7677 64.6173 46.8336 63.4096C48.7614 65.6044 51.5792 66.9988 54.7228 67.0001H54.726C60.5213 67.0001 65.2393 62.2846 65.2412 56.488C65.2412 56.488 65.2412 56.488 65.2412 56.4874C65.2418 53.3444 63.8492 50.5266 61.6569 48.5976ZM32.8257 7.73828C32.8257 7.4362 33.0714 7.19052 33.3735 7.19052H41.0402C41.3423 7.19052 41.588 7.4362 41.588 7.73828C41.588 8.04036 41.3423 8.28604 41.0402 8.28604H33.3735C33.0714 8.28604 32.8257 8.04036 32.8257 7.73828ZM37.2071 63.0499C23.9206 63.0499 13.1108 52.2401 13.1108 38.9535C13.1108 25.667 23.9206 14.8579 37.2071 14.8579C50.4937 14.8579 61.3028 25.667 61.3028 38.9535C61.3028 41.8246 60.782 44.6173 59.7999 47.2808C58.7176 46.6817 57.5174 46.2781 56.2464 46.0926C56.8192 44.5609 57.2178 42.9608 57.4096 41.3188C58.042 35.9221 56.5347 30.6024 53.1654 26.3401C49.7962 22.0777 44.9679 19.3822 39.5718 18.7505C35.0374 18.2215 30.5758 19.1867 26.6782 21.5482C26.1605 21.8615 25.9957 22.5352 26.309 23.0523C26.6218 23.5693 27.2968 23.7361 27.8132 23.4221C31.2902 21.3156 35.2649 20.4545 39.3167 20.9258C44.1325 21.4899 48.4393 23.8952 51.4463 27.6988C54.4534 31.5018 55.7977 36.2486 55.2336 41.0644C55.04 42.7239 54.6232 44.339 53.9952 45.8644C53.9764 45.9108 53.9802 45.9591 53.9676 46.0067C51.4463 46.186 49.0986 47.2426 47.2924 49.0476C45.4956 50.8431 44.4377 53.1771 44.2496 55.6846C41.3767 56.8967 38.2105 57.3442 35.0963 56.9813C25.1565 55.8175 18.0162 46.7838 19.1788 36.8434C19.2496 36.243 18.819 35.6983 18.2186 35.6281C17.6176 35.5511 17.0736 35.9873 17.0034 36.5883C15.6992 47.7289 23.7019 57.8531 34.8419 59.1566C35.6297 59.2494 36.4219 59.2945 37.2109 59.2945C39.6445 59.2945 42.0555 58.8358 44.3299 57.984C44.5135 59.26 44.9177 60.4652 45.5181 61.552C42.8602 62.5303 40.0732 63.0499 37.2071 63.0499ZM54.726 64.8097C54.7247 64.8097 54.7235 64.8097 54.7228 64.8097C50.1327 64.8078 46.3999 61.0725 46.4012 56.4824C46.4012 54.2588 47.2673 52.1687 48.8404 50.5975C50.4129 49.0263 52.5017 48.1608 54.7247 48.1608H54.7279C56.9515 48.1614 59.0416 49.0275 60.6141 50.6006C62.1853 52.173 63.0501 54.2638 63.0501 56.4868C63.0489 61.0763 59.3149 64.8097 54.726 64.8097Z" fill="#A9780B"/>
<path d="M28.1048 47.3761C28.3661 47.3761 28.6287 47.2827 28.838 47.0941L34.7875 41.7312C35.3434 42.0458 35.9764 42.2401 36.6589 42.2401C38.7729 42.2401 40.4926 40.5204 40.4926 38.4064C40.4926 36.2931 38.7729 34.5728 36.6589 34.5728C34.5456 34.5728 32.8259 36.2931 32.8259 38.4064C32.8259 39.0382 32.9939 39.626 33.2665 40.1525L27.3709 45.4677C26.9215 45.8726 26.8864 46.5651 27.2907 47.0139C27.5075 47.2539 27.8058 47.3761 28.1048 47.3761ZM36.6596 36.7632C37.5652 36.7632 38.3022 37.5002 38.3022 38.4064C38.3022 39.312 37.5652 40.0491 36.6596 40.0491C35.7533 40.0491 35.0163 39.312 35.0163 38.4064C35.0163 37.5002 35.7533 36.7632 36.6596 36.7632Z" fill="#A9780B"/>
<path d="M20.0211 30.2089C20.1947 30.3098 20.3852 30.358 20.572 30.358C20.9493 30.358 21.3159 30.1631 21.5196 29.8146C22.0799 28.8539 22.7342 27.9389 23.4631 27.0953C23.8585 26.6378 23.8084 25.9459 23.3509 25.5504C22.8921 25.1537 22.2015 25.2039 21.806 25.6626C20.9888 26.6077 20.2555 27.6337 19.6275 28.711C19.3223 29.2331 19.4991 29.9036 20.0211 30.2089Z" fill="#A9780B"/>
<path d="M54.7317 49.9067C54.1263 49.9067 53.6362 50.3968 53.6362 51.0016V57.5735C53.6362 58.1783 54.1263 58.669 54.7317 58.669C55.3371 58.669 55.8266 58.1783 55.8266 57.5735V51.0016C55.8266 50.3968 55.3371 49.9067 54.7317 49.9067Z" fill="#A9780B"/>
<path d="M55.8266 60.8593C55.8266 61.4641 55.3365 61.9548 54.7317 61.9548C54.1263 61.9548 53.6362 61.4641 53.6362 60.8593C53.6362 60.2545 54.1263 59.7638 54.7317 59.7638C55.3365 59.7638 55.8266 60.2545 55.8266 60.8593Z" fill="#A9780B"/>
</g>
<defs>
<clipPath id="clip0">
<rect width="62" height="62" fill="white" transform="translate(7 5.00012)"/>
</clipPath>
</defs>
</svg>
