<svg width="1440" height="490" viewBox="0 0 1440 490" fill="none" xmlns="http://www.w3.org/2000/svg">
<path d="M185 469.92C119.491 477.524 37.9473 490.782 0 489.514V3.80205C24.9653 -1.90103 78.8904 3.80205 145.798 9.50513C199.323 14.0676 257.309 11.4062 279.612 9.50513C313.565 3.80205 459.362 -5.70308 569.209 9.50513C679.057 24.7133 735.978 19.0103 839.834 9.50513C943.689 0 1049.54 -4.75256 1210.32 9.50513C1338.94 20.9113 1417.03 7.92094 1440 0V489.514C1379 469.92 1324.62 469.92 1233.29 483.811C1169.02 493.584 1075.08 466.49 979 462.444C839.5 456.57 819 483.811 734 483.811C646 483.811 552.858 479.246 448 462.444C355 447.542 266.886 460.415 185 469.92Z" fill="#fafafa"/>
</svg>
